<svg width="81" height="81" viewBox="0 0 81 81" fill="none" xmlns="http://www.w3.org/2000/svg">
<rect x="1.5" y="1.5" width="78" height="78" rx="11.5" stroke="white" stroke-width="3"/>
<path d="M18.2709 31.9841C16.7584 30.5725 15.3284 29.3533 14.0359 28.0058C12.4317 26.3375 12.7159 24.5958 14.7875 23.6241C15.8007 23.1154 16.9171 22.8457 18.0509 22.8358C30.0409 23.2941 42.0308 23.8166 54.0208 24.4033C54.8605 24.49 55.6552 24.8251 56.3033 25.3658C57.3874 26.3495 58.2459 27.5559 58.8203 28.9023C59.3946 30.2487 59.6711 31.7034 59.6308 33.1666C57.9992 33.2583 56.34 33.3866 54.69 33.4508C53.04 33.515 51.1242 33.515 49.3458 33.5425C48.8453 33.565 48.3467 33.4668 47.892 33.2562C47.4373 33.0456 47.0399 32.7288 46.7333 32.3325C46.2677 31.7212 45.6586 31.2342 44.9599 30.9144C44.2612 30.5946 43.4945 30.452 42.7275 30.4991C38.6025 30.6 34.4775 30.6091 30.3525 30.7466C29.5389 30.835 28.7162 30.7129 27.9633 30.3918C27.2105 30.0708 26.5528 29.5617 26.0534 28.9133C25.5767 28.29 25.1367 27.6575 24.6325 27.08C23.5761 25.8194 22.147 24.9264 20.5509 24.5294C18.9548 24.1325 17.2739 24.252 15.75 24.8708C14.7234 25.32 14.5492 25.9066 15.3009 26.7041C16.355 27.8775 17.4917 28.9775 18.665 30.1875C19.435 29.0875 19.9484 28.1891 20.6175 27.4375C21.9559 25.9066 22.1575 25.9341 23.4959 27.5016C23.615 27.6391 23.7159 27.7858 23.89 28.0058C21.5984 29.2433 20.6084 31.3333 20.1592 33.6983C19.5941 36.3699 19.936 39.1537 21.1309 41.6091C21.38 42.1225 21.6876 42.6055 22.0475 43.0483C24.0092 45.4133 26.7225 45.3675 28.5192 42.865C30.5634 40.005 30.7467 36.7875 30.0409 33.46C29.9492 33.0108 29.8209 32.5433 29.7017 32.0941C30.4992 31.81 30.875 31.9658 31.04 32.8366C31.7459 36.5033 31.5075 40.0142 29.4909 43.2408C27.2267 46.8617 22.9275 47.0725 20.3242 43.69C17.8217 40.5 17.4092 36.7508 18.0967 32.8366C18.1609 32.4608 18.2434 32.085 18.2709 31.9841Z" fill="white"/>
<path d="M36.6592 45.1934C40.6283 41.16 40.7383 36.4942 39.785 31.4434C41.3617 31.5442 42.8833 31.6084 44.3683 31.7825C44.7724 31.912 45.1191 32.1777 45.3492 32.5342C45.982 33.4024 46.8396 34.0815 47.8298 34.4982C48.82 34.915 49.9052 35.0536 50.9683 34.8992C52.8658 34.6884 54.7908 34.6334 56.8167 34.4959C57.0092 37.5667 56.615 40.3992 54.8642 42.9017C54.5324 43.2405 54.0823 43.4377 53.6083 43.4517C50.6567 43.6075 47.705 43.69 44.7533 43.8184C44.3614 43.8115 43.9729 43.893 43.6167 44.0567C41.4992 45.23 39.125 44.845 36.6592 45.1934ZM40.2983 46.22L43.8183 45.0375C44.0823 44.9296 44.36 44.8587 44.6433 44.8267C47.7692 44.7075 50.895 44.6067 54.0208 44.4967C54.0758 46.4217 53.7183 46.935 52.0683 47.6042C51.9262 47.6945 51.8089 47.819 51.7273 47.9664C51.6456 48.1137 51.6021 48.2791 51.6008 48.4475C51.7667 49.1043 51.7886 49.7892 51.6652 50.4553C51.5418 51.1213 51.276 51.7529 50.8858 52.3067C50.7244 52.6171 50.6514 52.9659 50.675 53.315C50.675 54.7725 50.5925 56.23 50.675 57.6875C50.675 58.3017 50.4458 58.6042 49.9233 58.6042C48.2611 58.6409 46.5989 58.6409 44.9367 58.6042C44.2858 58.6042 44.02 58.1917 44.02 57.5317C44.02 55.57 44.0842 53.6175 44.02 51.6559C43.9615 50.5398 43.8144 49.4302 43.58 48.3375C43.415 47.5034 42.6633 47.5584 42.0217 47.5675C41.0042 47.5859 40.39 47.1734 40.2983 46.22ZM48.3008 49.6667C48.3008 50.675 48.8692 51.5 49.5383 51.5C50.2075 51.5 50.7942 50.6384 50.7942 49.6667C50.7942 48.695 50.2442 47.8334 49.5383 47.8334C48.8325 47.8334 48.2917 48.6767 48.3008 49.6667ZM59.2183 57.9167L63.3342 58.9434C63.9788 57.3047 64.3175 55.5617 64.3333 53.8009C64.3528 52.6674 64.2915 51.534 64.15 50.4092C64.0217 49.1717 63.7558 48.9975 62.4725 49.135C61.4275 49.245 60.3825 49.3734 59.31 49.5017C59.5392 47.1642 60.85 45.7525 62.9767 45.5967C64.0481 45.4306 65.1428 45.4994 66.185 45.7984C66.8246 46.0928 67.3593 46.5751 67.7179 47.181C68.0766 47.7869 68.2421 48.4877 68.1925 49.19C68.1925 52.5634 68.275 55.9459 68.1925 59.3284C68.1283 61.9134 66.3592 63.325 63.8383 63.0684C60.6208 62.7292 59.1175 61.1525 59.2183 57.9167Z" fill="white"/>
<path d="M31.8283 31.8559C33.8908 31.7367 35.935 31.5992 37.9883 31.5259C38.1292 31.5487 38.262 31.607 38.3742 31.6952C38.4864 31.7833 38.5745 31.8986 38.63 32.03C39.5467 36.0175 39.345 39.8675 37.0808 43.4242C36.7399 44.0487 36.2294 44.5641 35.6083 44.9112C34.9871 45.2583 34.2806 45.4228 33.57 45.3859C31.6267 45.3859 29.6742 45.6059 27.7033 45.7434C32.5708 42.1775 32.6717 37.2092 31.8283 31.8559ZM62.6375 57.55C58.9708 56.5234 55.2492 57.1192 51.4175 57.22V52.2517C51.4436 52.1425 51.4967 52.0416 51.572 51.9583C51.6473 51.875 51.7423 51.8119 51.8483 51.775C55.515 51.1884 59.1817 50.62 62.8483 50.0609C63.4512 52.531 63.3784 55.1177 62.6375 57.55ZM29.3992 35.9167C29.4588 36.2184 29.4773 36.5267 29.4542 36.8334C29.3595 38.5384 28.8867 40.2011 28.07 41.7009C26.5575 44.2675 24.0367 44.4509 22.5242 41.875C21.5073 40.242 20.9464 38.3665 20.8996 36.4434C20.8529 34.5202 21.322 32.6197 22.2583 30.9392C22.527 30.4625 22.8671 30.0297 23.2667 29.6559C24.1833 28.8309 24.4858 28.9134 25.375 29.72C26.1083 30.38 26.9883 30.8659 27.7583 31.4709C28.1571 31.7208 28.4754 32.0805 28.675 32.5067C28.9775 33.6434 29.1792 34.7709 29.3992 35.9167ZM27.9783 40.0234C28.5114 38.9441 28.7971 37.7596 28.8145 36.556C28.832 35.3524 28.5808 34.1601 28.0792 33.0659C27.9967 32.8825 27.905 32.6992 27.8042 32.525C26.2092 29.775 22.8633 30.6917 22.13 34.945C21.9163 36.1864 22.0107 37.4612 22.405 38.6575C23.6333 42.3242 26.6033 42.7 27.96 40.0417L27.9783 40.0234Z" fill="white"/>
<path d="M27.5016 38.2175C27.3398 38.8237 27.0929 39.4039 26.7683 39.9408C26.145 40.94 25.1641 40.8575 24.3391 40.005C22.7808 38.3825 22.7075 34.3308 24.2108 32.6166C25.0266 31.7 26.1633 31.7 26.7866 32.7541C26.8783 32.9375 26.9791 33.1208 27.0616 33.3225C26.9744 33.2866 26.881 33.268 26.7866 33.2675C26.0441 33.2675 25.4391 34.4591 25.4391 35.935C25.4391 37.4108 26.0258 38.6666 26.75 38.6666C26.9028 38.6604 27.0516 38.6161 27.1829 38.5376C27.3142 38.4592 27.4238 38.3491 27.5016 38.2175Z" fill="white"/>
</svg>
