<svg width="81" height="81" viewBox="0 0 81 81" fill="none" xmlns="http://www.w3.org/2000/svg">
<rect x="1.5" y="1.5" width="78" height="78" rx="11.5" stroke="white" stroke-width="3"/>
<path d="M14 23.875C14 22.0516 14.7243 20.303 16.0136 19.0136C17.303 17.7243 19.0516 17 20.875 17H48.375C50.1984 17 51.947 17.7243 53.2364 19.0136C54.5257 20.303 55.25 22.0516 55.25 23.875V26.9481L66.4391 20.6541C66.7004 20.5072 66.9956 20.4312 67.2953 20.4336C67.5951 20.4361 67.889 20.5169 68.1479 20.6681C68.4068 20.8192 68.6216 21.0355 68.7711 21.2953C68.9206 21.5552 68.9995 21.8496 69 22.1494V46.2188C68.9998 46.519 68.921 46.814 68.7713 47.0743C68.6217 47.3347 68.4064 47.5512 68.147 47.7025C67.8876 47.8537 67.5931 47.9344 67.2929 47.9364C66.9926 47.9385 66.697 47.8618 66.4356 47.7141L55.25 41.4063V44.5C55.25 46.3234 54.5257 48.072 53.2364 49.3614C51.947 50.6507 50.1984 51.375 48.375 51.375H41.5V54.8125C41.5 58.4592 40.0513 61.9566 37.4727 64.5352C34.8941 67.1138 31.3967 68.5625 27.75 68.5625H19.1562C18.7004 68.5625 18.2632 68.3814 17.9409 68.0591C17.6186 67.7368 17.4375 67.2996 17.4375 66.8438V59.9688C17.4375 59.5129 17.6186 59.0757 17.9409 58.7534C18.2632 58.4311 18.7004 58.25 19.1562 58.25H26.0312C27.3988 58.25 28.7103 57.7068 29.6773 56.7398C30.6443 55.7728 31.1875 54.4613 31.1875 53.0938V51.375H20.875C19.0516 51.375 17.303 50.6507 16.0136 49.3614C14.7243 48.072 14 46.3234 14 44.5V23.875ZM34.625 51.375V53.0938C34.625 55.373 33.7196 57.5588 32.1079 59.1704C30.4963 60.7821 28.3105 61.6875 26.0312 61.6875H20.875V65.125H27.75C30.485 65.125 33.1081 64.0385 35.042 62.1045C36.976 60.1706 38.0625 57.5475 38.0625 54.8125V51.375H34.625ZM20.875 47.9375H48.375C49.2867 47.9375 50.161 47.5753 50.8057 46.9307C51.4503 46.286 51.8125 45.4117 51.8125 44.5V23.875C51.8125 22.9633 51.4503 22.089 50.8057 21.4443C50.161 20.7997 49.2867 20.4375 48.375 20.4375H20.875C19.9633 20.4375 19.089 20.7997 18.4443 21.4443C17.7997 22.089 17.4375 22.9633 17.4375 23.875V44.5C17.4375 45.4117 17.7997 46.286 18.4443 46.9307C19.089 47.5753 19.9633 47.9375 20.875 47.9375ZM55.2672 30.8875V37.4669L65.5625 43.2763V25.0919L55.2672 30.8875Z" fill="white"/>
</svg>
