<svg width="110" height="110" viewBox="0 0 110 110" fill="none" xmlns="http://www.w3.org/2000/svg">
<rect x="1" y="1" width="108" height="108" rx="19" stroke="#6CC852" stroke-width="2"/>
<path d="M57.9081 23.2516C57.7024 23.2511 57.4986 23.2912 57.3085 23.3695C57.1184 23.4478 56.9457 23.5628 56.8003 23.7078C56.6548 23.8528 56.5396 24.0251 56.461 24.2146C56.3825 24.4042 56.3423 24.6074 56.3428 24.8125C56.3418 25.1997 56.4856 25.5733 56.7461 25.8604C57.0065 26.1476 57.365 26.3276 57.7514 26.3653C57.9691 26.3876 58.1891 26.3641 58.3972 26.2962C58.6052 26.2283 58.7966 26.1175 58.959 25.9711C59.1213 25.8247 59.251 25.6459 59.3396 25.4463C59.4282 25.2467 59.4738 25.0308 59.4733 24.8125C59.4733 23.9472 58.7745 23.2516 57.9081 23.2516Z" fill="#6CC852"/>
<path d="M89.2451 26.375C84.9253 26.375 81.4109 22.8703 81.4109 18.5625C81.4109 17.6997 80.7092 17 79.844 17H35.9721C35.1069 17 34.4053 17.6997 34.4053 18.5625C34.4053 22.8703 30.8908 26.375 26.571 26.375C25.7058 26.375 25.0042 27.0747 25.0042 27.9375V53.4359C25.0042 73.3073 37.9926 91.1133 57.4581 96.9342C57.7517 97.022 58.0647 97.0219 58.3582 96.9341C77.4021 91.2373 90.812 73.742 90.812 53.4359V27.9375C90.812 27.0747 90.1103 26.375 89.2451 26.375ZM87.6783 53.4359C87.6783 72.0997 75.7356 88.2628 57.9081 93.8036C40.2227 88.307 28.1379 71.9975 28.1379 53.4359V29.3888C32.9342 28.7016 36.7383 24.908 37.4274 20.125H78.3887C79.0778 24.908 82.882 28.7016 87.6783 29.3888V53.4359Z" fill="#6CC852"/>
<path d="M83.6063 31.4516C80.3388 30.0245 77.7512 27.4441 76.3201 24.1856C76.198 23.9075 75.9972 23.6708 75.7423 23.5047C75.4874 23.3385 75.1894 23.25 74.8849 23.25H64.1723C63.3071 23.25 62.6055 23.9497 62.6055 24.8125C62.6055 25.6753 63.3071 26.375 64.1723 26.375H73.8942C75.5446 29.6014 78.1755 32.2249 81.4109 33.8708V53.4359C81.4109 68.727 72.2057 81.9208 57.9081 87.2022C43.6104 81.9206 34.4053 68.727 34.4053 53.4359V33.8708C37.6406 32.2249 40.2715 29.6013 41.9219 26.375H51.6438C52.509 26.375 53.2106 25.6753 53.2106 24.8125C53.2106 23.9497 52.509 23.25 51.6438 23.25H40.9312C40.6267 23.25 40.3288 23.3385 40.0739 23.5047C39.819 23.6709 39.6182 23.9075 39.496 24.1856C38.065 27.4441 35.4773 30.0245 32.2098 31.4516C31.9309 31.5734 31.6936 31.7737 31.527 32.0279C31.3604 32.2821 31.2716 32.5791 31.2716 32.8828V53.4359C31.2716 70.188 41.6615 84.788 57.3854 90.3369C57.7235 90.4563 58.0926 90.4563 58.4308 90.3369C74.1414 84.7927 84.5446 70.2016 84.5446 53.4359V32.8828C84.5446 32.2622 84.1762 31.7006 83.6063 31.4516Z" fill="#6CC852"/>
<path d="M57.9081 39.8125C50.1324 39.8125 43.8064 46.1209 43.8064 53.875C43.8064 61.6291 50.1324 67.9375 57.9081 67.9375C65.6837 67.9375 72.0097 61.6291 72.0097 53.875C72.0097 46.1209 65.6837 39.8125 57.9081 39.8125ZM57.9081 64.8125C51.8603 64.8125 46.9401 59.9059 46.9401 53.875C46.9401 47.8441 51.8603 42.9375 57.9081 42.9375C63.9558 42.9375 68.876 47.8441 68.876 53.875C68.876 59.9059 63.9558 64.8125 57.9081 64.8125Z" fill="#6CC852"/>
<path d="M65.2834 49.645C64.6714 49.035 63.6796 49.035 63.0674 49.645L56.3412 56.3527L54.3154 54.3327C53.7034 53.7227 52.7116 53.7227 52.0994 54.3327C51.4876 54.9428 51.4876 55.9322 52.0994 56.5425L55.2331 59.6675C55.5393 59.9723 55.9401 60.125 56.3412 60.125C56.7423 60.125 57.1431 59.9723 57.4491 59.6673L65.2834 51.8548C65.8953 51.2447 65.8953 50.2553 65.2834 49.645Z" fill="#6CC852"/>
</svg>
