<svg width="31" height="30" viewBox="0 0 31 30" fill="none" xmlns="http://www.w3.org/2000/svg">
<path d="M6.37326 12.9833C8.77994 17.7 12.6574 21.55 17.3872 23.9667L21.0641 20.3C21.5153 19.85 22.1838 19.7 22.7688 19.9C24.6407 20.5167 26.663 20.85 28.7354 20.85C29.6546 20.85 30.4067 21.6 30.4067 22.5167V28.3333C30.4067 29.25 29.6546 30 28.7354 30C13.0418 30 0.32312 17.3167 0.32312 1.66667C0.32312 0.75 1.07521 0 1.99443 0H7.84401C8.76323 0 9.51532 0.75 9.51532 1.66667C9.51532 3.75 9.84958 5.75 10.468 7.61667C10.6518 8.2 10.5181 8.85 10.0501 9.31667L6.37326 12.9833Z" fill="white"/>
</svg>
