<svg width="81" height="81" viewBox="0 0 81 81" fill="none" xmlns="http://www.w3.org/2000/svg">
<path d="M31.8642 67.8457C31.473 67.6791 31.1479 67.3859 30.9402 67.0122C30.7325 66.6386 30.6541 66.2058 30.7172 65.7822L34.1964 42.9289H24.9631C24.6704 42.9368 24.3797 42.8768 24.1136 42.7535C23.8475 42.6302 23.6131 42.4468 23.4284 42.2176C23.2436 41.9884 23.1136 41.7194 23.0482 41.4315C22.9829 41.1435 22.984 40.8443 23.0514 40.5568L28.7864 15.4857C28.8873 15.0542 29.1325 14.671 29.4807 14.4005C29.8289 14.13 30.2588 13.9888 30.6981 14.0007H49.8148C50.1004 13.9997 50.3825 14.0633 50.6406 14.1868C50.8986 14.3103 51.1259 14.4905 51.3059 14.7143C51.4883 14.9405 51.6175 15.2056 51.6838 15.4896C51.75 15.7735 51.7515 16.0689 51.6882 16.3535L48.381 31.3576H57.4614C57.8197 31.3569 58.171 31.4578 58.4752 31.6487C58.7794 31.8397 59.0243 32.113 59.1819 32.4376C59.3189 32.7491 59.3716 33.0917 59.3347 33.4305C59.2978 33.7693 59.1725 34.0921 58.9717 34.3661L34.12 67.1514C33.952 67.4026 33.7277 67.6103 33.4654 67.7578C33.203 67.9052 32.9099 67.9882 32.6098 68C32.354 67.9952 32.1012 67.9429 31.8642 67.8457ZM43.6018 35.2147L47.4252 17.8578H32.2274L27.3718 39.0718H38.6697L35.6302 58.8973L53.6381 35.2147H43.6018Z" fill="white"/>
<rect x="1.5" y="1.52022" width="78" height="77.9117" rx="11.5" stroke="white" stroke-width="3"/>
</svg>
