<svg width="51" height="51" viewBox="0 0 51 51" fill="none" xmlns="http://www.w3.org/2000/svg">
<rect x="1" y="1" width="49" height="49" rx="11" stroke="white" stroke-width="2"/>
<path d="M17.2228 11C16.2255 11 15.269 11.3951 14.5638 12.0983C13.8586 12.8016 13.4624 13.7554 13.4624 14.75V37.25C13.4624 38.2446 13.8586 39.1984 14.5638 39.9016C15.269 40.6049 16.2255 41 17.2228 41H37.1532C37.4524 41 37.7394 40.8815 37.9509 40.6705C38.1625 40.4595 38.2814 40.1734 38.2814 39.875C38.2814 39.5766 38.1625 39.2905 37.9509 39.0795C37.7394 38.8685 37.4524 38.75 37.1532 38.75H17.2228C16.8239 38.75 16.4413 38.592 16.1592 38.3107C15.8771 38.0294 15.7187 37.6478 15.7187 37.25H37.1532C37.4524 37.25 37.7394 37.1315 37.9509 36.9205C38.1625 36.7095 38.2814 36.4234 38.2814 36.125V14.75C38.2814 14.2575 38.1841 13.7699 37.9951 13.3149C37.8061 12.86 37.5291 12.4466 37.1799 12.0983C36.8308 11.7501 36.4162 11.4739 35.96 11.2855C35.5037 11.097 35.0147 11 34.5209 11H17.2228ZM30.7605 26.375V27.125C30.7605 28.625 28.6802 29.75 25.8719 29.75C23.0636 29.75 20.9833 28.625 20.9833 27.125V26.375C20.9833 26.0766 21.1022 25.7905 21.3137 25.5795C21.5253 25.3685 21.8122 25.25 22.1114 25.25H29.6323C29.9315 25.25 30.2185 25.3685 30.43 25.5795C30.6416 25.7905 30.7605 26.0766 30.7605 26.375ZM28.5042 21.1175C28.5042 21.8137 28.2269 22.4814 27.7332 22.9737C27.2395 23.4659 26.57 23.7425 25.8719 23.7425C25.1737 23.7425 24.5042 23.4659 24.0106 22.9737C23.5169 22.4814 23.2396 21.8137 23.2396 21.1175C23.2396 19.67 24.4173 18.5 25.8719 18.5C27.3264 18.5 28.5042 19.6685 28.5042 21.1175Z" fill="white"/>
</svg>
