<svg width="79" height="79" viewBox="0 0 79 79" fill="none" xmlns="http://www.w3.org/2000/svg">
<rect x="16.75" y="11.5" width="47.8207" height="55.25" rx="2.5" stroke="white"/>
<rect x="21.5568" y="15.2455" width="38.2075" height="19.1038" rx="2" fill="white"/>
<circle cx="42.783" cy="40.7168" r="2.12264" fill="white"/>
<circle cx="42.783" cy="47.0848" r="2.12264" fill="white"/>
<circle cx="42.783" cy="53.4528" r="2.12264" fill="white"/>
<circle cx="42.783" cy="59.8209" r="2.12264" fill="white"/>
<circle cx="50.2123" cy="40.7168" r="2.12264" fill="white"/>
<circle cx="50.2123" cy="47.0848" r="2.12264" fill="white"/>
<circle cx="50.2123" cy="53.4528" r="2.12264" fill="white"/>
<circle cx="50.2123" cy="59.8209" r="2.12264" fill="white"/>
<circle cx="57.6416" cy="40.7168" r="2.12264" fill="white"/>
<circle cx="57.6416" cy="47.0848" r="2.12264" fill="white"/>
<circle cx="57.6416" cy="53.4528" r="2.12264" fill="white"/>
<circle cx="57.6416" cy="59.8209" r="2.12264" fill="white"/>
<path fill-rule="evenodd" clip-rule="evenodd" d="M36.7248 53.1197C36.602 53.381 36.4655 53.6344 36.3161 53.8792C36.3311 53.8282 36.3392 53.7741 36.3392 53.7182C36.3392 53.4042 36.0846 53.1496 35.7706 53.1496C35.4566 53.1496 35.2021 53.4042 35.2021 53.7182C35.2021 54.0322 35.4566 54.2868 35.7706 54.2868C35.9149 54.2868 36.0467 54.233 36.1469 54.1444C35.5605 55.025 34.8034 55.7822 33.9228 56.3686C34.0114 56.2683 34.0652 56.1365 34.0652 55.9922C34.0652 55.6782 33.8106 55.4236 33.4966 55.4236C33.1826 55.4236 32.928 55.6782 32.928 55.9922C32.928 56.3062 33.1826 56.5608 33.4966 56.5608C33.5525 56.5608 33.6066 56.5527 33.6577 56.5376C33.4128 56.6871 33.1592 56.8237 32.8979 56.9465C32.8216 56.7224 32.6094 56.5612 32.3595 56.5612C32.0455 56.5612 31.791 56.8158 31.791 57.1298C31.791 57.2097 31.8075 57.2857 31.8372 57.3547C31.3394 57.5061 30.821 57.6101 30.2871 57.6614C30.5013 57.5799 30.6536 57.3726 30.6536 57.1298C30.6536 56.8158 30.399 56.5612 30.085 56.5612C29.771 56.5612 29.5164 56.8158 29.5164 57.1298C29.5164 57.4028 29.7088 57.6308 29.9654 57.6858C29.8169 57.694 29.6673 57.6982 29.5167 57.6982C29.0526 57.6982 28.5977 57.6585 28.1554 57.5822C28.2916 57.4784 28.3795 57.3143 28.3795 57.1298C28.3795 56.8158 28.125 56.5612 27.811 56.5612C27.497 56.5612 27.2424 56.8158 27.2424 57.1298C27.2424 57.2221 27.2644 57.3094 27.3035 57.3865C26.8734 57.2622 26.4582 57.1027 26.0614 56.9111C25.9757 56.7057 25.7729 56.5612 25.5364 56.5612C25.5004 56.5612 25.4651 56.5646 25.4309 56.571C25.2542 56.465 25.0818 56.3524 24.9143 56.2335C24.9487 56.1603 24.9679 56.0785 24.9679 55.9922C24.9679 55.6782 24.7134 55.4236 24.3994 55.4236C24.2728 55.4236 24.1559 55.465 24.0615 55.5349C23.9441 55.4244 23.8302 55.3104 23.7197 55.1931C23.7896 55.0986 23.831 54.9817 23.831 54.8552C23.831 54.5412 23.5764 54.2866 23.2624 54.2866C23.1762 54.2866 23.0944 54.3058 23.0212 54.3402C22.9024 54.1729 22.7899 54.0007 22.6841 53.8242C22.6906 53.7898 22.6939 53.7544 22.6939 53.7182C22.6939 53.4815 22.5493 53.2786 22.3436 53.193C22.1522 52.7964 21.9927 52.3814 21.8686 51.9515C21.9457 51.9906 22.033 52.0127 22.1254 52.0127C22.4394 52.0127 22.6939 51.7581 22.6939 51.4441C22.6939 51.1301 22.4394 50.8756 22.1254 50.8756C21.9408 50.8756 21.7767 50.9636 21.6728 51.0999C21.5966 50.6574 21.5568 50.2025 21.5568 49.7383C21.5568 49.5874 21.561 49.4375 21.5693 49.2887C21.6241 49.5455 21.8522 49.7382 22.1254 49.7382C22.4394 49.7382 22.6939 49.4836 22.6939 49.1696C22.6939 48.8556 22.4394 48.601 22.1254 48.601C21.8824 48.601 21.675 48.7534 21.5936 48.9679C21.6449 48.4341 21.7489 47.9156 21.9003 47.4179C21.9694 47.4476 22.0454 47.4641 22.1254 47.4641C22.4394 47.4641 22.6939 47.2096 22.6939 46.8956C22.6939 46.6456 22.5327 46.4334 22.3085 46.3571C22.4311 46.0964 22.5673 45.8434 22.7164 45.599C22.7017 45.6495 22.6938 45.7028 22.6938 45.758C22.6938 46.072 22.9484 46.3266 23.2624 46.3266C23.5764 46.3266 23.831 46.072 23.831 45.758C23.831 45.444 23.5764 45.1895 23.2624 45.1895C23.1189 45.1895 22.9877 45.2426 22.8877 45.3304C23.4735 44.4512 24.2295 43.6952 25.1086 43.1094C25.021 43.2094 24.9678 43.3405 24.9678 43.4839C24.9678 43.7979 25.2224 44.0525 25.5364 44.0525C25.8504 44.0525 26.105 43.7979 26.105 43.4839C26.105 43.1699 25.8504 42.9154 25.5364 42.9154C25.4813 42.9154 25.428 42.9232 25.3776 42.9379C25.6219 42.7888 25.8748 42.6526 26.1355 42.5301C26.2118 42.7543 26.424 42.9155 26.6739 42.9155C26.988 42.9155 27.2425 42.661 27.2425 42.3469C27.2425 42.267 27.226 42.1909 27.1962 42.1219C27.694 41.9705 28.2124 41.8665 28.7462 41.8152C28.5318 41.8966 28.3794 42.104 28.3794 42.3469C28.3794 42.661 28.6339 42.9155 28.9479 42.9155C29.2619 42.9155 29.5165 42.661 29.5165 42.3469C29.5165 42.0738 29.3239 41.8456 29.067 41.7909C29.2159 41.7826 29.3658 41.7784 29.5167 41.7784C29.9808 41.7784 30.4356 41.8181 30.8779 41.8943C30.7415 41.9982 30.6535 42.1623 30.6535 42.3469C30.6535 42.661 30.908 42.9155 31.2221 42.9155C31.5361 42.9155 31.7906 42.661 31.7906 42.3469C31.7906 42.2545 31.7685 42.1671 31.7294 42.0899C32.1594 42.2141 32.5746 42.3736 32.9714 42.5651C33.0569 42.7708 33.2599 42.9155 33.4966 42.9155C33.5328 42.9155 33.5683 42.9121 33.6026 42.9056C33.7792 43.0115 33.9513 43.1239 34.1186 43.2427C34.0842 43.3159 34.065 43.3977 34.065 43.4839C34.065 43.7979 34.3196 44.0525 34.6336 44.0525C34.7601 44.0525 34.877 44.0112 34.9715 43.9412C35.0889 44.0517 35.2029 44.1657 35.3134 44.2831C35.2434 44.3775 35.2021 44.4944 35.2021 44.621C35.2021 44.935 35.4566 45.1896 35.7706 45.1896C35.8569 45.1896 35.9387 45.1704 36.012 45.1359C36.1307 45.3032 36.2432 45.4752 36.3489 45.6517C36.3424 45.6861 36.339 45.7217 36.339 45.758C36.339 45.9949 36.4838 46.1979 36.6898 46.2834C36.8813 46.6802 37.0408 47.0954 37.165 47.5255C37.0877 47.4862 37.0002 47.464 36.9076 47.464C36.5936 47.464 36.339 47.7185 36.339 48.0326C36.339 48.3466 36.5936 48.6011 36.9076 48.6011C37.0924 48.6011 37.2567 48.5129 37.3606 48.3762C37.4369 48.8188 37.4766 49.2739 37.4766 49.7383C37.4766 49.8897 37.4724 50.0401 37.4641 50.1895C37.4101 49.9316 37.1814 49.738 36.9076 49.738C36.5936 49.738 36.339 49.9926 36.339 50.3066C36.339 50.6206 36.5936 50.8752 36.9076 50.8752C37.1513 50.8752 37.3592 50.7218 37.4401 50.5063C37.3889 51.0411 37.2847 51.5605 37.133 52.059C37.0639 52.0292 36.9877 52.0126 36.9076 52.0126C36.5936 52.0126 36.339 52.2672 36.339 52.5812C36.339 52.8312 36.5004 53.0436 36.7248 53.1197ZM26.105 50.3066C26.105 50.6206 25.8504 50.8752 25.5364 50.8752C25.2224 50.8752 24.9678 50.6206 24.9678 50.3066C24.9678 49.9926 25.2224 49.738 25.5364 49.738C25.8504 49.738 26.105 49.9926 26.105 50.3066ZM24.3994 52.0127C24.7134 52.0127 24.9679 51.7581 24.9679 51.4441C24.9679 51.1301 24.7134 50.8756 24.3994 50.8756C24.0854 50.8756 23.8308 51.1301 23.8308 51.4441C23.8308 51.7581 24.0854 52.0127 24.3994 52.0127ZM23.831 52.5812C23.831 52.8952 23.5764 53.1497 23.2624 53.1497C22.9484 53.1497 22.6938 52.8952 22.6938 52.5812C22.6938 52.2672 22.9484 52.0126 23.2624 52.0126C23.5764 52.0126 23.831 52.2672 23.831 52.5812ZM30.6536 50.3066C30.6536 50.6206 30.399 50.8752 30.085 50.8752C29.771 50.8752 29.5164 50.6206 29.5164 50.3066C29.5164 49.9926 29.771 49.738 30.085 49.738C30.399 49.738 30.6536 49.9926 30.6536 50.3066ZM30.6536 48.0326C30.6536 48.3466 30.399 48.6011 30.085 48.6011C29.771 48.6011 29.5164 48.3466 29.5164 48.0326C29.5164 47.7185 29.771 47.464 30.085 47.464C30.399 47.464 30.6536 47.7185 30.6536 48.0326ZM30.085 46.3266C30.399 46.3266 30.6536 46.072 30.6536 45.758C30.6536 45.444 30.399 45.1895 30.085 45.1895C29.771 45.1895 29.5164 45.444 29.5164 45.758C29.5164 46.072 29.771 46.3266 30.085 46.3266ZM30.6536 43.4839C30.6536 43.7979 30.399 44.0525 30.085 44.0525C29.771 44.0525 29.5164 43.7979 29.5164 43.4839C29.5164 43.1699 29.771 42.9154 30.085 42.9154C30.399 42.9154 30.6536 43.1699 30.6536 43.4839ZM27.811 44.0525C28.125 44.0525 28.3795 43.7979 28.3795 43.4839C28.3795 43.1699 28.125 42.9154 27.811 42.9154C27.497 42.9154 27.2424 43.1699 27.2424 43.4839C27.2424 43.7979 27.497 44.0525 27.811 44.0525ZM31.2221 45.1896C31.5361 45.1896 31.7906 44.935 31.7906 44.621C31.7906 44.307 31.5361 44.0525 31.2221 44.0525C30.908 44.0525 30.6535 44.307 30.6535 44.621C30.6535 44.935 30.908 45.1896 31.2221 45.1896ZM32.9281 43.4839C32.9281 43.7979 32.6736 44.0525 32.3595 44.0525C32.0455 44.0525 31.791 43.7979 31.791 43.4839C31.791 43.1699 32.0455 42.9154 32.3595 42.9154C32.6736 42.9154 32.9281 43.1699 32.9281 43.4839ZM32.3595 46.3266C32.6736 46.3266 32.9281 46.072 32.9281 45.758C32.9281 45.444 32.6736 45.1895 32.3595 45.1895C32.0455 45.1895 31.791 45.444 31.791 45.758C31.791 46.072 32.0455 46.3266 32.3595 46.3266ZM34.0652 44.621C34.0652 44.935 33.8106 45.1896 33.4966 45.1896C33.1826 45.1896 32.928 44.935 32.928 44.621C32.928 44.307 33.1826 44.0525 33.4966 44.0525C33.8106 44.0525 34.0652 44.307 34.0652 44.621ZM31.2221 47.4641C31.5361 47.4641 31.7906 47.2096 31.7906 46.8956C31.7906 46.5816 31.5361 46.327 31.2221 46.327C30.908 46.327 30.6535 46.5816 30.6535 46.8956C30.6535 47.2096 30.908 47.4641 31.2221 47.4641ZM32.9281 48.0326C32.9281 48.3466 32.6736 48.6011 32.3595 48.6011C32.0455 48.6011 31.791 48.3466 31.791 48.0326C31.791 47.7185 32.0455 47.464 32.3595 47.464C32.6736 47.464 32.9281 47.7185 32.9281 48.0326ZM33.4966 47.4641C33.8106 47.4641 34.0652 47.2096 34.0652 46.8956C34.0652 46.5816 33.8106 46.327 33.4966 46.327C33.1826 46.327 32.928 46.5816 32.928 46.8956C32.928 47.2096 33.1826 47.4641 33.4966 47.4641ZM35.2021 45.758C35.2021 46.072 34.9476 46.3266 34.6336 46.3266C34.3196 46.3266 34.065 46.072 34.065 45.758C34.065 45.444 34.3196 45.1895 34.6336 45.1895C34.9476 45.1895 35.2021 45.444 35.2021 45.758ZM31.2221 49.7382C31.5361 49.7382 31.7906 49.4836 31.7906 49.1696C31.7906 48.8556 31.5361 48.601 31.2221 48.601C30.908 48.601 30.6535 48.8556 30.6535 49.1696C30.6535 49.4836 30.908 49.7382 31.2221 49.7382ZM32.9281 50.3066C32.9281 50.6206 32.6736 50.8752 32.3595 50.8752C32.0455 50.8752 31.791 50.6206 31.791 50.3066C31.791 49.9926 32.0455 49.738 32.3595 49.738C32.6736 49.738 32.9281 49.9926 32.9281 50.3066ZM33.4966 52.0127C33.8106 52.0127 34.0652 51.7581 34.0652 51.4441C34.0652 51.1301 33.8106 50.8756 33.4966 50.8756C33.1826 50.8756 32.928 51.1301 32.928 51.4441C32.928 51.7581 33.1826 52.0127 33.4966 52.0127ZM32.9281 52.5812C32.9281 52.8952 32.6736 53.1497 32.3595 53.1497C32.0455 53.1497 31.791 52.8952 31.791 52.5812C31.791 52.2672 32.0455 52.0126 32.3595 52.0126C32.6736 52.0126 32.9281 52.2672 32.9281 52.5812ZM31.2221 54.2868C31.5361 54.2868 31.7906 54.0322 31.7906 53.7182C31.7906 53.4042 31.5361 53.1496 31.2221 53.1496C30.908 53.1496 30.6535 53.4042 30.6535 53.7182C30.6535 54.0322 30.908 54.2868 31.2221 54.2868ZM30.6536 52.5812C30.6536 52.8952 30.399 53.1497 30.085 53.1497C29.771 53.1497 29.5164 52.8952 29.5164 52.5812C29.5164 52.2672 29.771 52.0126 30.085 52.0126C30.399 52.0126 30.6536 52.2672 30.6536 52.5812ZM30.085 55.4238C30.399 55.4238 30.6536 55.1692 30.6536 54.8552C30.6536 54.5412 30.399 54.2866 30.085 54.2866C29.771 54.2866 29.5164 54.5412 29.5164 54.8552C29.5164 55.1692 29.771 55.4238 30.085 55.4238ZM35.2021 52.5812C35.2021 52.8952 34.9476 53.1497 34.6336 53.1497C34.3196 53.1497 34.065 52.8952 34.065 52.5812C34.065 52.2672 34.3196 52.0126 34.6336 52.0126C34.9476 52.0126 35.2021 52.2672 35.2021 52.5812ZM33.4966 54.2868C33.8106 54.2868 34.0652 54.0322 34.0652 53.7182C34.0652 53.4042 33.8106 53.1496 33.4966 53.1496C33.1826 53.1496 32.928 53.4042 32.928 53.7182C32.928 54.0322 33.1826 54.2868 33.4966 54.2868ZM32.9281 54.8552C32.9281 55.1692 32.6736 55.4238 32.3595 55.4238C32.0455 55.4238 31.791 55.1692 31.791 54.8552C31.791 54.5412 32.0455 54.2866 32.3595 54.2866C32.6736 54.2866 32.9281 54.5412 32.9281 54.8552ZM31.2221 56.5608C31.5361 56.5608 31.7906 56.3062 31.7906 55.9922C31.7906 55.6782 31.5361 55.4236 31.2221 55.4236C30.908 55.4236 30.6535 55.6782 30.6535 55.9922C30.6535 56.3062 30.908 56.5608 31.2221 56.5608ZM34.6336 50.8752C34.9476 50.8752 35.2021 50.6206 35.2021 50.3066C35.2021 49.9926 34.9476 49.738 34.6336 49.738C34.3196 49.738 34.065 49.9926 34.065 50.3066C34.065 50.6206 34.3196 50.8752 34.6336 50.8752ZM35.2021 48.0326C35.2021 48.3466 34.9476 48.6011 34.6336 48.6011C34.3196 48.6011 34.065 48.3466 34.065 48.0326C34.065 47.7185 34.3196 47.464 34.6336 47.464C34.9476 47.464 35.2021 47.7185 35.2021 48.0326ZM35.7706 49.7382C36.0846 49.7382 36.3392 49.4836 36.3392 49.1696C36.3392 48.8556 36.0846 48.601 35.7706 48.601C35.4566 48.601 35.2021 48.8556 35.2021 49.1696C35.2021 49.4836 35.4566 49.7382 35.7706 49.7382ZM36.3392 46.8956C36.3392 47.2096 36.0846 47.4641 35.7706 47.4641C35.4566 47.4641 35.2021 47.2096 35.2021 46.8956C35.2021 46.5816 35.4566 46.327 35.7706 46.327C36.0846 46.327 36.3392 46.5816 36.3392 46.8956ZM31.7906 51.4441C31.7906 51.7581 31.5361 52.0127 31.2221 52.0127C30.908 52.0127 30.6535 51.7581 30.6535 51.4441C30.6535 51.1301 30.908 50.8756 31.2221 50.8756C31.5361 50.8756 31.7906 51.1301 31.7906 51.4441ZM34.6336 55.4238C34.9476 55.4238 35.2021 55.1692 35.2021 54.8552C35.2021 54.5412 34.9476 54.2866 34.6336 54.2866C34.3196 54.2866 34.065 54.5412 34.065 54.8552C34.065 55.1692 34.3196 55.4238 34.6336 55.4238ZM36.3392 51.4441C36.3392 51.7581 36.0846 52.0127 35.7706 52.0127C35.4566 52.0127 35.2021 51.7581 35.2021 51.4441C35.2021 51.1301 35.4566 50.8756 35.7706 50.8756C36.0846 50.8756 36.3392 51.1301 36.3392 51.4441ZM34.0652 49.1696C34.0652 49.4836 33.8106 49.7382 33.4966 49.7382C33.1826 49.7382 32.928 49.4836 32.928 49.1696C32.928 48.8556 33.1826 48.601 33.4966 48.601C33.8106 48.601 34.0652 48.8556 34.0652 49.1696ZM29.5165 44.621C29.5165 44.935 29.2619 45.1896 28.9479 45.1896C28.6339 45.1896 28.3794 44.935 28.3794 44.621C28.3794 44.307 28.6339 44.0525 28.9479 44.0525C29.2619 44.0525 29.5165 44.307 29.5165 44.621ZM27.811 46.3266C28.125 46.3266 28.3795 46.072 28.3795 45.758C28.3795 45.444 28.125 45.1895 27.811 45.1895C27.497 45.1895 27.2424 45.444 27.2424 45.758C27.2424 46.072 27.497 46.3266 27.811 46.3266ZM24.9679 44.621C24.9679 44.935 24.7134 45.1896 24.3994 45.1896C24.0854 45.1896 23.8308 44.935 23.8308 44.621C23.8308 44.307 24.0854 44.0525 24.3994 44.0525C24.7134 44.0525 24.9679 44.307 24.9679 44.621ZM26.6739 45.1896C26.988 45.1896 27.2425 44.935 27.2425 44.621C27.2425 44.307 26.988 44.0525 26.6739 44.0525C26.3599 44.0525 26.1054 44.307 26.1054 44.621C26.1054 44.935 26.3599 45.1896 26.6739 45.1896ZM28.9479 47.4641C29.2619 47.4641 29.5165 47.2096 29.5165 46.8956C29.5165 46.5816 29.2619 46.327 28.9479 46.327C28.6339 46.327 28.3794 46.5816 28.3794 46.8956C28.3794 47.2096 28.6339 47.4641 28.9479 47.4641ZM24.9679 46.8956C24.9679 47.2096 24.7134 47.4641 24.3994 47.4641C24.0854 47.4641 23.8308 47.2096 23.8308 46.8956C23.8308 46.5816 24.0854 46.327 24.3994 46.327C24.7134 46.327 24.9679 46.5816 24.9679 46.8956ZM26.6739 47.4641C26.988 47.4641 27.2425 47.2096 27.2425 46.8956C27.2425 46.5816 26.988 46.327 26.6739 46.327C26.3599 46.327 26.1054 46.5816 26.1054 46.8956C26.1054 47.2096 26.3599 47.4641 26.6739 47.4641ZM25.5364 46.3266C25.8504 46.3266 26.105 46.072 26.105 45.758C26.105 45.444 25.8504 45.1895 25.5364 45.1895C25.2224 45.1895 24.9678 45.444 24.9678 45.758C24.9678 46.072 25.2224 46.3266 25.5364 46.3266ZM29.5165 49.1696C29.5165 49.4836 29.2619 49.7382 28.9479 49.7382C28.6339 49.7382 28.3794 49.4836 28.3794 49.1696C28.3794 48.8556 28.6339 48.601 28.9479 48.601C29.2619 48.601 29.5165 48.8556 29.5165 49.1696ZM27.811 50.8752C28.125 50.8752 28.3795 50.6206 28.3795 50.3066C28.3795 49.9926 28.125 49.738 27.811 49.738C27.497 49.738 27.2424 49.9926 27.2424 50.3066C27.2424 50.6206 27.497 50.8752 27.811 50.8752ZM27.2425 51.4441C27.2425 51.7581 26.988 52.0127 26.6739 52.0127C26.3599 52.0127 26.1054 51.7581 26.1054 51.4441C26.1054 51.1301 26.3599 50.8756 26.6739 50.8756C26.988 50.8756 27.2425 51.1301 27.2425 51.4441ZM25.5364 53.1497C25.8504 53.1497 26.105 52.8952 26.105 52.5812C26.105 52.2672 25.8504 52.0126 25.5364 52.0126C25.2224 52.0126 24.9678 52.2672 24.9678 52.5812C24.9678 52.8952 25.2224 53.1497 25.5364 53.1497ZM24.9679 53.7182C24.9679 54.0322 24.7134 54.2868 24.3994 54.2868C24.0854 54.2868 23.8308 54.0322 23.8308 53.7182C23.8308 53.4042 24.0854 53.1496 24.3994 53.1496C24.7134 53.1496 24.9679 53.4042 24.9679 53.7182ZM23.831 48.0326C23.831 48.3466 23.5764 48.6011 23.2624 48.6011C22.9484 48.6011 22.6938 48.3466 22.6938 48.0326C22.6938 47.7185 22.9484 47.464 23.2624 47.464C23.5764 47.464 23.831 47.7185 23.831 48.0326ZM24.3994 49.7382C24.7134 49.7382 24.9679 49.4836 24.9679 49.1696C24.9679 48.8556 24.7134 48.601 24.3994 48.601C24.0854 48.601 23.8308 48.8556 23.8308 49.1696C23.8308 49.4836 24.0854 49.7382 24.3994 49.7382ZM23.831 50.3066C23.831 50.6206 23.5764 50.8752 23.2624 50.8752C22.9484 50.8752 22.6938 50.6206 22.6938 50.3066C22.6938 49.9926 22.9484 49.738 23.2624 49.738C23.5764 49.738 23.831 49.9926 23.831 50.3066ZM25.5364 48.6011C25.8504 48.6011 26.105 48.3466 26.105 48.0326C26.105 47.7185 25.8504 47.464 25.5364 47.464C25.2224 47.464 24.9678 47.7185 24.9678 48.0326C24.9678 48.3466 25.2224 48.6011 25.5364 48.6011ZM27.2425 49.1696C27.2425 49.4836 26.988 49.7382 26.6739 49.7382C26.3599 49.7382 26.1054 49.4836 26.1054 49.1696C26.1054 48.8556 26.3599 48.601 26.6739 48.601C26.988 48.601 27.2425 48.8556 27.2425 49.1696ZM27.811 48.6011C28.125 48.6011 28.3795 48.3466 28.3795 48.0326C28.3795 47.7185 28.125 47.464 27.811 47.464C27.497 47.464 27.2424 47.7185 27.2424 48.0326C27.2424 48.3466 27.497 48.6011 27.811 48.6011ZM29.5165 51.4441C29.5165 51.7581 29.2619 52.0127 28.9479 52.0127C28.6339 52.0127 28.3794 51.7581 28.3794 51.4441C28.3794 51.1301 28.6339 50.8756 28.9479 50.8756C29.2619 50.8756 29.5165 51.1301 29.5165 51.4441ZM27.811 53.1497C28.125 53.1497 28.3795 52.8952 28.3795 52.5812C28.3795 52.2672 28.125 52.0126 27.811 52.0126C27.497 52.0126 27.2424 52.2672 27.2424 52.5812C27.2424 52.8952 27.497 53.1497 27.811 53.1497ZM27.2425 53.7182C27.2425 54.0322 26.988 54.2868 26.6739 54.2868C26.3599 54.2868 26.1054 54.0322 26.1054 53.7182C26.1054 53.4042 26.3599 53.1496 26.6739 53.1496C26.988 53.1496 27.2425 53.4042 27.2425 53.7182ZM25.5364 55.4238C25.8504 55.4238 26.105 55.1692 26.105 54.8552C26.105 54.5412 25.8504 54.2866 25.5364 54.2866C25.2224 54.2866 24.9678 54.5412 24.9678 54.8552C24.9678 55.1692 25.2224 55.4238 25.5364 55.4238ZM28.9479 54.2868C29.2619 54.2868 29.5165 54.0322 29.5165 53.7182C29.5165 53.4042 29.2619 53.1496 28.9479 53.1496C28.6339 53.1496 28.3794 53.4042 28.3794 53.7182C28.3794 54.0322 28.6339 54.2868 28.9479 54.2868ZM28.3795 54.8552C28.3795 55.1692 28.125 55.4238 27.811 55.4238C27.497 55.4238 27.2424 55.1692 27.2424 54.8552C27.2424 54.5412 27.497 54.2866 27.811 54.2866C28.125 54.2866 28.3795 54.5412 28.3795 54.8552ZM26.6739 56.5608C26.988 56.5608 27.2425 56.3062 27.2425 55.9922C27.2425 55.6782 26.988 55.4236 26.6739 55.4236C26.3599 55.4236 26.1054 55.6782 26.1054 55.9922C26.1054 56.3062 26.3599 56.5608 26.6739 56.5608ZM29.5165 55.9922C29.5165 56.3062 29.2619 56.5608 28.9479 56.5608C28.6339 56.5608 28.3794 56.3062 28.3794 55.9922C28.3794 55.6782 28.6339 55.4236 28.9479 55.4236C29.2619 55.4236 29.5165 55.6782 29.5165 55.9922Z" fill="white"/>
<rect x="1" y="1" width="77" height="77" rx="11" stroke="white" stroke-width="2"/>
</svg>
