<svg width="79" height="79" viewBox="0 0 79 79" fill="none" xmlns="http://www.w3.org/2000/svg">
<mask id="path-1-inside-1_72_2" fill="white">
<path fill-rule="evenodd" clip-rule="evenodd" d="M40.1561 11.3834C40.137 11.3834 40.1196 11.3942 40.1112 11.4113L26.4931 39.1131C26.4767 39.1464 26.5009 39.1852 26.5379 39.1852H35.3962L21.5551 68.8923C21.3192 69.3986 21.9656 69.8512 22.3616 69.457L59.1147 32.8751C59.4323 32.559 59.2056 32.0174 58.7573 32.0215L48.1555 32.1169L58.3125 11.4554C58.3289 11.4222 58.3047 11.3834 58.2677 11.3834H40.1561Z"/>
</mask>
<path d="M40.1112 11.4113L38.3164 10.5289L38.3163 10.529L40.1112 11.4113ZM26.4931 39.1131L28.2879 39.9955L28.2879 39.9955L26.4931 39.1131ZM35.3962 39.1852L37.2091 40.0299L38.5345 37.1852H35.3962V39.1852ZM21.5551 68.8923L23.368 69.737L23.368 69.737L21.5551 68.8923ZM22.3616 69.457L23.7725 70.8745L23.7725 70.8745L22.3616 69.457ZM59.1147 32.8751L57.7038 31.4576L57.7038 31.4576L59.1147 32.8751ZM58.7573 32.0215L58.7753 34.0214L58.7753 34.0214L58.7573 32.0215ZM48.1555 32.1169L46.3606 31.2345L44.9293 34.146L48.1734 34.1168L48.1555 32.1169ZM58.3125 11.4554L60.1074 12.3378L60.1074 12.3377L58.3125 11.4554ZM41.906 12.2937C41.5781 12.9607 40.8995 13.3834 40.1561 13.3834V9.38336C39.3745 9.38336 38.6611 9.8277 38.3164 10.5289L41.906 12.2937ZM28.2879 39.9955L41.906 12.2936L38.3163 10.529L24.6982 38.2308L28.2879 39.9955ZM26.5379 37.1852C27.9818 37.1852 28.9249 38.6997 28.2879 39.9955L24.6982 38.2308C24.0285 39.593 25.02 41.1852 26.5379 41.1852V37.1852ZM35.3962 37.1852H26.5379V41.1852H35.3962V37.1852ZM23.368 69.737L37.2091 40.0299L33.5833 38.3405L19.7422 68.0477L23.368 69.737ZM20.9507 68.0395C22.1269 66.8687 24.0827 68.203 23.368 69.737L19.7422 68.0477C18.5557 70.5942 21.8042 72.8336 23.7725 70.8745L20.9507 68.0395ZM57.7038 31.4576L20.9507 68.0395L23.7725 70.8745L60.5256 34.2927L57.7038 31.4576ZM58.7753 34.0214C57.4335 34.0335 56.7489 32.4081 57.7038 31.4576L60.5256 34.2927C62.1157 32.71 60.9777 30.0014 58.7393 30.0215L58.7753 34.0214ZM48.1734 34.1168L58.7753 34.0214L58.7394 30.0215L48.1375 30.1169L48.1734 34.1168ZM56.5177 10.5731L46.3606 31.2345L49.9503 32.9992L60.1074 12.3378L56.5177 10.5731ZM58.2677 13.3834C56.8237 13.3834 55.8808 11.8688 56.5177 10.5732L60.1074 12.3377C60.7769 10.9756 59.7857 9.38336 58.2677 9.38336V13.3834ZM40.1561 13.3834H58.2677V9.38336H40.1561V13.3834Z" fill="#6CC852" mask="url(#path-1-inside-1_72_2)"/>
<rect x="1" y="1.02022" width="77" height="76.9117" rx="11" stroke="#6CC852" stroke-width="2"/>
</svg>
