<svg width="79" height="79" viewBox="0 0 79 79" fill="none" xmlns="http://www.w3.org/2000/svg">
<rect x="1" y="1" width="77" height="77" rx="11" stroke="white" stroke-width="2"/>
<rect x="10" y="20.136" width="58.25" height="38" rx="2" stroke="white" stroke-width="2"/>
<path d="M24.887 49H32.5V48.31L29.004 48.011H28.337L24.887 48.31V49ZM27.44 49H29.947C29.878 46.424 29.878 43.802 29.878 41.203V40.007C29.878 37.362 29.878 34.74 29.947 32.187H27.44C27.509 34.763 27.509 37.385 27.509 40.007V41.203C27.509 43.848 27.509 46.447 27.44 49ZM21.506 36.672H22.541L23.507 32.187L22.357 33.015H35.03L33.903 32.187L34.846 36.672H35.904L35.72 32.187H21.667L21.506 36.672ZM45.6542 49.138H46.9192L52.6692 32.187H51.5882L46.8962 46.746L46.7812 47.091H47.1952L42.2502 32.187H39.6972L45.6542 49.138ZM38.1332 32.9L41.2612 33.153H41.8132L45.1252 32.877V32.187H38.1332V32.9ZM48.7592 32.877L51.5422 33.153H51.9332L54.3942 32.854V32.187H48.7592V32.877Z" fill="white"/>
<path d="M40.1798 57.136L42.6407 61.636V61.636C41.0095 61.3874 39.3501 61.3874 37.7189 61.636V61.636L40.1798 57.136Z" fill="white"/>
<ellipse cx="40.1796" cy="63.886" rx="17.9297" ry="1.5" fill="#D9D9D9"/>
<path d="M52.0669 11.6543C51.2587 10.4231 49.647 10.1394 48.467 11.0207C47.2871 11.902 46.9857 13.6146 47.7939 14.8457C48.6021 16.0769 50.2138 16.3606 51.3938 15.4793C52.5738 14.598 52.8751 12.8854 52.0669 11.6543ZM49.656 12.832L40.2699 19.8424L40.8186 20.6784L50.2048 13.668L49.656 12.832Z" fill="white"/>
<path d="M29.2542 12.0402C30.0624 10.8091 31.6741 10.5254 32.8541 11.4067C34.034 12.288 34.3354 14.0005 33.5272 15.2317C32.719 16.4629 31.1073 16.7466 29.9273 15.8652C28.7473 14.9839 28.446 13.2714 29.2542 12.0402ZM31.6651 13.218L41.0512 20.2284L40.5025 21.0644L31.1163 14.054L31.6651 13.218Z" fill="white"/>
</svg>
