<svg width="50" height="45" viewBox="0 0 50 45" fill="none" xmlns="http://www.w3.org/2000/svg">
<path d="M47.5 23.05C47.5 9.325 36.85 0 25 0C13.275 0 2.5 9.125 2.5 23.2C1 24.05 0 25.65 0 27.5V32.5C0 35.25 2.25 37.5 5 37.5H7.5V22.25C7.5 12.575 15.325 4.75 25 4.75C34.675 4.75 42.5 12.575 42.5 22.25V40H22.5V45H42.5C45.25 45 47.5 42.75 47.5 40V36.95C48.975 36.175 50 34.65 50 32.85V27.1C50 25.35 48.975 23.825 47.5 23.05Z" fill="#6CC852"/>
<path d="M17.5 27.5C18.8807 27.5 20 26.3807 20 25C20 23.6193 18.8807 22.5 17.5 22.5C16.1193 22.5 15 23.6193 15 25C15 26.3807 16.1193 27.5 17.5 27.5Z" fill="#6CC852"/>
<path d="M32.5 27.5C33.8807 27.5 35 26.3807 35 25C35 23.6193 33.8807 22.5 32.5 22.5C31.1193 22.5 30 23.6193 30 25C30 26.3807 31.1193 27.5 32.5 27.5Z" fill="#6CC852"/>
<path d="M40 20.075C39.4039 16.5603 37.5835 13.3699 34.8611 11.0685C32.1387 8.76699 28.6899 7.50293 25.125 7.5C17.55 7.5 9.40001 13.775 10.05 23.625C13.1329 22.3635 15.8556 20.3587 17.9756 17.7895C20.0956 15.2202 21.5468 12.1663 22.2 8.9C25.475 15.475 32.2 20 40 20.075Z" fill="#6CC852"/>
</svg>
