<svg width="110" height="110" viewBox="0 0 110 110" fill="none" xmlns="http://www.w3.org/2000/svg">
<rect x="1" y="1" width="108" height="108" rx="19" stroke="#6CC852" stroke-width="2"/>
<path d="M65.324 14.3622C65.1933 14.162 65.0156 13.9966 64.8062 13.8805C64.5969 13.7643 64.3623 13.7008 64.1229 13.6955H47.5623C47.1996 13.7015 46.8519 13.841 46.5862 14.0873C46.3205 14.3335 46.1556 14.6691 46.1231 15.0294L44.1053 36.613C44.0865 36.8133 44.1096 37.0153 44.1732 37.2062C44.2367 37.3971 44.3393 37.5728 44.4744 37.7222C44.6097 37.8715 44.7747 37.9912 44.9589 38.0734C45.1432 38.1557 45.3426 38.1988 45.5444 38.2H51.5273L50.638 53.3712C50.619 53.6922 50.7081 54.0104 50.8912 54.2752C51.0744 54.5399 51.341 54.736 51.6487 54.8322C51.9564 54.9283 52.2875 54.9191 52.5893 54.806C52.8912 54.6928 53.1464 54.4823 53.3145 54.2079L69.8369 27.24C70.0891 27.2401 70.337 27.1743 70.5558 27.0493C70.7747 26.9243 70.9569 26.7443 71.0844 26.5273C71.2119 26.3103 71.2803 26.0638 71.2827 25.8123C71.2851 25.5608 71.2215 25.313 71.0981 25.0937C70.9748 24.8743 70.796 24.6909 70.5796 24.5617C70.3632 24.4326 70.1167 24.3621 69.8645 24.3574C69.6123 24.3526 69.3633 24.4138 69.1422 24.5347C68.921 24.6557 68.7355 24.8322 68.6039 25.0468H61.6061L65.4588 15.7268C65.5495 15.5056 65.5846 15.2656 65.5611 15.0277C65.5376 14.7899 65.4562 14.5615 65.324 14.3622ZM58.1094 25.9117C58.0184 26.1322 57.9828 26.3716 58.0059 26.609C58.029 26.8464 58.1099 27.0745 58.2417 27.2735C58.3734 27.4725 58.552 27.6364 58.7619 27.7507C58.9717 27.8651 59.2064 27.9266 59.4455 27.9297H66.0263L53.8607 47.7856L54.5021 36.8445C54.5135 36.6484 54.4846 36.4521 54.4173 36.2675C54.35 36.083 54.2456 35.914 54.1106 35.7711C53.9755 35.6281 53.8127 35.5141 53.632 35.436C53.4512 35.358 53.2565 35.3175 53.0595 35.3171H47.1311L48.8794 16.5784H61.9626L58.1094 25.9117ZM86.5105 53.9483L75.9816 61.7995C74.9066 60.4939 73.5034 59.4962 71.9154 58.9082C70.3274 58.3202 68.6113 58.163 66.9424 58.4526L56.1799 60.3297C54.465 60.6267 52.7051 60.5353 51.0304 60.0623L49.8271 59.7196C46.7803 58.8469 43.5663 58.7267 40.4625 59.3692C37.3587 60.0117 34.4582 61.3977 32.0115 63.4076L31.5583 60.8232C31.5256 60.6368 31.4564 60.4587 31.3547 60.2989C31.2529 60.1392 31.1206 60.001 30.9653 59.8922C30.81 59.7835 30.6347 59.7063 30.4495 59.6651C30.2642 59.6239 30.0727 59.6194 29.8858 59.6521L18.0847 61.7121C17.8977 61.7447 17.719 61.8137 17.5588 61.9152C17.3986 62.0167 17.26 62.1486 17.151 62.3035C17.0419 62.4584 16.9645 62.6332 16.9232 62.818C16.8819 63.0027 16.8775 63.1937 16.9103 63.3802L21.44 89.2058C21.4722 89.3924 21.5411 89.5709 21.6427 89.7309C21.7443 89.891 21.8767 90.0294 22.0321 90.1382C22.1876 90.2471 22.3631 90.3242 22.5485 90.3652C22.734 90.4061 22.9257 90.4101 23.1127 90.3769L34.9143 88.3189C35.2919 88.2529 35.6278 88.04 35.848 87.7271C36.0682 87.4142 36.1548 87.0268 36.0888 86.6503L35.8656 85.3777L38.612 83.1072C39.6908 82.213 41.0757 81.7716 42.4746 81.876L61.7201 83.2789C61.7519 83.2809 61.7843 83.2825 61.8168 83.2825H61.9346C66.1814 83.2739 70.3163 81.924 73.7462 79.4267C73.801 79.386 73.8531 79.3419 73.9021 79.2944L96.8254 56.9106C97.0886 56.6536 97.2434 56.3061 97.2584 55.9391C97.2733 55.572 97.1472 55.2131 96.9058 54.9357C94.2606 51.8915 89.6836 51.4566 86.5103 53.9483H86.5105ZM24.0389 87.2892L20.0068 64.3036L28.9596 62.7404L32.9919 85.7268L24.0389 87.2892ZM71.9543 77.1422C69.0348 79.2354 65.53 80.3616 61.9343 80.3622H61.8799L42.6846 78.9813C40.5392 78.8242 38.4166 79.5049 36.7651 80.8795L35.2914 82.1029L32.6001 66.7641C34.704 64.6483 37.3397 63.1356 40.2312 62.3843C43.1226 61.6331 46.1635 61.671 49.0352 62.4941L50.2385 62.8362C52.3323 63.4275 54.5326 63.542 56.6768 63.1712L67.4393 61.2941C70.523 60.7598 73.5657 62.4301 74.7632 65.3137L58.6516 68.124C58.1392 68.2092 57.7115 68.5611 57.5314 69.0474C57.3512 69.5337 57.4476 70.0786 57.782 70.4748C57.9464 70.6694 58.1596 70.8172 58.3998 70.9031C58.64 70.989 58.8988 71.01 59.1498 70.964L76.8403 67.8777C77.0273 67.845 77.206 67.776 77.3662 67.6745C77.5264 67.5731 77.665 67.4411 77.774 67.2862C77.8831 67.1313 77.9605 66.9565 78.0018 66.7717C78.0431 66.587 78.0475 66.396 78.0148 66.2095C77.8997 65.5526 77.7157 64.9096 77.4659 64.291L88.2544 56.2461L88.2842 56.2229C89.0437 55.622 89.9715 55.2712 90.9396 55.2187C91.9076 55.1663 92.8681 55.4148 93.6884 55.9301L71.9543 77.1422Z" fill="#6CC852"/>
</svg>
