<svg width="51" height="51" viewBox="0 0 51 51" fill="none" xmlns="http://www.w3.org/2000/svg">
<path d="M25.5131 15.741C25.4264 15.6615 25.311 15.6172 25.1909 15.6172C25.0709 15.6172 24.9555 15.6615 24.8687 15.741L14.1426 25.5552C14.097 25.5969 14.0608 25.6471 14.036 25.7026C14.0113 25.7582 13.9986 25.8179 13.9987 25.8783L13.9969 35.0893C13.9969 35.5629 14.1933 36.0171 14.543 36.3519C14.8926 36.6868 15.3669 36.875 15.8613 36.875H21.4604C21.7076 36.875 21.9447 36.7809 22.1195 36.6135C22.2943 36.446 22.3926 36.2189 22.3926 35.9821V28.3928C22.3926 28.2744 22.4417 28.1609 22.5291 28.0771C22.6165 27.9934 22.735 27.9464 22.8587 27.9464H27.5197C27.6433 27.9464 27.7618 27.9934 27.8493 28.0771C27.9367 28.1609 27.9858 28.2744 27.9858 28.3928V35.9821C27.9858 36.2189 28.084 36.446 28.2588 36.6135C28.4336 36.7809 28.6707 36.875 28.918 36.875H34.5147C35.0092 36.875 35.4834 36.6868 35.833 36.3519C36.1827 36.0171 36.3791 35.5629 36.3791 35.0893V25.8783C36.3792 25.8179 36.3664 25.7582 36.3417 25.7026C36.317 25.6471 36.2807 25.5969 36.2352 25.5552L25.5131 15.741Z" fill="white"/>
<path d="M39.0867 23.7137L34.6917 19.7204V13.6607C34.6917 13.4239 34.5927 13.1968 34.4163 13.0294C34.24 12.8619 34.0009 12.7679 33.7516 12.7679H30.9313C30.6819 12.7679 30.4428 12.8619 30.2665 13.0294C30.0902 13.1968 29.9911 13.4239 29.9911 13.6607V15.4464L26.5879 12.356C26.2695 12.0502 25.7959 11.875 25.2841 11.875C24.7741 11.875 24.3017 12.0502 23.9832 12.3566L11.4856 23.7126C11.1202 24.0475 11.0743 24.5982 11.4069 24.961C11.4904 25.0525 11.5927 25.127 11.7074 25.1798C11.8222 25.2326 11.9471 25.2627 12.0745 25.2683C12.2019 25.2738 12.3292 25.2547 12.4486 25.212C12.5679 25.1693 12.6769 25.104 12.7689 25.0201L24.961 13.9554C25.0484 13.8759 25.1648 13.8315 25.2859 13.8315C25.4069 13.8315 25.5233 13.8759 25.6108 13.9554L37.8041 25.0201C37.9837 25.1837 38.2242 25.273 38.4731 25.2684C38.7219 25.2638 38.9586 25.1657 39.1314 24.9956C39.4921 24.6406 39.4622 24.0547 39.0867 23.7137Z" fill="white"/>
<rect x="1" y="1" width="49" height="49" rx="11" stroke="white" stroke-width="2"/>
</svg>
