<svg width="81" height="81" viewBox="0 0 81 81" fill="none" xmlns="http://www.w3.org/2000/svg">
<rect x="1.5" y="1.5" width="78" height="78" rx="11.5" stroke="white" stroke-width="3"/>
<path d="M34 36C40.0775 36 45 31.0775 45 25C45 18.9225 40.0775 14 34 14C27.9225 14 23 18.9225 23 25C23 31.0775 27.9225 36 34 36ZM34 19.5C35.4587 19.5 36.8576 20.0795 37.8891 21.1109C38.9205 22.1424 39.5 23.5413 39.5 25C39.5 26.4587 38.9205 27.8576 37.8891 28.8891C36.8576 29.9205 35.4587 30.5 34 30.5C30.9475 30.5 28.5 28.0525 28.5 25C28.5 21.9475 30.975 19.5 34 19.5ZM39.5 58H12V49.75C12 42.4075 26.6575 38.75 34 38.75C36.75 38.75 40.545 39.2725 44.2025 40.29C43.3775 41.83 42.8825 43.535 42.8275 45.3225C40.1325 44.525 37.0525 43.975 34 43.975C25.8325 43.975 17.225 47.99 17.225 49.75V52.775H39.5V58ZM63.7 49.75V45.625C63.7 41.775 59.85 38.75 56 38.75C52.15 38.75 48.3 41.775 48.3 45.625V49.75C46.65 49.75 45 51.4 45 53.05V62.675C45 64.6 46.65 66.25 48.3 66.25H63.425C65.35 66.25 67 64.6 67 62.95V53.325C67 51.4 65.35 49.75 63.7 49.75ZM60.125 49.75H51.875V45.625C51.875 43.425 53.8 42.05 56 42.05C58.2 42.05 60.125 43.425 60.125 45.625V49.75Z" fill="white"/>
</svg>
