<svg width="81" height="81" viewBox="0 0 81 81" fill="none" xmlns="http://www.w3.org/2000/svg">
<rect x="1.5" y="1.52022" width="78" height="77.9117" rx="11.5" stroke="white" stroke-width="3"/>
<path d="M39.95 58.82H34.55C33.32 58.82 32.64 58.24 32.62 57.02C32.5216 53.8751 31.2603 50.8785 29.08 48.61C27.4407 46.8466 26.1844 44.7628 25.39 42.49C24.7586 40.4997 24.5416 38.4011 24.7523 36.3237C24.963 34.2462 25.5969 32.234 26.6151 30.411C27.6333 28.5879 29.0141 26.9928 30.6723 25.7238C32.3306 24.4549 34.2312 23.539 36.257 23.0328C38.2828 22.5265 40.3908 22.4405 42.4511 22.7801C44.5114 23.1197 46.4803 23.8778 48.2364 25.0075C49.9925 26.1372 51.4986 27.6146 52.6618 29.3486C53.8251 31.0827 54.6208 33.0366 55 35.09C55.4085 37.2732 55.327 39.5198 54.7615 41.6677C54.196 43.8155 53.1606 45.811 51.73 47.51C50.84 48.62 49.92 49.73 49.11 50.9C47.9707 52.5507 47.3508 54.5044 47.33 56.51C47.33 58.35 46.46 58.88 44.91 58.82C43.36 58.76 41.6 58.82 39.95 58.82ZM35.37 56H37.8C38.2 56 38.3 55.89 38.29 55.5C38.3073 51.4785 37.9727 47.4632 37.29 43.5C37.0269 42.2816 36.693 41.0795 36.29 39.9C36.2453 39.7033 36.1482 39.5224 36.0092 39.3763C35.8701 39.2302 35.6942 39.1244 35.5 39.07C35.4305 39.0287 35.3728 38.9702 35.3325 38.9002C35.2922 38.8301 35.2707 38.7508 35.27 38.67C35.27 38.53 35.55 38.34 35.66 38.36C35.9592 38.4116 36.239 38.5429 36.47 38.74C36.7497 39.0203 36.9587 39.3631 37.08 39.74C37.4844 40.9361 37.8183 42.1548 38.08 43.39C38.7671 47.3526 39.1017 51.3683 39.08 55.39V55.96H41.08V55.63C41.16 53.48 41.21 51.33 41.34 49.18C41.4558 46.5732 41.8446 43.9857 42.5 41.46C42.7598 40.6088 43.0945 39.7822 43.5 38.99C43.5846 38.7998 43.7263 38.6408 43.9056 38.535C44.0849 38.4292 44.2926 38.3821 44.5 38.4C44.5866 38.4159 44.6682 38.4523 44.7378 38.5063C44.8074 38.5602 44.863 38.6301 44.9 38.71C44.9021 38.7916 44.8829 38.8722 44.8443 38.9441C44.8057 39.016 44.7491 39.0766 44.68 39.12C44.4733 39.183 44.2868 39.2994 44.1393 39.4573C43.9918 39.6153 43.8886 39.8094 43.84 40.02C43.5076 40.8994 43.2271 41.7977 43 42.71C42.4539 45.2479 42.1194 47.8268 42 50.42V55.6C42 55.78 42 56.01 42.26 56H44.5C44.5 55.69 44.57 55.41 44.58 55.14C44.6389 52.9569 45.4038 50.8517 46.76 49.14C47.5533 48.1133 48.3733 47.1133 49.22 46.14C50.4579 44.7646 51.3703 43.1281 51.8897 41.352C52.409 39.5759 52.5219 37.7057 52.22 35.88C51.9364 33.9821 51.2187 32.1752 50.1226 30.6001C49.0265 29.025 47.5817 27.724 45.9006 26.7986C44.2195 25.8732 42.3476 25.3482 40.4304 25.2645C38.5133 25.1809 36.6027 25.5409 34.8474 26.3164C33.0921 27.0919 31.5395 28.2621 30.3104 29.7358C29.0813 31.2095 28.2089 32.9469 27.7611 34.8129C27.3134 36.6789 27.3023 38.6231 27.7288 40.4941C28.1552 42.3651 29.0078 44.1124 30.22 45.6C31.22 46.85 32.28 48.07 33.22 49.35C34.2514 50.6548 34.9143 52.2122 35.14 53.86C35.25 54.52 35.3 55.23 35.37 56ZM45.79 62.76C46.79 64.02 46.37 65.07 44.79 65.33C45.25 65.76 45.16 66.33 45.15 66.83C45.14 67.33 44.78 67.83 44.15 67.83C43.4 67.75 43.01 67.99 42.9 68.74C42.8437 68.9535 42.7525 69.1563 42.63 69.34C42.5277 69.5614 42.3593 69.7456 42.148 69.8674C41.9367 69.9892 41.6928 70.0425 41.45 70.02H38.71C38.4891 70.0416 38.2669 69.9947 38.0737 69.8855C37.8805 69.7764 37.7255 69.6103 37.63 69.41C37.4292 69.0182 37.2619 68.6101 37.13 68.19C37.05 67.94 36.95 67.84 36.68 67.84C35.23 67.84 35 67.58 35.11 66.15C35.1714 65.8622 35.2688 65.5834 35.4 65.32C34.8 65.32 34.17 65.25 34.02 64.49C33.9177 64.1923 33.9078 63.8706 33.9917 63.5672C34.0756 63.2638 34.2493 62.9929 34.49 62.79L34.29 62.74C33.47 62.61 33.18 62.16 33.29 61.15C33.3036 61.0021 33.3468 60.8584 33.417 60.7275C33.4871 60.5965 33.5829 60.481 33.6985 60.3878C33.8142 60.2945 33.9473 60.2254 34.0902 60.1846C34.233 60.1437 34.3825 60.132 34.53 60.15H45.53C46.46 60.15 46.93 60.46 47 61.15C47.09 62.15 46.8 62.56 45.79 62.76ZM62.94 36.1H66.17C66.3621 36.092 66.5538 36.1222 66.7341 36.189C66.9144 36.2558 67.0796 36.3577 67.2201 36.4889C67.3606 36.6202 67.4737 36.778 67.5526 36.9533C67.6316 37.1286 67.6749 37.3178 67.68 37.51C67.6883 37.7053 67.6564 37.9003 67.5863 38.0828C67.5162 38.2653 67.4095 38.4315 67.2727 38.5712C67.1358 38.7108 66.9718 38.8209 66.7908 38.8947C66.6097 38.9684 66.4155 39.0043 66.22 39H59.59C59.2081 39 58.8418 38.8483 58.5718 38.5782C58.3017 38.3082 58.15 37.9419 58.15 37.56C58.15 37.1781 58.3017 36.8118 58.5718 36.5418C58.8418 36.2717 59.2081 36.12 59.59 36.12C60.73 36.09 61.83 36.1 62.94 36.1ZM38.49 15.2V11.97C38.4805 11.7516 38.5212 11.5339 38.609 11.3337C38.6968 11.1335 38.8293 10.956 38.9964 10.8151C39.1634 10.6741 39.3606 10.5732 39.5727 10.5204C39.7849 10.4675 40.0063 10.4639 40.22 10.51C40.5431 10.5686 40.8353 10.739 41.0455 10.9912C41.2557 11.2435 41.3706 11.5616 41.37 11.89V18.56C41.37 18.9419 41.2183 19.3082 40.9482 19.5782C40.6782 19.8483 40.3119 20 39.93 20C39.5481 20 39.1818 19.8483 38.9118 19.5782C38.6417 19.3082 38.49 18.9419 38.49 18.56V15.2ZM58.6 32.31C58.2471 32.3217 57.902 32.2043 57.6295 31.9797C57.357 31.755 57.1758 31.4387 57.12 31.09C57.0595 30.7601 57.1204 30.4196 57.2913 30.131C57.4622 29.8425 57.7317 29.6255 58.05 29.52C59.46 29.01 60.88 28.52 62.3 28.03L64.22 27.37C64.4037 27.292 64.6016 27.2528 64.8011 27.2548C65.0007 27.2568 65.1977 27.3 65.3798 27.3817C65.5619 27.4634 65.7252 27.5818 65.8595 27.7295C65.9937 27.8771 66.096 28.0509 66.16 28.24C66.2241 28.4269 66.2488 28.6251 66.2326 28.822C66.2163 29.0189 66.1594 29.2103 66.0654 29.3841C65.9714 29.558 65.8425 29.7104 65.6866 29.8319C65.5308 29.9534 65.3515 30.0413 65.16 30.09L59.1 32.2C58.9361 32.2481 58.769 32.2849 58.6 32.31ZM55.94 25.87C55.6167 26.0094 55.2538 26.0263 54.9189 25.9178C54.584 25.8092 54.3 25.5825 54.12 25.28C53.9445 24.9943 53.8781 24.6547 53.9333 24.3239C53.9884 23.9931 54.1613 23.6934 54.42 23.48C55.55 22.48 56.7 21.48 57.84 20.54L59.39 19.22C59.5324 19.0808 59.7019 18.9725 59.8881 18.9017C60.0742 18.8309 60.2729 18.7993 60.4718 18.8086C60.6707 18.818 60.8655 18.8683 61.0441 18.9562C61.2227 19.0442 61.3813 19.168 61.51 19.32C61.6375 19.4694 61.7329 19.6435 61.7902 19.8315C61.8475 20.0194 61.8654 20.2171 61.8429 20.4123C61.8204 20.6074 61.7579 20.7958 61.6593 20.9658C61.5607 21.1357 61.4282 21.2835 61.27 21.4C59.6433 22.8 58.01 24.1967 56.37 25.59C56.2333 25.6931 56.0896 25.7867 55.94 25.87ZM48.73 21.59C48.4817 21.5941 48.2366 21.533 48.0193 21.4128C47.8019 21.2926 47.6199 21.1175 47.4914 20.905C47.3629 20.6925 47.2923 20.45 47.2868 20.2017C47.2813 19.9534 47.341 19.708 47.46 19.49C48.16 18.11 48.89 16.75 49.61 15.38C49.91 14.81 50.2 14.23 50.51 13.66C50.598 13.4926 50.7181 13.3441 50.8635 13.2231C51.0088 13.1021 51.1766 13.0109 51.3572 12.9547C51.5378 12.8985 51.7277 12.8784 51.9161 12.8957C52.1044 12.9129 52.2876 12.967 52.455 13.055C52.6224 13.143 52.7709 13.2631 52.8919 13.4085C53.0129 13.5538 53.1041 13.7216 53.1603 13.9022C53.2165 14.0828 53.2366 14.2727 53.2193 14.4611C53.2021 14.6494 53.148 14.8326 53.06 15C52.06 17 51.06 18.89 50.06 20.84C49.9378 21.0829 49.746 21.2839 49.5092 21.4175C49.2723 21.551 49.0011 21.6111 48.73 21.59ZM54.89 48.87C55.1884 48.9764 55.4764 49.1103 55.75 49.27C57.27 50.34 58.75 51.42 60.27 52.51C60.4337 52.6151 60.5743 52.7522 60.6836 52.9131C60.7928 53.074 60.8683 53.2554 60.9055 53.4462C60.9427 53.6371 60.9409 53.8336 60.9001 54.0237C60.8594 54.2139 60.7805 54.3938 60.6683 54.5527C60.5561 54.7115 60.4129 54.846 60.2473 54.948C60.0817 55.0499 59.8972 55.1173 59.7048 55.146C59.5125 55.1748 59.3163 55.1642 59.1281 55.1151C58.94 55.0659 58.7637 54.9791 58.61 54.86C57.0767 53.7733 55.54 52.6733 54 51.56C53.7436 51.3828 53.552 51.1267 53.4545 50.8307C53.3571 50.5347 53.359 50.2149 53.46 49.92C53.5704 49.6249 53.7645 49.3684 54.0185 49.1819C54.2725 48.9954 54.5754 48.887 54.89 48.87ZM58.68 42.81C58.8295 42.8343 58.9767 42.8711 59.12 42.92L64.36 45C64.6605 45.1121 64.9145 45.3219 65.0814 45.5958C65.2482 45.8696 65.3182 46.1916 65.28 46.51C65.2508 46.8397 65.1065 47.1485 64.8725 47.3825C64.6385 47.6165 64.3296 47.7608 64 47.79C63.739 47.8192 63.4749 47.7849 63.23 47.69C61.49 47.0233 59.7567 46.33 58.03 45.61C57.7147 45.4909 57.4521 45.2636 57.289 44.9686C57.126 44.6737 57.0732 44.3303 57.14 44C57.2034 43.646 57.3961 43.3282 57.6807 43.1083C57.9653 42.8883 58.3214 42.782 58.68 42.81ZM17.06 36.1H13.84C13.6479 36.092 13.4562 36.1222 13.2759 36.189C13.0956 36.2558 12.9304 36.3577 12.7899 36.4889C12.6494 36.6202 12.5363 36.778 12.4574 36.9533C12.3784 37.1286 12.3351 37.3178 12.33 37.51C12.3218 37.7045 12.3534 37.8986 12.4229 38.0804C12.4923 38.2622 12.5982 38.428 12.7339 38.5675C12.8697 38.707 13.0325 38.8173 13.2123 38.8917C13.3922 38.966 13.5854 39.0029 13.78 39H20.41C20.7919 39 21.1582 38.8483 21.4282 38.5782C21.6983 38.3082 21.85 37.9419 21.85 37.56C21.85 37.1781 21.6983 36.8118 21.4282 36.5418C21.1582 36.2717 20.7919 36.12 20.41 36.12C19.27 36.09 18.17 36.1 17.06 36.1ZM21.4 32.31C21.7529 32.3217 22.098 32.2043 22.3705 31.9797C22.643 31.755 22.8242 31.4387 22.88 31.09C22.9405 30.7601 22.8796 30.4196 22.7087 30.131C22.5378 29.8425 22.2683 29.6255 21.95 29.52C20.54 29.01 19.12 28.52 17.7 28.03L15.78 27.37C15.5963 27.292 15.3984 27.2528 15.1989 27.2548C14.9993 27.2568 14.8023 27.3 14.6202 27.3817C14.4381 27.4634 14.2748 27.5818 14.1405 27.7295C14.0063 27.8771 13.904 28.0509 13.84 28.24C13.7759 28.4269 13.7512 28.6251 13.7674 28.822C13.7837 29.0189 13.8406 29.2103 13.9346 29.3841C14.0286 29.558 14.1575 29.7104 14.3134 29.8319C14.4692 29.9534 14.6485 30.0413 14.84 30.09L20.9 32.2C21.0639 32.2481 21.231 32.2849 21.4 32.31ZM24.06 25.87C24.3833 26.0094 24.7462 26.0263 25.0811 25.9178C25.416 25.8092 25.7 25.5825 25.88 25.28C26.0556 24.9943 26.1219 24.6547 26.0667 24.3239C26.0116 23.9931 25.8387 23.6934 25.58 23.48C24.45 22.48 23.3 21.48 22.16 20.54L20.62 19.22C20.4776 19.0808 20.3081 18.9725 20.1219 18.9017C19.9358 18.8309 19.7371 18.7993 19.5382 18.8086C19.3393 18.818 19.1445 18.8683 18.9659 18.9562C18.7873 19.0442 18.6287 19.168 18.5 19.32C18.3725 19.4694 18.2771 19.6435 18.2198 19.8315C18.1625 20.0194 18.1446 20.2171 18.1671 20.4123C18.1896 20.6074 18.2521 20.7958 18.3507 20.9658C18.4493 21.1357 18.5818 21.2835 18.74 21.4C20.3667 22.8 22 24.1967 23.64 25.59C23.7735 25.6928 23.9138 25.7863 24.06 25.87ZM31.27 21.59C31.5183 21.5941 31.7634 21.533 31.9807 21.4128C32.1981 21.2926 32.3801 21.1175 32.5086 20.905C32.6371 20.6925 32.7077 20.45 32.7132 20.2017C32.7187 19.9534 32.659 19.708 32.54 19.49C31.84 18.11 31.11 16.75 30.39 15.38C30.09 14.81 29.8 14.23 29.49 13.66C29.402 13.4926 29.2819 13.3441 29.1366 13.2231C28.9912 13.1021 28.8234 13.0109 28.6428 12.9547C28.4622 12.8985 28.2723 12.8784 28.0839 12.8957C27.8956 12.9129 27.7124 12.967 27.545 13.055C27.3776 13.143 27.2291 13.2631 27.1081 13.4085C26.9871 13.5538 26.8959 13.7216 26.8397 13.9022C26.7835 14.0828 26.7634 14.2727 26.7807 14.4611C26.7979 14.6494 26.852 14.8326 26.94 15C27.94 17 28.94 18.89 29.94 20.84C30.0622 21.0829 30.254 21.2839 30.4908 21.4175C30.7277 21.551 30.9989 21.6111 31.27 21.59ZM25.11 48.87C24.8116 48.9764 24.5236 49.1103 24.25 49.27C22.73 50.34 21.25 51.42 19.73 52.51C19.5663 52.6151 19.4257 52.7522 19.3164 52.9131C19.2072 53.074 19.1317 53.2554 19.0945 53.4462C19.0573 53.6371 19.0591 53.8336 19.0999 54.0237C19.1406 54.2139 19.2195 54.3938 19.3317 54.5527C19.4439 54.7115 19.5871 54.846 19.7527 54.948C19.9183 55.0499 20.1028 55.1173 20.2952 55.146C20.4875 55.1748 20.6837 55.1642 20.8719 55.1151C21.06 55.0659 21.2363 54.9791 21.39 54.86C22.93 53.7733 24.46 52.6767 25.98 51.57C26.2364 51.3928 26.428 51.1368 26.5255 50.8407C26.6229 50.5447 26.621 50.2249 26.52 49.93C26.4125 49.636 26.2222 49.3794 25.9719 49.1913C25.7217 49.0031 25.4223 48.8916 25.11 48.87ZM21.32 42.81C21.1705 42.8343 21.0233 42.8711 20.88 42.92L15.64 45C15.3396 45.1121 15.0855 45.3219 14.9186 45.5958C14.7518 45.8696 14.6818 46.1916 14.72 46.51C14.7492 46.8397 14.8935 47.1485 15.1275 47.3825C15.3615 47.6165 15.6704 47.7608 16 47.79C16.261 47.8192 16.5251 47.7849 16.77 47.69C18.51 47.0233 20.2433 46.33 21.97 45.61C22.2853 45.4909 22.5479 45.2636 22.711 44.9686C22.874 44.6737 22.9268 44.3303 22.86 44C22.7966 43.646 22.6039 43.3282 22.3193 43.1083C22.0347 42.8883 21.6786 42.782 21.32 42.81Z" fill="white"/>
<path d="M35.18 37.72L40.99 36.19L39.91 37.95L45.69 37.11L38.49 39.2L39.61 37.39L35.18 37.72Z" fill="white"/>
</svg>
