<svg width="39" height="50" viewBox="0 0 39 50" fill="none" xmlns="http://www.w3.org/2000/svg">
<path d="M30.6818 27.2727C26.3636 27.2727 22.7273 30.9318 22.7273 35.2273C22.7273 41.1591 30.6818 50 30.6818 50C30.6818 50 38.6364 41.1591 38.6364 35.2273C38.6364 30.9318 35 27.2727 30.6818 27.2727ZM30.6818 38.2045C29.0909 38.2045 27.9545 36.8409 27.9545 35.4773C27.9545 33.8864 29.3182 32.75 30.6818 32.75C32.0454 32.75 33.4091 34.0909 33.4091 35.4773C33.6364 36.8409 32.2727 38.2045 30.6818 38.2045ZM24.7954 50H4.54545C3.33992 50 2.18377 49.5211 1.33133 48.6687C0.478894 47.8162 0 46.6601 0 45.4545V4.54545C0 2.02273 2.02273 0 4.54545 0H27.2727C28.4782 0 29.6344 0.478895 30.4868 1.33133C31.3393 2.18377 31.8182 3.33992 31.8182 4.54545V22.7955C31.4545 22.7273 31.0682 22.7273 30.6818 22.7273C29.5454 22.7273 28.4091 22.9091 27.2727 23.2273V9.09091H4.54545V40.9091H19.4091C20.7727 44.3182 23 47.6591 24.7954 50Z" fill="#6CC852"/>
</svg>
