<svg width="81" height="81" viewBox="0 0 81 81" fill="none" xmlns="http://www.w3.org/2000/svg">
<rect x="1.5" y="1.5" width="78" height="78" rx="11.5" stroke="white" stroke-width="3"/>
<path d="M23.5769 64.5385H57.4231M36.2692 56.0769V64.5385M44.7308 56.0769V64.5385M16.1731 56.0769H64.8269C66.5785 56.0769 68 54.6554 68 52.9038V21.1731C68 19.4215 66.5785 18 64.8269 18H16.1731C14.4215 18 13 19.4215 13 21.1731V52.9038C13 54.6554 14.4215 56.0769 16.1731 56.0769Z" stroke="white" stroke-width="2" stroke-linecap="round" stroke-linejoin="round"/>
<path d="M31.368 45V31.514H26.088V29.6H38.826V31.514H33.546V45H31.368ZM45.4942 45L38.7182 29.6H41.0942L47.3202 43.812H45.9562L52.2262 29.6H54.4262L47.6722 45H45.4942Z" fill="white"/>
</svg>
