<svg width="81" height="81" viewBox="0 0 81 81" fill="none" xmlns="http://www.w3.org/2000/svg">
<rect x="1.5" y="1.5" width="78" height="78" rx="11.5" stroke="white" stroke-width="3"/>
<path d="M50.0967 43.4975C49.7879 43.5187 49.4992 43.6582 49.2909 43.8871C49.0825 44.1159 48.9705 44.4164 48.9784 44.7258C48.9757 45.0293 49.0906 45.322 49.2992 45.5425C49.5077 45.763 49.7935 45.8941 50.0967 45.9083V46.5133C49.7821 46.5322 49.4878 46.675 49.2782 46.9103C49.0686 47.1457 48.9608 47.4545 48.9784 47.7692C48.9827 48.0679 49.1008 48.3537 49.3086 48.5683C49.5164 48.7829 49.7983 48.9102 50.0967 48.9242V49.5108C49.9294 49.5156 49.7653 49.5576 49.6163 49.6337C49.4672 49.7098 49.337 49.8181 49.235 49.9508C49.1004 50.1249 49.0153 50.3321 48.9889 50.5505C48.9625 50.769 48.9957 50.9905 49.0849 51.1916C49.1742 51.3927 49.3163 51.5659 49.496 51.6928C49.6757 51.8197 49.8865 51.8956 50.1059 51.9125V52.8933C50.0926 52.9437 50.0637 52.9886 50.0234 53.0217C49.7484 53.3242 49.4642 53.6358 49.18 53.9383C49.1277 53.9879 49.0595 54.0171 48.9875 54.0208H30.6542C30.5965 54.0233 30.539 54.0122 30.4865 53.9883C30.4339 53.9644 30.3877 53.9284 30.3517 53.8833C30.04 53.535 29.71 53.1867 29.435 52.8383C29.3743 52.7697 29.3387 52.6824 29.3342 52.5908V43.4883V38.3733C29.3327 38.3189 29.3425 38.2647 29.363 38.2142C29.3835 38.1637 29.4143 38.118 29.4534 38.08C29.7192 37.805 29.985 37.5208 30.2325 37.2275C30.2742 37.176 30.3275 37.135 30.3881 37.1079C30.4486 37.0808 30.5146 37.0684 30.5809 37.0717H48.8225C48.8773 37.0677 48.9322 37.0763 48.9831 37.097C49.034 37.1177 49.0794 37.1498 49.1159 37.1908L50.0325 38.2083C50.0821 38.2643 50.1112 38.3354 50.115 38.41V43.4242C50.1109 43.4491 50.1048 43.4736 50.0967 43.4975ZM44.5967 46.5867C44.5858 45.6927 44.3106 44.8219 43.8056 44.0841C43.3007 43.3463 42.5886 42.7745 41.7592 42.4408C40.9298 42.107 40.0202 42.0262 39.1449 42.2086C38.2697 42.391 37.468 42.8283 36.841 43.4656C36.2139 44.1029 35.7895 44.9115 35.6213 45.7896C35.453 46.6676 35.5485 47.5759 35.8956 48.3998C36.2427 49.2237 36.8259 49.9264 37.5717 50.4194C38.3176 50.9124 39.1927 51.1735 40.0867 51.17C40.6817 51.164 41.2697 51.0406 41.8169 50.8068C42.3641 50.573 42.8598 50.2334 43.2754 49.8075C43.6911 49.3817 44.0185 48.8779 44.2389 48.3252C44.4594 47.7725 44.5685 47.1817 44.56 46.5867H44.5967ZM34.9167 36.1367H32.4509V35.22V32.69C32.4233 31.1488 32.9104 29.6425 33.835 28.4092C34.7165 27.242 35.9213 26.3592 37.2998 25.8703C38.6784 25.3815 40.1701 25.3081 41.59 25.6592C42.8908 25.9752 44.0747 26.6552 45.0033 27.6194C45.9318 28.5837 46.5666 29.7924 46.8334 31.1042C46.9466 31.5973 47.005 32.1015 47.0075 32.6075V36.1733H44.615V35.9808V32.7358C44.6376 31.5718 44.2258 30.4411 43.46 29.5642C42.6908 28.658 41.5996 28.0861 40.4167 27.9692C39.278 27.7946 38.1144 28.0318 37.135 28.6383C36.4479 29.0521 35.8813 29.639 35.4921 30.3404C35.1028 31.0417 34.9044 31.833 34.9167 32.635V36.1367Z" fill="white"/>
<path d="M38.5375 49.3642L38.8125 48.4475C39.0233 47.7875 39.225 47.1367 39.445 46.4767C39.445 46.3758 39.445 46.3208 39.3808 46.2567C39.1716 46.1216 39.012 45.9219 38.9263 45.688C38.8407 45.4541 38.8336 45.1987 38.9061 44.9604C38.9786 44.7221 39.1268 44.5139 39.3283 44.3673C39.5297 44.2208 39.7734 44.1439 40.0225 44.1483C40.2721 44.1541 40.5129 44.2412 40.7085 44.3964C40.904 44.5516 41.0435 44.7664 41.1057 45.0081C41.168 45.2499 41.1496 45.5053 41.0533 45.7357C40.9571 45.966 40.7883 46.1586 40.5725 46.2842L40.4992 46.33L41.4158 49.3183L38.5375 49.3642ZM30.1867 19.545C32.3244 18.5899 34.5972 17.9714 36.9242 17.7117L37.5658 17.6383L38.7392 13.055L37.4467 13.1467C33.9575 13.4059 30.5517 14.3399 27.4183 15.8967L26.2633 16.465L29.5908 19.8933L30.1867 19.545ZM20.9925 26.9333C22.3787 25.0448 24.0448 23.3787 25.9333 21.9925L26.4558 21.6075L25.1358 17.0242L24.0725 17.7392C21.1791 19.6892 18.6892 22.1791 16.7392 25.0725L16.0333 26.145L20.6167 27.465L20.9925 26.9333ZM41.8192 17.6842C44.1818 17.9141 46.4931 18.5174 48.6667 19.4717L49.2625 19.7375L52.5992 16.2908L51.4167 15.75C48.2588 14.2195 44.8349 13.3137 41.3333 13.0825L40.0133 13L41.1683 17.5833L41.8192 17.6842ZM52.865 21.8642C54.8148 23.2567 56.5318 24.949 57.9525 26.8783L58.3375 27.41L62.9208 26.09L62.1875 25.0175C60.1991 22.0785 57.6587 19.5536 54.7075 17.5833L53.635 16.8775L52.3333 21.4792L52.865 21.8642ZM60.3817 31.0125C61.3851 33.2213 62.0288 35.5763 62.2883 37.9883L62.3617 38.6392L66.945 39.7942L66.8533 38.5108C66.6125 34.9369 65.662 31.4468 64.0575 28.2442L63.48 27.0983L60.1158 30.4167L60.3817 31.0125ZM16.7117 37.9242C16.9717 35.5972 17.5902 33.3245 18.545 31.1867L18.8108 30.5908L15.3825 27.2633L14.8142 28.4183C13.2565 31.5514 12.3225 34.9573 12.0642 38.4467L12 39.7483L16.5833 38.575L16.7117 37.9242ZM58.1083 53.92C56.6681 55.9106 54.9198 57.659 52.9292 59.0992L52.3975 59.4842L53.6992 64.0675L54.7717 63.3525C57.7854 61.3507 60.369 58.7671 62.3708 55.7533L63.0767 54.6808L58.4933 53.3792L58.1083 53.92ZM48.8133 61.455C46.5735 62.4389 44.1906 63.0579 41.755 63.2883L41.095 63.3525L39.94 67.9358L41.2142 67.8625C44.8125 67.6436 48.331 66.7087 51.5633 65.1125L52.7183 64.5442L49.4092 61.1067L48.8133 61.455ZM62.4167 42.095L62.3525 42.755C62.1221 45.1906 61.5031 47.5735 60.5192 49.8133L60.2533 50.4183L63.6908 53.7275L64.2592 52.5725C65.8556 49.3402 66.7905 45.8217 67.0092 42.2233L67 40.9492L62.4167 42.095ZM36.9975 63.2975C34.5856 63.0373 32.2306 62.3936 30.0217 61.3908L29.4167 61.1158L26.1075 64.535L27.2533 65.1125C30.4559 66.717 33.9461 67.6675 37.52 67.9083L38.8033 68L37.6483 63.4167L36.9975 63.2975ZM18.4717 49.6667C17.5229 47.5013 16.9227 45.1996 16.6933 42.8467L16.5833 42.1592L12 41.0133L12.0733 42.3333C12.3083 45.8354 13.2172 49.2591 14.75 52.4167L15.3092 53.59L18.7558 50.2442L18.4717 49.6667ZM25.8692 58.9525C23.9401 57.5315 22.2479 55.8145 20.855 53.865L20.4792 53.3333L15.8958 54.6442L16.5833 55.7075C18.5451 58.6672 21.0638 61.217 23.9992 63.215L25.0717 63.9483L26.3917 59.365L25.8692 58.9525Z" fill="white"/>
</svg>
