<svg width="79" height="79" viewBox="0 0 79 79" fill="none" xmlns="http://www.w3.org/2000/svg">
<rect x="17.25" y="27.3215" width="42.1783" height="35.4819" rx="4" stroke="white" stroke-width="2"/>
<path d="M47.7142 26.6428H48.7142V25.6428V19.25C48.7142 14.8317 45.1325 11.25 40.7142 11.25H35.9644C31.5461 11.25 27.9644 14.8317 27.9644 19.25V25.6428V26.6428H28.9644H47.7142Z" stroke="white" stroke-width="2"/>
<circle cx="55.08" cy="51.759" r="16.741" fill="#1A1A19"/>
<path d="M55.7498 39.0356C48.357 39.0356 42.3571 45.0356 42.3571 52.4284C42.3571 59.8212 48.357 65.8212 55.7498 65.8212C63.1426 65.8212 69.1426 59.8212 69.1426 52.4284C69.1426 45.0356 63.1426 39.0356 55.7498 39.0356ZM55.7498 44.3928C57.973 44.3928 59.7677 46.1874 59.7677 48.4106C59.7677 50.6338 57.973 52.4284 55.7498 52.4284C53.5266 52.4284 51.732 50.6338 51.732 48.4106C51.732 46.1874 53.5266 44.3928 55.7498 44.3928ZM55.7498 60.4641C52.9909 60.4641 50.5534 59.0712 49.107 56.9284C51.0624 55.8034 53.3123 55.107 55.7498 55.107C58.1873 55.107 60.4373 55.8034 62.3926 56.9284C60.9462 59.0712 58.5087 60.4641 55.7498 60.4641Z" fill="white"/>
<rect x="1" y="1" width="77" height="77" rx="11" stroke="white" stroke-width="2"/>
</svg>
