<svg width="46" height="45" viewBox="0 0 46 45" fill="none" xmlns="http://www.w3.org/2000/svg">
<path d="M3.01056 45C8.38556 45 13.6247 43.8017 18.7281 41.405C23.8314 39.0083 28.3522 35.8417 32.2906 31.905C36.2289 27.9683 39.3956 23.4475 41.7906 18.3425C44.1856 13.2375 45.3839 7.99833 45.3856 2.625C45.3856 1.875 45.1356 1.25 44.6356 0.75C44.1356 0.25 43.5106 0 42.7606 0H32.6356C32.0522 0 31.5314 0.1875 31.0731 0.5625C30.6147 0.9375 30.3439 1.41667 30.2606 2L28.6356 10.75C28.5522 11.3333 28.5631 11.865 28.6681 12.345C28.7731 12.825 29.0122 13.2517 29.3856 13.625L35.3856 19.75C33.6356 22.75 31.4481 25.5625 28.8231 28.1875C26.1981 30.8125 23.3022 33.0833 20.1356 35L14.2606 29.125C13.8856 28.75 13.3956 28.4692 12.7906 28.2825C12.1856 28.0958 11.5922 28.0433 11.0106 28.125L2.38556 29.875C1.80222 30 1.32306 30.2817 0.94806 30.72C0.57306 31.1583 0.385559 31.6683 0.385559 32.25V42.375C0.385559 43.125 0.635557 43.75 1.13556 44.25C1.63556 44.75 2.26056 45 3.01056 45Z" fill="#6CC852"/>
</svg>
