<svg width="81" height="81" viewBox="0 0 81 81" fill="none" xmlns="http://www.w3.org/2000/svg">
<rect x="1.5" y="1.50006" width="78" height="78" rx="11.5" stroke="white" stroke-width="3"/>
<path d="M25.8049 12.9996V15.7496H18.1324C15.8224 15.7496 14.7499 16.7763 14.7499 19.123V26.7588H11.9999V26.0896V18.628C11.9819 17.8785 12.1174 17.1332 12.3979 16.438C12.6785 15.7428 13.0982 15.1123 13.6313 14.5852C14.1644 14.058 14.7997 13.6455 15.498 13.3728C16.1964 13.1002 16.9431 12.9732 17.6924 12.9996H25.8049ZM53.4607 15.7496V12.9996H61.5182C62.269 12.9719 63.0175 13.0982 63.7176 13.3708C64.4177 13.6434 65.0545 14.0566 65.5887 14.5848C66.1229 15.1131 66.5433 15.7452 66.8238 16.4421C67.1044 17.1391 67.2392 17.8861 67.2199 18.6371V26.4655C67.2251 26.554 67.2251 26.6428 67.2199 26.7313H64.479V25.9705V18.7838C64.5143 18.3749 64.4594 17.9632 64.3182 17.5778C64.177 17.1924 63.953 16.8427 63.6619 16.5534C63.3708 16.264 63.0197 16.0421 62.6335 15.9032C62.2472 15.7643 61.8352 15.7119 61.4265 15.7496H53.4607ZM64.479 54.4146H67.1099C67.1099 54.4696 67.2015 54.5063 67.2015 54.5521C67.2015 57.403 67.284 60.2538 67.2015 63.0955C67.1243 64.4137 66.5634 65.657 65.6263 66.5873C64.6893 67.5176 63.4419 68.0694 62.1232 68.1371C59.2815 68.2196 56.4307 68.1371 53.5157 68.1371V65.3871H61.2982C63.3882 65.3871 64.4974 64.2871 64.5065 62.2063C64.479 59.6671 64.479 57.0821 64.479 54.4146ZM12.0824 54.4238H14.7499V62.298C14.7012 62.7279 14.7514 63.1633 14.8966 63.5709C15.0417 63.9785 15.2781 64.3475 15.5875 64.6499C15.897 64.9523 16.2714 65.18 16.6823 65.3158C17.0931 65.4515 17.5295 65.4916 17.9582 65.433H25.8049V68.128H17.7015C16.967 68.1476 16.236 68.0198 15.5517 67.7522C14.8674 67.4846 14.2436 67.0825 13.7173 66.5699C13.1909 66.0572 12.7726 65.4442 12.4871 64.7672C12.2016 64.0901 12.0546 63.3628 12.0549 62.628V54.873C12.0457 54.7355 12.064 54.598 12.0824 54.4238ZM39.5824 49.9413H38.1432C37.2815 49.9413 37.0982 49.703 37.2265 48.8321C37.4649 47.4938 37.7124 46.1463 37.914 44.808C37.9398 44.5399 37.8646 44.2719 37.7032 44.0563C37.3705 43.6861 37.1522 43.2274 37.0746 42.7357C36.9971 42.244 37.0637 41.7404 37.2664 41.2858C37.4691 40.8311 37.7991 40.4449 38.2166 40.1739C38.6342 39.9029 39.1213 39.7587 39.619 39.7587C40.1168 39.7587 40.6039 39.9029 41.0214 40.1739C41.439 40.4449 41.769 40.8311 41.9717 41.2858C42.1744 41.7404 42.241 42.244 42.1634 42.7357C42.0859 43.2274 41.8676 43.6861 41.5349 44.0563C41.3625 44.2882 41.281 44.5751 41.3057 44.863C41.4982 46.183 41.7365 47.503 41.9749 48.823C42.1399 49.7396 41.9749 49.9688 40.994 49.978H39.5824V49.9413ZM38.4365 17.7205C42.2604 17.5914 46.0599 18.377 49.519 20.0121C49.6657 20.0855 49.8765 20.1221 49.959 20.2413C50.0792 20.4719 50.1744 20.7147 50.2432 20.9655C49.9957 21.0296 49.7024 21.2038 49.5007 21.1305C48.804 20.883 48.1532 20.5163 47.4657 20.2138C43.1919 18.5277 38.4935 18.2405 34.0462 19.3935C29.5989 20.5465 25.6319 23.0803 22.7157 26.6305C22.6057 26.7588 22.5232 26.9513 22.3949 27.0063C22.2665 27.0613 21.8449 27.1713 21.7165 27.0613C21.6456 26.9651 21.5986 26.8534 21.5795 26.7355C21.5604 26.6175 21.5696 26.4966 21.6065 26.383C21.7387 26.1274 21.9156 25.8976 22.129 25.7046C26.7307 20.5071 32.524 17.858 38.4365 17.7205Z" fill="white"/>
<path d="M40.9117 19.9942C45.1558 20.0492 49.9775 22.0383 54.02 25.9342L54.2217 26.1358C54.5058 26.4108 54.8175 26.7408 54.4417 27.1075C54.0658 27.4742 53.7542 27.1075 53.4792 26.86C51.5579 24.8952 49.2417 23.3603 46.6834 22.3569C44.1251 21.3535 41.383 20.9044 38.6383 21.0392C35.7124 21.1491 32.8513 21.9334 30.2783 23.3308C29.9117 23.5325 29.435 23.9817 29.105 23.3858C28.775 22.79 29.3983 22.6342 29.7742 22.4692C32.8175 20.8008 36.0808 19.985 40.9117 19.9942Z" fill="white"/>
<path d="M61.5916 42.0675C61.5485 39.2168 61.101 36.3866 60.2625 33.6617C58.8101 29.3259 56.0375 25.5533 52.3333 22.8725C51.9758 22.6158 51.2333 22.3958 51.7191 21.7633C52.205 21.1308 52.5808 21.7633 52.9291 22.0475C55.6076 23.9454 57.8394 26.4053 59.4686 29.2552C61.0978 32.1051 62.0852 35.2764 62.3616 38.5475C62.5358 40.28 62.5541 42.0308 62.6458 43.7725C62.6458 43.9375 62.7008 44.1483 62.6458 44.2675C62.486 44.4671 62.3046 44.6485 62.105 44.8083C61.9491 44.625 61.6833 44.4508 61.665 44.2583C61.5641 43.5525 61.5916 42.81 61.5916 42.0675ZM27.9592 24.6325C27.8084 24.8281 27.6429 25.012 27.4642 25.1825C23.7632 28.0836 21.2287 32.2188 20.3233 36.8333C19.9208 38.6845 19.8309 40.59 20.0575 42.4708C20.2306 43.2224 20.1816 44.0081 19.9163 44.7324C19.6511 45.4566 19.181 46.0881 18.5633 46.55C18.2608 46.77 17.8942 47.0725 17.5642 46.6508C17.2342 46.2292 17.5642 45.9725 17.9125 45.7342C18.3475 45.4343 18.6868 45.0155 18.89 44.5278C19.0933 44.0401 19.1517 43.5042 19.0583 42.9842C18.3996 37.7962 19.8162 32.558 23 28.4092C24.2117 26.966 25.5227 25.6091 26.9233 24.3483C27.114 24.2107 27.3503 24.1516 27.5833 24.1833C27.7025 24.1925 27.8033 24.44 27.9592 24.6325ZM19.5258 51.1517C19.3883 51.0417 19.1042 50.9042 19.1225 50.7942C19.1468 50.5348 19.2602 50.2919 19.4433 50.1067C20.3737 49.4426 21.2559 48.7136 22.0833 47.925C22.6809 47.2343 23.1241 46.4239 23.3834 45.5482C23.6426 44.6724 23.7119 43.7514 23.5867 42.8467C23.0785 39.04 23.9324 35.1763 25.9975 31.9383C26.0983 31.7733 26.1992 31.6175 26.3092 31.4617C26.52 31.1592 26.7583 30.8292 27.18 31.1133C27.6016 31.3975 27.3541 31.7 27.18 32.03C26.386 33.5168 25.676 35.047 25.0533 36.6133C24.4399 38.5625 24.2923 40.6284 24.6225 42.645C24.7901 44.3178 24.446 46.0021 23.6358 47.4751C22.8256 48.9482 21.5875 50.1407 20.085 50.895L19.5258 51.1517ZM49.0425 27.6208C52.0395 29.7817 54.1785 32.9302 55.0833 36.5125C55.8442 39.9537 56.03 43.4972 55.6333 46.9992C55.6333 47.2375 55.2758 47.6317 55.0741 47.6408C54.5975 47.6408 54.5791 47.2467 54.6158 46.8525C54.9025 43.8484 54.8008 40.8198 54.3133 37.8417C53.8138 34.9438 52.4269 32.2725 50.3441 30.1967C49.6258 29.5141 49.1659 28.604 49.0425 27.6208ZM58.1816 43.5892C58.1085 47.8061 57.423 51.9901 56.1466 56.01C56.0091 56.4225 55.8533 56.78 55.3766 56.6333C54.9 56.4867 55.0466 56.0742 55.1566 55.7167C56.5888 51.2428 57.2096 46.549 56.99 41.8567C56.935 40.5458 56.7883 39.235 56.6416 37.9242C56.5958 37.5025 56.5316 37.0992 57.0266 37.0075C57.5216 36.9158 57.6316 37.3925 57.6683 37.7683C57.8333 39.7392 58.0258 41.6642 58.1816 43.5892Z" fill="white"/>
<path d="M34.2017 23.2117C32.7809 24.2017 31.36 25.2008 29.93 26.1725C28.0343 27.4286 26.4056 29.0471 25.1376 30.9348C23.8696 32.8226 22.9874 34.9425 22.5417 37.1725C22.5417 37.2642 22.5417 37.4017 22.4959 37.4475C22.2942 37.6308 22.065 37.7867 21.845 37.9517C21.7259 37.7225 21.46 37.4567 21.5059 37.2825C21.8508 35.8459 22.2918 34.4341 22.8259 33.0567C23.8656 30.6697 25.4273 28.5463 27.396 26.8425C29.3646 25.1388 31.6902 23.8981 34.2017 23.2117ZM52.48 52.2058V45.2025C52.48 42.5533 52.48 39.895 52.3792 37.2458C52.2923 36.684 52.0688 36.152 51.7284 35.6967C51.2517 34.9358 50.665 34.2483 50.1975 33.4783C50.0692 33.2767 50.1975 32.91 50.1975 32.6167C50.4725 32.7267 50.8667 32.745 51.0042 32.9467C52.2055 34.6635 52.9758 36.6443 53.25 38.7217C53.828 43.068 53.6231 47.4826 52.645 51.7567C52.6084 51.885 52.5534 52.0133 52.48 52.2058ZM16.6384 41.0408C16.5946 36.8348 17.6805 32.6942 19.7825 29.0508C19.8742 28.8858 19.9475 28.6567 20.0942 28.5833C20.2987 28.4545 20.5458 28.4117 20.7817 28.4642C20.9009 28.4642 20.9284 28.8583 20.9467 29.0692C20.965 29.28 20.855 29.28 20.7909 29.39C18.357 33.438 17.3019 38.1663 17.7842 42.865C17.7842 42.9842 17.8575 43.1308 17.7842 43.2133C17.6533 43.4502 17.5094 43.6797 17.3534 43.9008C17.1609 43.7083 16.8309 43.5342 16.7942 43.3142C16.7025 42.4158 16.6659 41.5083 16.6384 41.0408ZM29.5725 31.1958C29.6383 31.5358 29.6349 31.8856 29.5624 32.2242C29.49 32.5628 29.35 32.8834 29.1509 33.1667C28.4409 34.0953 27.8063 35.0793 27.2534 36.1092C27.0009 36.5935 26.8659 37.1305 26.8592 37.6767V44.2675C26.7783 45.2017 26.5939 46.1241 26.3092 47.0175C26.2542 47.2283 25.8509 47.3475 25.6125 47.5033C25.53 47.2375 25.3009 46.935 25.3742 46.7242C25.85 45.0851 25.9781 43.3647 25.75 41.6733C25.5912 39.83 25.8101 37.9737 26.3933 36.2179C26.9764 34.4621 27.9116 32.8437 29.1417 31.4617C29.2336 31.3218 29.3075 31.1709 29.3617 31.0125L29.5725 31.1958ZM45.33 23.2942C47.0344 23.7632 48.6399 24.5365 50.0692 25.5767C53.1767 27.7389 55.5346 30.8143 56.8159 34.3767C56.88 34.56 57.0084 34.7525 56.9809 34.9175C56.9675 35.0272 56.9312 35.1328 56.8743 35.2276C56.8175 35.3223 56.7413 35.4041 56.6509 35.4675C56.5418 35.4796 56.4315 35.4651 56.3293 35.4251C56.2271 35.3852 56.1362 35.3211 56.0642 35.2383C55.9173 34.9926 55.8062 34.7271 55.7342 34.45C54.3325 30.7969 51.7518 27.7161 48.4009 25.6958C47.3342 24.9518 46.3091 24.1501 45.33 23.2942ZM60.1892 39.8308C60.1892 39.95 60.2534 40.0967 60.1892 40.1883C60.055 40.4252 59.9081 40.6547 59.7492 40.8758C59.5567 40.6558 59.2359 40.4542 59.19 40.2067C58.9609 38.9142 58.8692 37.6033 58.6125 36.32C58.0708 33.791 57.0197 31.3988 55.5234 29.2892C55.3767 29.0783 55.2759 28.6383 55.3859 28.4733C55.6975 28.0333 56.0367 28.2625 56.3025 28.62C58.1379 31.1696 59.3583 34.1093 59.8684 37.2092C60.015 38.08 60.0975 38.96 60.2075 39.84L60.1892 39.8308ZM45.1467 34.45C41.48 31.7 37.8775 31.6175 34.2017 34.2208C33.89 33.3042 33.9542 33.0933 34.6967 32.6717C36.1264 31.7831 37.7731 31.3053 39.4564 31.2908C41.1396 31.2762 42.7944 31.7254 44.2392 32.5892C45.2567 33.1667 45.2475 33.1667 45.1467 34.45Z" fill="white"/>
<path d="M45.11 31.6358C43.4733 30.6308 41.5952 30.0873 39.6748 30.0631C37.7543 30.0389 35.8631 30.5348 34.2016 31.4983C33.9358 30.5817 34.0275 30.3892 34.7791 30.0592C36.2851 29.376 37.9197 29.0226 39.5733 29.0226C41.227 29.0226 42.8615 29.376 44.3675 30.0592C44.5291 30.1 44.6796 30.1761 44.8082 30.2821C44.9369 30.388 45.0404 30.5212 45.1114 30.672C45.1825 30.8228 45.2192 30.9874 45.2189 31.1541C45.2186 31.3207 45.1814 31.4853 45.11 31.6358ZM55.3308 49.795C54.8745 52.5747 54.1216 55.2975 53.085 57.9167C52.92 58.3108 52.755 58.705 52.5716 59.0992C52.3883 59.4933 52.3241 59.8692 51.8383 59.6583C51.3525 59.4475 51.4991 59.0808 51.6458 58.6867C52.26 56.9817 52.9016 55.2767 53.4333 53.5442C53.8 52.3342 53.9833 51.0692 54.295 49.8775C54.35 49.6575 54.6708 49.4925 54.8725 49.3092L55.3308 49.795ZM22.4041 43.5158C22.398 44.6193 22.0919 45.7004 21.5187 46.6433C20.9455 47.5863 20.1267 48.3557 19.15 48.8692C18.82 49.0525 18.4625 49.2175 18.2333 48.7958C18.0041 48.3742 18.3066 48.1633 18.6366 47.9708C19.6043 47.4797 20.3865 46.688 20.8659 45.7144C21.3452 44.7409 21.4958 43.6381 21.295 42.5717C21.1848 41.7915 21.1418 41.0033 21.1666 40.2158C21.1666 39.9958 21.4875 39.785 21.6616 39.5742C21.8358 39.785 22.1475 39.9958 22.1566 40.2158C22.2116 41.3067 22.1566 42.4067 22.1566 43.4975L22.4041 43.5158ZM60.4366 44.7717L59.7125 51.0233C59.7122 51.0942 59.6932 51.1638 59.6575 51.225C59.465 51.445 59.2541 51.8392 59.0525 51.8392C58.5941 51.8392 58.5758 51.4267 58.64 51.0325C58.7866 50.1158 58.9516 49.1992 59.025 48.3467C59.1533 46.66 59.2266 44.9642 59.3183 43.2683V43.1308C59.4833 42.9108 59.6483 42.6908 59.8225 42.4708C59.9966 42.6817 60.2808 42.8833 60.3175 43.1125C60.3542 43.6588 60.3542 44.207 60.3175 44.7533L60.4366 44.7717Z" fill="white"/>
<path d="M34.715 28.73C34.9358 28.3099 35.2426 27.9411 35.6153 27.6473C35.988 27.3536 36.4183 27.1415 36.8784 27.025C38.791 26.6801 40.7526 26.7113 42.6534 27.1167C43.0741 27.244 43.462 27.4617 43.7897 27.7546C44.1175 28.0476 44.3773 28.4086 44.5509 28.8125C41.4063 27.5141 37.8809 27.4845 34.715 28.73ZM41.5442 56.01C40.4646 58.1905 39.1056 60.2212 37.5017 62.0508C37.2614 62.3887 36.9813 62.6965 36.6675 62.9675C36.4659 63.1142 36.1359 63.0683 35.8609 63.105C35.8609 62.83 35.8059 62.4725 35.9434 62.2892C36.86 61.07 37.8592 59.9058 38.785 58.6867C39.2522 58.0794 39.6547 57.425 39.9859 56.7342C40.0293 56.5766 40.1066 56.4304 40.2122 56.3056C40.3178 56.1809 40.4493 56.0806 40.5975 56.0117C40.7458 55.9428 40.9072 55.907 41.0707 55.9067C41.2341 55.9064 41.3957 55.9416 41.5442 56.01ZM44.1659 56.1383C43.0842 57.8983 42.0117 59.6675 40.9025 61.4092C40.4897 62.0289 40.0202 62.6089 39.5 63.1417C39.3442 63.3067 38.9775 63.27 38.7117 63.3342C38.7117 63.0592 38.5925 62.6925 38.7117 62.5367C40.2963 60.5915 41.6699 58.4836 42.8092 56.2483C42.9375 55.9917 43.5059 55.9642 43.8725 55.8267L44.1659 56.1383ZM38.95 56.0833C37.658 58.4488 35.9857 60.5857 34 62.4083C33.8442 62.555 33.4684 62.4633 33.2025 62.4908C33.2025 62.2158 33.2025 61.8492 33.3309 61.6933C35.0072 60.0357 36.4868 58.1902 37.74 56.1933C37.9142 55.9275 38.4917 55.9183 38.8859 55.7992L38.95 56.0833ZM42.1584 63.3158C41.5625 63.3158 41.4067 62.8483 41.7 62.3992C42.2409 61.5833 42.8275 60.795 43.3317 59.9608C43.9367 58.9342 44.4775 57.8708 45.0367 56.8167C45.22 56.4683 45.3759 56.0467 45.8617 56.2575C46.3475 56.4683 46.1825 56.89 45.99 57.2292C44.8961 59.0992 43.79 60.9631 42.6717 62.8208C42.5267 63.0109 42.3536 63.1778 42.1584 63.3158ZM35.7142 55.9367C36.3742 55.9367 36.5575 56.2667 36.1909 56.7525C35.2742 57.9533 34.3575 59.1267 33.3584 60.2633C32.8818 60.8002 32.3503 61.2856 31.7725 61.7117C31.5984 61.84 31.2409 61.7117 30.9659 61.7117C30.9659 61.455 30.9659 61.1067 31.1034 60.9692C32.7303 59.5558 34.1608 57.9311 35.3567 56.1383C35.4484 56.0192 35.6592 55.9642 35.7142 55.9367ZM49.1617 56.0283C47.9884 58.2008 46.8884 60.2542 45.7792 62.3075C45.5959 62.6467 45.275 62.9308 44.9267 62.61C44.8592 62.4797 44.8239 62.3351 44.8239 62.1883C44.8239 62.0416 44.8592 61.897 44.9267 61.7667C45.8434 59.9333 46.76 58.1642 47.6767 56.3583C47.9425 55.8817 47.9609 55.8633 49.1617 56.0283ZM26.7767 49.1258C26.9325 50.1892 26.9509 51.1425 26.0984 51.8758C24.9128 52.8475 23.7181 53.81 22.5142 54.7633C22.2209 54.9925 21.8267 55.1208 21.5975 54.7083C21.3684 54.2958 21.5975 54.0667 21.9917 53.8742C23.9086 52.8339 25.4963 51.278 26.575 49.3825C26.6368 49.2928 26.7041 49.2071 26.7767 49.1258ZM34.3025 56.0833C33.6884 56.8258 33.12 57.6233 32.4692 58.3108C31.6075 59.2275 30.6359 60.0158 29.7192 60.8225C29.5725 60.9508 29.2242 60.8225 28.9675 60.8225C28.9675 60.5567 28.9675 60.1992 29.105 60.0342C30.3517 58.7233 31.5984 57.4217 32.9184 56.1842C33.2025 55.9183 33.7525 55.9458 34.1834 55.845L34.3025 56.0833ZM51.8017 55.2492C50.885 57.2475 49.9683 59.2642 49.0517 61.2442C48.9692 61.4092 48.5842 61.4367 48.3459 61.5283C48.2817 61.2808 48.08 60.9875 48.1625 60.8042C48.85 59.2092 49.5375 57.605 50.335 56.065C50.555 55.6433 51.1692 55.4233 51.6 55.1483L51.8017 55.2492ZM24.4209 48.8967C24.9434 48.8967 25.1725 49.3458 24.8884 49.7308C23.8748 51.1622 22.4985 52.298 20.9009 53.0217C20.7359 53.095 20.4609 52.9025 20.2317 52.8292C20.3142 52.5908 20.3234 52.215 20.4884 52.1233C21.8945 51.4001 23.1196 50.3693 24.0725 49.1075C24.1729 49.0141 24.2915 48.9423 24.4209 48.8967ZM30.9384 56.4867C30.8272 56.6837 30.695 56.8681 30.5442 57.0367C29.6275 57.8708 28.6559 58.7233 27.675 59.5025C27.5436 59.5715 27.3973 59.6076 27.2488 59.6076C27.1003 59.6076 26.954 59.5715 26.8225 59.5025C26.4834 59.1725 26.8225 58.8883 27.0884 58.6408C28.005 57.8525 28.9217 57.0367 29.8384 56.2667C30.0338 56.12 30.2724 56.0426 30.5167 56.0467C30.6542 56.0833 30.7734 56.3125 30.9384 56.4867ZM26.795 53.1317C26.8818 53.291 26.9347 53.4665 26.9506 53.6473C26.9665 53.828 26.945 54.0101 26.8873 54.1821C26.8297 54.3542 26.7372 54.5125 26.6157 54.6472C26.4941 54.7819 26.3461 54.8901 26.1809 54.965C25.4475 55.4508 24.7509 56.0008 24.0267 56.4958C23.715 56.7067 23.3117 56.8625 23.11 56.4133C23.0367 56.23 23.2567 55.8083 23.4584 55.6433C24.5675 54.7817 25.695 53.9567 26.795 53.1317ZM27.8217 55.2492L28.7384 55.845C27.6475 56.67 26.6392 57.4583 25.585 58.1917C25.4384 58.2925 25.09 58.1092 24.8425 58.0542C24.925 57.8067 24.925 57.4767 25.09 57.3392C25.9517 56.6242 26.8592 55.9733 27.8217 55.2492ZM30.2784 27.3733C30.2691 27.878 30.1385 28.3731 29.8976 28.8166C29.6567 29.2602 29.3125 29.6392 28.8942 29.9217C28.7384 30.0225 28.4359 29.9217 28.2067 29.8758C28.2067 29.6192 28.2067 29.2617 28.2984 29.1242C28.8759 28.5375 29.5267 28.0242 30.2784 27.3733ZM43.075 34.6883H40.82C40.6092 34.6883 40.4259 34.34 40.2334 34.1567C40.4717 34.01 40.7375 33.7075 40.93 33.7533C41.6725 33.9367 42.3967 34.23 43.13 34.4775L43.075 34.6883ZM35.9617 34.4592C36.6093 34.193 37.2701 33.9605 37.9417 33.7625C38.0748 33.7671 38.2045 33.8057 38.3185 33.8747C38.4324 33.9437 38.5268 34.0408 38.5925 34.1567C38.7209 34.5233 38.4459 34.6883 38.0609 34.6883H36.0167L35.9617 34.4592Z" fill="white"/>
</svg>
