<svg width="51" height="51" viewBox="0 0 51 51" fill="none" xmlns="http://www.w3.org/2000/svg">
<path d="M31.5788 21.8778L29.3656 19.6603C29.0712 19.3616 28.8698 18.9839 28.7859 18.573C28.7021 18.1621 28.7393 17.7357 28.8931 17.3456L29.9736 14.6467C30.1341 14.2524 30.4077 13.9144 30.7599 13.6754C31.1122 13.4364 31.5273 13.307 31.9529 13.3035L36.8979 13.3082C37.1875 13.3108 37.4735 13.3719 37.7388 13.488C38.0041 13.604 38.2432 13.7725 38.4417 13.9834C38.6401 14.1943 38.7938 14.4431 38.8936 14.7149C38.9934 14.9868 39.0371 15.276 39.0221 15.5652C37.8271 34.4836 21.8017 38.2858 15.6692 39.0019C15.3681 39.0352 15.0633 39.0042 14.775 38.9112C14.4866 38.8182 14.2212 38.6652 13.9963 38.4622C13.7713 38.2593 13.5919 38.011 13.4698 37.7337C13.3477 37.4565 13.2856 37.1565 13.2878 36.8535L13.2923 32.0767C13.294 31.6504 13.4232 31.2344 13.6632 30.8821C13.9032 30.5298 14.2432 30.2574 14.6393 30.0999L17.3403 29.0245C17.7292 28.8664 18.156 28.8264 18.5675 28.9094C18.9791 28.9925 19.357 29.195 19.6541 29.4916L21.8673 31.709C21.8673 31.709 30.5025 30.4415 31.5788 21.8778Z" fill="#6CC852"/>
<circle cx="25.5" cy="25.5" r="24" stroke="#6CC852" stroke-width="3"/>
</svg>
