<svg width="81" height="81" viewBox="0 0 81 81" fill="none" xmlns="http://www.w3.org/2000/svg">
<rect x="1.5" y="1.50006" width="78" height="78" rx="11.5" stroke="white" stroke-width="3"/>
<path d="M34.7453 27.6179C34.7453 26.278 35.2228 25.1305 36.1779 24.1754C37.1329 23.2204 38.2796 22.7437 39.618 22.7453C40.9579 22.7453 42.1054 23.2228 43.0605 24.1779C44.0155 25.1329 44.4922 26.2796 44.4906 27.6179C44.4906 28.9579 44.0131 30.1054 43.058 31.0605C42.103 32.0155 40.9563 32.4922 39.618 32.4906C38.278 32.4906 37.1305 32.0131 36.1754 31.058C35.2204 30.103 34.7437 28.9563 34.7453 27.6179ZM25 27.6179C25 23.5574 26.4212 20.1059 29.2636 17.2636C32.106 14.4212 35.5574 13 39.618 13C43.6785 13 47.13 14.4212 49.9723 17.2636C52.8147 20.1059 54.2359 23.5574 54.2359 27.6179C54.2359 30.3385 53.5659 32.8057 52.2259 35.0195C50.886 37.2333 49.1196 38.9891 46.9269 40.2868L46.9269 60.691C46.9269 61.0159 46.866 61.331 46.7442 61.6363C46.6224 61.9417 46.4397 62.2154 46.196 62.4574L41.3234 67.33C41.0798 67.5736 40.8158 67.7458 40.5316 67.8465C40.2473 67.9472 39.9428 67.9984 39.618 68C39.2931 68 38.9886 67.9488 38.7043 67.8465C38.4201 67.7442 38.1562 67.572 37.9125 67.33L30.1772 59.5947C29.9742 59.3917 29.8118 59.148 29.6899 58.8638C29.5681 58.5796 29.4869 58.2953 29.4463 58.0111C29.4057 57.7268 29.426 57.4426 29.5072 57.1584C29.5884 56.8741 29.7305 56.6102 29.9336 56.3666L32.309 53.1993L29.6899 49.7276C29.5275 49.5246 29.4057 49.3012 29.3245 49.0576C29.2433 48.814 29.2027 48.5703 29.2027 48.3267C29.2027 48.0831 29.2433 47.8289 29.3245 47.5641C29.4057 47.2994 29.5275 47.0663 29.6899 46.8649L32.309 43.1495V40.2868C30.1163 38.9875 28.35 37.2309 27.01 35.0171C25.67 32.8032 25 30.3369 25 27.6179ZM29.8727 27.6179C29.8727 29.8918 30.563 31.8921 31.9435 33.6186C33.3241 35.3451 35.0702 36.4918 37.1816 37.0587V44.6722L34.6844 48.2049L38.3998 53.1993L35.0499 57.5238L39.618 62.0919L42.0543 59.6556V37.0587C44.1658 36.4902 45.9118 35.3427 47.2924 33.6162C48.673 31.8896 49.3633 29.8902 49.3633 27.6179C49.3633 24.938 48.409 22.6438 46.5006 20.7353C44.5921 18.8269 42.2979 17.8726 39.618 17.8726C36.938 17.8726 34.6438 18.8269 32.7353 20.7353C30.8269 22.6438 29.8727 24.938 29.8727 27.6179Z" fill="white"/>
</svg>
