<svg width="79" height="79" viewBox="0 0 79 79" fill="none" xmlns="http://www.w3.org/2000/svg">
<mask id="path-1-outside-1_68_457" maskUnits="userSpaceOnUse" x="24" y="8.95837" width="31" height="61" fill="black">
<rect fill="white" x="24" y="8.95837" width="31" height="61"/>
<path fill-rule="evenodd" clip-rule="evenodd" d="M42.0417 33.6846C47.8866 32.522 52.25 27.9397 52.25 22.464C52.25 16.1096 46.3737 10.9584 39.125 10.9584C31.8763 10.9584 26 16.1096 26 22.464C26 27.9397 30.3634 32.522 36.2083 33.6846V48.0323L31.8333 53.1459L35.4792 57.6203L31.8333 60.8163L39.125 67.2084L42.0417 64.6516V57.6203V33.6846Z"/>
</mask>
<path d="M42.0417 33.6846L41.6515 31.723L40.0417 32.0433V33.6846H42.0417ZM36.2083 33.6846H38.2083V32.0433L36.5985 31.723L36.2083 33.6846ZM36.2083 48.0323L37.728 49.3324L38.2083 48.7711V48.0323H36.2083ZM31.8333 53.1459L30.3136 51.8457L29.228 53.1146L30.2829 54.4092L31.8333 53.1459ZM35.4792 57.6203L36.7976 59.1243L38.2482 57.8525L37.0296 56.357L35.4792 57.6203ZM31.8333 60.8163L30.5149 59.3124L28.7993 60.8163L30.5149 62.3203L31.8333 60.8163ZM39.125 67.2084L37.8066 68.7123L39.125 69.8681L40.4434 68.7123L39.125 67.2084ZM42.0417 64.6516L43.36 66.1555L44.0417 65.558V64.6516H42.0417ZM50.25 22.464C50.25 26.7937 46.7625 30.7064 41.6515 31.723L42.4318 35.6462C49.0108 34.3375 54.25 29.0857 54.25 22.464H50.25ZM39.125 12.9584C45.5247 12.9584 50.25 17.4535 50.25 22.464H54.25C54.25 14.7658 47.2228 8.95837 39.125 8.95837V12.9584ZM28 22.464C28 17.4535 32.7253 12.9584 39.125 12.9584V8.95837C31.0272 8.95837 24 14.7658 24 22.464H28ZM36.5985 31.723C31.4875 30.7064 28 26.7937 28 22.464H24C24 29.0857 29.2392 34.3375 35.8181 35.6462L36.5985 31.723ZM38.2083 48.0323V33.6846H34.2083V48.0323H38.2083ZM33.353 54.4461L37.728 49.3324L34.6886 46.7321L30.3136 51.8457L33.353 54.4461ZM37.0296 56.357L33.3838 51.8825L30.2829 54.4092L33.9287 58.8837L37.0296 56.357ZM33.1517 62.3203L36.7976 59.1243L34.1608 56.1164L30.5149 59.3124L33.1517 62.3203ZM40.4434 65.7044L33.1517 59.3124L30.5149 62.3203L37.8066 68.7123L40.4434 65.7044ZM40.7233 63.1476L37.8066 65.7044L40.4434 68.7123L43.36 66.1555L40.7233 63.1476ZM40.0417 57.6203V64.6516H44.0417V57.6203H40.0417ZM40.0417 33.6846V57.6203H44.0417V33.6846H40.0417Z" fill="#6CC852" mask="url(#path-1-outside-1_68_457)"/>
<ellipse cx="38.75" cy="22.375" rx="5.25" ry="4.875" fill="#6CC852"/>
<rect x="1" y="1" width="77" height="77" rx="11" stroke="#6CC852" stroke-width="2"/>
</svg>
