<svg width="110" height="110" viewBox="0 0 110 110" fill="none" xmlns="http://www.w3.org/2000/svg">
<rect x="1" y="1" width="108" height="108" rx="19" stroke="#6CC852" stroke-width="2"/>
<path d="M35.3307 15H76.8476C79.6482 15 81.9264 17.272 81.9264 20.0649V89.9353C81.9264 92.728 79.648 95.0002 76.8474 95.0002H35.3307C32.5301 95.0002 30.2517 92.7281 30.2517 89.9353V20.0649C30.2519 17.272 32.5301 15 35.3307 15ZM79.3813 27.73H32.7968V80.6369H79.3813V27.73ZM76.8476 17.538H35.3307C33.9336 17.538 32.7968 18.6715 32.7968 20.0649V26.038H79.3813V20.0649C79.3813 18.6715 78.2447 17.538 76.8476 17.538ZM35.3307 92.462H76.8476C78.2447 92.462 79.3815 91.3285 79.3815 89.9352V82.3287H32.797V89.9352C32.797 91.3285 33.9336 92.462 35.3307 92.462Z" fill="#6CC852"/>
<path d="M56.0891 83.4505C58.3873 83.4505 60.2569 85.3151 60.2569 87.6069C60.2569 89.8988 58.3871 91.7632 56.0891 91.7632C53.791 91.7632 51.9212 89.8986 51.9212 87.6069C51.9212 85.3153 53.7908 83.4505 56.0891 83.4505ZM56.0891 90.0712C57.4517 90.0712 58.5602 88.9656 58.5602 87.6069C58.5602 86.2481 57.4517 85.1425 56.0891 85.1425C54.7264 85.1425 53.618 86.2481 53.618 87.6069C53.618 88.9656 54.7264 90.0712 56.0891 90.0712ZM61.8579 23.0616H50.3202C50.0952 23.0616 49.8794 22.9724 49.7203 22.8138C49.5612 22.6551 49.4718 22.4399 49.4718 22.2156C49.4718 21.9912 49.5612 21.776 49.7203 21.6174C49.8794 21.4587 50.0952 21.3696 50.3202 21.3696H61.8579C62.0829 21.3696 62.2987 21.4587 62.4578 21.6174C62.6169 21.776 62.7063 21.9912 62.7063 22.2156C62.7063 22.4399 62.6169 22.6551 62.4578 22.8138C62.2987 22.9724 62.0829 23.0616 61.8579 23.0616ZM64.9115 23.0616C64.6892 23.0616 64.4703 22.9719 64.3126 22.8145C64.1548 22.6555 64.0631 22.4389 64.0631 22.2156C64.0631 21.9922 64.1548 21.7756 64.3126 21.6166C64.4719 21.459 64.6871 21.3702 64.9115 21.3696C65.1355 21.3696 65.3528 21.4592 65.5121 21.6166C65.6699 21.774 65.7599 21.9922 65.7599 22.2156C65.7599 22.4389 65.6699 22.6555 65.5121 22.8145C65.3543 22.9719 65.1355 23.0616 64.9115 23.0616Z" fill="#6CC852"/>
</svg>
