<svg width="81" height="81" viewBox="0 0 81 81" fill="none" xmlns="http://www.w3.org/2000/svg">
<rect x="1.5" y="1.5" width="78" height="78" rx="11.5" stroke="white" stroke-width="3"/>
<path fill-rule="evenodd" clip-rule="evenodd" d="M28.44 13.87C28.7693 13.87 29.0818 13.7979 29.3626 13.6687L33.2227 17.75H15.17C13.7678 17.7841 12.4362 18.3727 11.4671 19.3867C10.4981 20.4008 9.97049 21.7577 10 23.16V50.26C9.97049 51.6623 10.4981 53.0192 11.4671 54.0333C12.4362 55.0473 13.7678 55.6359 15.17 55.67H35.77V61.23H44.22V55.67H64.83C66.2323 55.6359 67.5638 55.0473 68.5329 54.0333C69.502 53.0192 70.0295 51.6623 70 50.26V23.16C70.0295 21.7577 69.502 20.4008 68.5329 19.3867C67.5638 18.3727 66.2323 17.7841 64.83 17.75H46.7773L50.6374 13.6688C50.9182 13.7979 51.2307 13.87 51.56 13.87C52.7805 13.87 53.77 12.8805 53.77 11.66C53.77 10.4394 52.7805 9.44995 51.56 9.44995C50.3394 9.44995 49.35 10.4394 49.35 11.66C49.35 12.0331 49.4425 12.3847 49.6058 12.693L44.8228 17.75H35.1772L30.3942 12.6929C30.5575 12.3847 30.65 12.0331 30.65 11.66C30.65 10.4394 29.6605 9.44995 28.44 9.44995C27.2194 9.44995 26.23 10.4394 26.23 11.66C26.23 12.8805 27.2194 13.87 28.44 13.87ZM14.2101 20.7946C14.5129 20.6607 14.8391 20.5878 15.17 20.58H64.83C65.161 20.5878 65.4872 20.6607 65.7899 20.7946C66.0927 20.9285 66.3661 21.1207 66.5946 21.3603C66.823 21.5999 67.002 21.8822 67.1213 22.191C67.2407 22.4998 67.298 22.829 67.29 23.16V50.26C67.298 50.591 67.2407 50.9202 67.1213 51.229C67.002 51.5378 66.823 51.8201 66.5946 52.0597C66.3661 52.2993 66.0927 52.4915 65.7899 52.6254C65.4872 52.7593 65.161 52.8322 64.83 52.84H15.17C14.8391 52.8322 14.5129 52.7593 14.2101 52.6254C13.9073 52.4915 13.6339 52.2993 13.4055 52.0597C13.177 51.8201 12.998 51.5378 12.8787 51.229C12.7594 50.9202 12.702 50.591 12.71 50.26V23.16C12.702 22.829 12.7594 22.4998 12.8787 22.191C12.998 21.8822 13.177 21.5999 13.4055 21.3603C13.6339 21.1207 13.9073 20.9285 14.2101 20.7946ZM40 67C52.1503 67 62 66.0822 62 64.95C62 63.8178 52.1503 62.9 40 62.9C27.8497 62.9 18 63.8178 18 64.95C18 66.0822 27.8497 67 40 67ZM27.9846 28.0536V29.6302H32.5996V42.73H34.3769V29.6302H38.9919V28.0536H27.9846ZM46.6938 40.4081L42.3367 28.0536H40.4735L45.8625 42.73H47.697L53.086 28.0536H51.2228L46.8657 40.4081H46.6938Z" fill="white"/>
</svg>
