<svg width="81" height="81" viewBox="0 0 81 81" fill="none" xmlns="http://www.w3.org/2000/svg">
<mask id="path-1-inside-1_77_25" fill="white">
<path d="M50.49 46.0001C50.71 44.1851 50.875 42.3701 50.875 40.5001C50.875 38.6301 50.71 36.8151 50.49 35.0001H59.785C60.225 36.7601 60.5 38.6026 60.5 40.5001C60.5 42.3976 60.225 44.2401 59.785 46.0001M45.6225 61.2901C47.2725 58.2376 48.5375 54.9376 49.4175 51.5001H57.53C54.8657 56.0878 50.6388 59.5631 45.6225 61.2901ZM44.935 46.0001H32.065C31.79 44.1851 31.625 42.3701 31.625 40.5001C31.625 38.6301 31.79 36.7876 32.065 35.0001H44.935C45.1825 36.7876 45.375 38.6301 45.375 40.5001C45.375 42.3701 45.1825 44.1851 44.935 46.0001ZM38.5 62.3901C36.2175 59.0901 34.375 55.4326 33.2475 51.5001H43.7525C42.625 55.4326 40.7825 59.0901 38.5 62.3901ZM27.5 29.5001H19.47C22.1069 24.8999 26.3307 21.4191 31.35 19.7101C29.7 22.7626 28.4625 26.0626 27.5 29.5001ZM19.47 51.5001H27.5C28.4625 54.9376 29.7 58.2376 31.35 61.2901C26.3412 59.5621 22.1233 56.0863 19.47 51.5001ZM17.215 46.0001C16.775 44.2401 16.5 42.3976 16.5 40.5001C16.5 38.6026 16.775 36.7601 17.215 35.0001H26.51C26.29 36.8151 26.125 38.6301 26.125 40.5001C26.125 42.3701 26.29 44.1851 26.51 46.0001M38.5 18.5826C40.7825 21.8826 42.625 25.5676 43.7525 29.5001H33.2475C34.375 25.5676 36.2175 21.8826 38.5 18.5826ZM57.53 29.5001H49.4175C48.5568 26.0941 47.2823 22.8063 45.6225 19.7101C50.6825 21.4426 54.89 24.9351 57.53 29.5001ZM38.5 13.0001C23.2925 13.0001 11 25.3751 11 40.5001C11 47.7935 13.8973 54.7882 19.0546 59.9455C21.6082 62.4991 24.6398 64.5247 27.9762 65.9067C31.3127 67.2888 34.8886 68.0001 38.5 68.0001C45.7935 68.0001 52.7882 65.1027 57.9454 59.9455C63.1027 54.7882 66 47.7935 66 40.5001C66 36.8887 65.2887 33.3127 63.9067 29.9763C62.5247 26.6398 60.499 23.6082 57.9454 21.0546C55.3918 18.501 52.3602 16.4754 49.0238 15.0934C45.6873 13.7114 42.1114 13.0001 38.5 13.0001Z"/>
</mask>
<path d="M50.49 46.0001C50.71 44.1851 50.875 42.3701 50.875 40.5001C50.875 38.6301 50.71 36.8151 50.49 35.0001H59.785C60.225 36.7601 60.5 38.6026 60.5 40.5001C60.5 42.3976 60.225 44.2401 59.785 46.0001M45.6225 61.2901C47.2725 58.2376 48.5375 54.9376 49.4175 51.5001H57.53C54.8657 56.0878 50.6388 59.5631 45.6225 61.2901ZM44.935 46.0001H32.065C31.79 44.1851 31.625 42.3701 31.625 40.5001C31.625 38.6301 31.79 36.7876 32.065 35.0001H44.935C45.1825 36.7876 45.375 38.6301 45.375 40.5001C45.375 42.3701 45.1825 44.1851 44.935 46.0001ZM38.5 62.3901C36.2175 59.0901 34.375 55.4326 33.2475 51.5001H43.7525C42.625 55.4326 40.7825 59.0901 38.5 62.3901ZM27.5 29.5001H19.47C22.1069 24.8999 26.3307 21.4191 31.35 19.7101C29.7 22.7626 28.4625 26.0626 27.5 29.5001ZM19.47 51.5001H27.5C28.4625 54.9376 29.7 58.2376 31.35 61.2901C26.3412 59.5621 22.1233 56.0863 19.47 51.5001ZM17.215 46.0001C16.775 44.2401 16.5 42.3976 16.5 40.5001C16.5 38.6026 16.775 36.7601 17.215 35.0001H26.51C26.29 36.8151 26.125 38.6301 26.125 40.5001C26.125 42.3701 26.29 44.1851 26.51 46.0001M38.5 18.5826C40.7825 21.8826 42.625 25.5676 43.7525 29.5001H33.2475C34.375 25.5676 36.2175 21.8826 38.5 18.5826ZM57.53 29.5001H49.4175C48.5568 26.0941 47.2823 22.8063 45.6225 19.7101C50.6825 21.4426 54.89 24.9351 57.53 29.5001ZM38.5 13.0001C23.2925 13.0001 11 25.3751 11 40.5001C11 47.7935 13.8973 54.7882 19.0546 59.9455C21.6082 62.4991 24.6398 64.5247 27.9762 65.9067C31.3127 67.2888 34.8886 68.0001 38.5 68.0001C45.7935 68.0001 52.7882 65.1027 57.9454 59.9455C63.1027 54.7882 66 47.7935 66 40.5001C66 36.8887 65.2887 33.3127 63.9067 29.9763C62.5247 26.6398 60.499 23.6082 57.9454 21.0546C55.3918 18.501 52.3602 16.4754 49.0238 15.0934C45.6873 13.7114 42.1114 13.0001 38.5 13.0001Z" fill="white"/>
<path d="M50.49 35.0001V34.0001H49.3615L49.4973 35.1204L50.49 35.0001ZM59.785 35.0001L60.7551 34.7575L60.5658 34.0001H59.785V35.0001ZM45.6225 61.2901L44.7428 60.8145L43.5235 63.0703L45.948 62.2356L45.6225 61.2901ZM49.4175 51.5001V50.5001H48.6413L48.4487 51.2521L49.4175 51.5001ZM57.53 51.5001L58.3948 52.0023L59.2671 50.5001H57.53V51.5001ZM44.935 46.0001V47.0001H45.8079L45.9258 46.1352L44.935 46.0001ZM32.065 46.0001L31.0763 46.1499L31.2051 47.0001H32.065V46.0001ZM32.065 35.0001V34.0001H31.2071L31.0766 34.848L32.065 35.0001ZM44.935 35.0001L45.9256 34.8629L45.8061 34.0001H44.935V35.0001ZM38.5 62.3901L37.6776 62.9589L38.5 64.148L39.3224 62.9589L38.5 62.3901ZM33.2475 51.5001V50.5001H31.9205L32.2862 51.7757L33.2475 51.5001ZM43.7525 51.5001L44.7138 51.7757L45.0795 50.5001H43.7525V51.5001ZM27.5 29.5001V30.5001H28.2585L28.463 29.7697L27.5 29.5001ZM19.47 29.5001L18.6024 29.0028L17.7442 30.5001H19.47V29.5001ZM31.35 19.7101L32.2297 20.1856L33.443 17.941L31.0277 18.7634L31.35 19.7101ZM19.47 51.5001V50.5001H17.7362L18.6044 52.0008L19.47 51.5001ZM27.5 51.5001L28.463 51.2304L28.2585 50.5001H27.5V51.5001ZM31.35 61.2901L31.0239 62.2354L33.4502 63.0724L32.2297 60.8145L31.35 61.2901ZM17.215 35.0001V34.0001H16.4342L16.2449 34.7575L17.215 35.0001ZM26.51 35.0001L27.5027 35.1204L27.6385 34.0001H26.51V35.0001ZM38.5 18.5826L39.3224 18.0137L38.5 16.8246L37.6776 18.0137L38.5 18.5826ZM43.7525 29.5001V30.5001H45.0795L44.7138 29.2245L43.7525 29.5001ZM33.2475 29.5001L32.2862 29.2245L31.9205 30.5001H33.2475V29.5001ZM57.53 29.5001V30.5001H59.2635L58.3957 28.9994L57.53 29.5001ZM49.4175 29.5001L48.448 29.7451L48.6388 30.5001H49.4175V29.5001ZM45.6225 19.7101L45.9464 18.764L43.5388 17.9396L44.7412 20.1825L45.6225 19.7101ZM38.5 13.0001V12.0001V13.0001ZM38.5 68.0001V69.0001V68.0001ZM51.4827 46.1204C51.7049 44.2874 51.875 42.4276 51.875 40.5001H49.875C49.875 42.3126 49.7151 44.0827 49.4973 45.8797L51.4827 46.1204ZM51.875 40.5001C51.875 38.5726 51.7049 36.7127 51.4827 34.8797L49.4973 35.1204C49.7151 36.9174 49.875 38.6876 49.875 40.5001H51.875ZM50.49 36.0001H59.785V34.0001H50.49V36.0001ZM58.8149 35.2426C59.239 36.939 59.5 38.6991 59.5 40.5001H61.5C61.5 38.506 61.211 36.5811 60.7551 34.7575L58.8149 35.2426ZM59.5 40.5001C59.5 42.301 59.239 44.0611 58.8149 45.7575L60.7551 46.2426C61.211 44.419 61.5 42.4941 61.5 40.5001H59.5ZM46.5022 61.7656C48.1937 58.6363 49.4874 55.2592 50.3863 51.7481L48.4487 51.2521C47.5876 54.616 46.3513 57.8389 44.7428 60.8145L46.5022 61.7656ZM49.4175 52.5001H57.53V50.5001H49.4175V52.5001ZM56.6652 50.9979C54.1216 55.3779 50.0861 58.6957 45.297 60.3445L45.948 62.2356C51.1915 60.4304 55.6098 56.7978 58.3948 52.0023L56.6652 50.9979ZM44.935 45.0001H32.065V47.0001H44.935V45.0001ZM33.0537 45.8503C32.7847 44.0747 32.625 42.3106 32.625 40.5001H30.625C30.625 42.4295 30.7953 44.2955 31.0763 46.1499L33.0537 45.8503ZM32.625 40.5001C32.625 38.6885 32.7849 36.8974 33.0534 35.1521L31.0766 34.848C30.7951 36.6777 30.625 38.5716 30.625 40.5001H32.625ZM32.065 36.0001H44.935V34.0001H32.065V36.0001ZM43.9445 35.1372C44.1892 36.9048 44.375 38.696 44.375 40.5001H46.375C46.375 38.5641 46.1758 36.6703 45.9256 34.8629L43.9445 35.1372ZM44.375 40.5001C44.375 42.3035 44.1894 44.0669 43.9442 45.8649L45.9258 46.1352C46.1756 44.3032 46.375 42.4366 46.375 40.5001H44.375ZM39.3224 61.8212C37.0926 58.5974 35.3021 55.0378 34.2088 51.2245L32.2862 51.7757C33.4479 55.8274 35.3424 59.5827 37.6776 62.9589L39.3224 61.8212ZM33.2475 52.5001H43.7525V50.5001H33.2475V52.5001ZM42.7912 51.2245C41.6979 55.0378 39.9074 58.5974 37.6776 61.8212L39.3224 62.9589C41.6576 59.5827 43.5521 55.8274 44.7138 51.7757L42.7912 51.2245ZM27.5 28.5001H19.47V30.5001H27.5V28.5001ZM20.3376 29.9974C22.8534 25.6083 26.8834 22.2873 31.6723 20.6567L31.0277 18.7634C25.778 20.551 21.3603 24.1915 18.6024 29.0028L20.3376 29.9974ZM30.4703 19.2345C28.7768 22.3674 27.5143 25.7401 26.537 29.2304L28.463 29.7697C29.4107 26.3851 30.6232 23.1577 32.2297 20.1856L30.4703 19.2345ZM19.47 52.5001H27.5V50.5001H19.47V52.5001ZM26.537 51.7697C27.5143 55.2601 28.7768 58.6327 30.4703 61.7656L32.2297 60.8145C30.6232 57.8424 29.4107 54.6151 28.463 51.2304L26.537 51.7697ZM31.6761 60.3447C26.8948 58.6953 22.8684 55.3773 20.3356 50.9993L18.6044 52.0008C21.3782 56.7953 25.7877 60.429 31.0239 62.2354L31.6761 60.3447ZM18.1851 45.7575C17.761 44.0611 17.5 42.301 17.5 40.5001H15.5C15.5 42.4941 15.789 44.419 16.2449 46.2426L18.1851 45.7575ZM17.5 40.5001C17.5 38.6991 17.761 36.939 18.1851 35.2426L16.2449 34.7575C15.789 36.5811 15.5 38.506 15.5 40.5001H17.5ZM17.215 36.0001H26.51V34.0001H17.215V36.0001ZM25.5173 34.8797C25.2951 36.7127 25.125 38.5726 25.125 40.5001H27.125C27.125 38.6876 27.2849 36.9174 27.5027 35.1204L25.5173 34.8797ZM25.125 40.5001C25.125 42.4276 25.2951 44.2874 25.5173 46.1204L27.5027 45.8797C27.2849 44.0827 27.125 42.3126 27.125 40.5001H25.125ZM37.6776 19.1514C39.9061 22.3735 41.6974 25.9606 42.7912 29.7757L44.7138 29.2245C43.5526 25.1746 41.6589 21.3917 39.3224 18.0137L37.6776 19.1514ZM43.7525 28.5001H33.2475V30.5001H43.7525V28.5001ZM34.2088 29.7757C35.3026 25.9606 37.0939 22.3735 39.3224 19.1514L37.6776 18.0137C35.3411 21.3917 33.4474 25.1746 32.2862 29.2245L34.2088 29.7757ZM57.53 28.5001H49.4175V30.5001H57.53V28.5001ZM50.387 29.2551C49.5063 25.7699 48.2022 22.4057 46.5038 19.2376L44.7412 20.1825C46.3624 23.2068 47.6073 26.4182 48.448 29.7451L50.387 29.2551ZM45.2986 20.6561C50.1286 22.3099 54.1444 25.6433 56.6643 30.0007L58.3957 28.9994C55.6356 24.2269 51.2364 20.5752 45.9464 18.764L45.2986 20.6561ZM38.5 12.0001C22.7383 12.0001 10 24.8247 10 40.5001H12C12 25.9254 23.8467 14.0001 38.5 14.0001V12.0001ZM10 40.5001C10 48.0587 13.0027 55.3078 18.3475 60.6526L19.7617 59.2384C14.792 54.2687 12 47.5283 12 40.5001H10ZM18.3475 60.6526C20.9939 63.2991 24.1357 65.3984 27.5935 66.8306L28.3589 64.9829C25.1438 63.6511 22.2224 61.6991 19.7617 59.2384L18.3475 60.6526ZM27.5935 66.8306C31.0513 68.2629 34.7573 69.0001 38.5 69.0001V67.0001C35.02 67.0001 31.574 66.3146 28.3589 64.9829L27.5935 66.8306ZM38.5 69.0001C46.0587 69.0001 53.3078 65.9974 58.6525 60.6526L57.2383 59.2384C52.2686 64.2081 45.5282 67.0001 38.5 67.0001V69.0001ZM58.6525 60.6526C63.9973 55.3078 67 48.0587 67 40.5001H65C65 47.5283 62.208 54.2687 57.2383 59.2384L58.6525 60.6526ZM67 40.5001C67 36.7574 66.2628 33.0514 64.8306 29.5936L62.9828 30.3589C64.3146 33.5741 65 37.02 65 40.5001H67ZM64.8306 29.5936C63.3983 26.1358 61.299 22.994 58.6525 20.3475L57.2383 21.7617C59.6991 24.2225 61.6511 27.1438 62.9828 30.3589L64.8306 29.5936ZM58.6525 20.3475C56.0061 17.701 52.8643 15.6018 49.4065 14.1695L48.6411 16.0173C51.8562 17.349 54.7776 19.301 57.2383 21.7617L58.6525 20.3475ZM49.4065 14.1695C45.9487 12.7372 42.2427 12.0001 38.5 12.0001V14.0001C41.98 14.0001 45.426 14.6855 48.6411 16.0173L49.4065 14.1695Z" fill="#1A1A19" mask="url(#path-1-inside-1_77_25)"/>
<rect x="1.5" y="1.50006" width="78" height="78" rx="11.5" stroke="white" stroke-width="3"/>
<path d="M74 20.48C74 25.007 70.732 28 66.7 28H37.299C33.269 28 30 24.634 30 20.48V15.52C30 11.366 33.269 8 37.299 8H66.7C70.732 8 74 11.366 74 15.52V20.48Z" fill="#1A1A19"/>
<path d="M52 33C60.2302 33 66.902 26.2843 66.902 18C66.902 9.71573 60.2302 3 52 3C43.7699 3 37.098 9.71573 37.098 18C37.098 26.2843 43.7699 33 52 33Z" fill="#1A1A19"/>
<path d="M45 13H42.264L41.427 18.859L40.388 13.028H37.93L36.864 18.859L36.054 13.028H33.266L35.597 23H38.056L39.12 16.854L40.209 23H42.693L45 13ZM47 16H49.508V23H47V16ZM49.5 13.747C49.5067 13.9154 49.4794 14.0833 49.4196 14.2409C49.3598 14.3984 49.2688 14.5422 49.1521 14.6637C49.0354 14.7852 48.8953 14.8819 48.7403 14.9479C48.5852 15.014 48.4185 15.048 48.25 15.048C48.0815 15.048 47.9147 15.014 47.7597 14.9479C47.6047 14.8819 47.4646 14.7852 47.3479 14.6637C47.2312 14.5422 47.1402 14.3984 47.0804 14.2409C47.0206 14.0833 46.9933 13.9154 47 13.747C47 13.051 47.56 12.489 48.25 12.489C48.94 12.489 49.5 13.051 49.5 13.747ZM66.561 10H58.582C58.582 10 53 10.193 53 15.914V20.25C53 20.25 53.101 23.191 50 26H66.785C66.785 26 72 26 72 20.447V15.568C72 15.568 71.772 10 66.561 10ZM65.339 15.369H59.688V17.605H64.782V19.949H59.688V23H57V13H65.339V15.369ZM68.25 12.489C68.939 12.489 69.5 13.051 69.5 13.747C69.5 14.44 68.939 15 68.25 15C67.561 15 67 14.44 67 13.747C67 13.051 67.561 12.489 68.25 12.489ZM69.508 23H67V16H69.508V23Z" fill="white"/>
</svg>
