<svg width="81" height="81" viewBox="0 0 81 81" fill="none" xmlns="http://www.w3.org/2000/svg">
<rect x="1.5" y="1.5" width="78" height="78" rx="11.5" stroke="white" stroke-width="3"/>
<path d="M57.6133 45.3758V16.0425C57.6431 15.1896 57.3894 14.351 56.8918 13.6577C56.3942 12.9644 55.6809 12.4556 54.8633 12.2108C54.7717 12.2108 54.6158 12.2108 54.6892 12H26.2725C26.135 12.1742 25.9242 12.1558 25.75 12.2017C24.9761 12.4334 24.2944 12.9022 23.801 13.5419C23.3076 14.1816 23.0275 14.9601 23 15.7675V63.1225C23.001 63.8978 23.236 64.6548 23.6744 65.2943C24.1127 65.9338 24.7339 66.4261 25.4567 66.7067C25.6767 66.7983 25.9517 66.7892 26.1167 67H54.6617C54.714 66.9549 54.7727 66.9178 54.8358 66.89C56.7883 66.0833 57.6133 64.6258 57.6133 62.5542C57.5492 56.825 57.6133 51.105 57.6133 45.3758ZM55.6242 62.7283C55.6669 63.0425 55.6362 63.3623 55.5346 63.6627C55.433 63.9631 55.2632 64.2358 55.0386 64.4596C54.8139 64.6834 54.5405 64.8521 54.2397 64.9525C53.939 65.0529 53.619 65.0823 53.305 65.0383H27.2533C26.9353 65.0865 26.6104 65.0592 26.3048 64.9588C25.9993 64.8583 25.7216 64.6875 25.4941 64.4601C25.2667 64.2326 25.0958 63.9549 24.9954 63.6493C24.8949 63.3438 24.8677 63.0189 24.9158 62.7008V16.2992C24.8673 15.9815 24.8943 15.6568 24.9948 15.3515C25.0952 15.0462 25.2662 14.7688 25.4939 14.542C25.7216 14.3152 25.9996 14.1453 26.3053 14.046C26.611 13.9468 26.9358 13.921 27.2533 13.9708H53.305C53.6185 13.9253 53.9383 13.9532 54.2392 14.0524C54.5401 14.1517 54.8138 14.3195 55.0387 14.5426C55.2636 14.7657 55.4336 15.0381 55.5352 15.3381C55.6368 15.6382 55.6672 15.9578 55.6242 16.2717V62.7283Z" fill="white"/>
<path d="M40.1233 32.8542C41.7514 32.8684 43.3472 32.4005 44.7099 31.5096C46.0726 30.6186 47.1412 29.3443 47.7812 27.8473C48.4211 26.3502 48.6038 24.6973 48.3062 23.0966C48.0087 21.4959 47.2441 20.0191 46.1089 18.852C44.9737 17.685 43.5185 16.8799 41.9267 16.5382C40.3348 16.1965 38.6775 16.3335 37.1633 16.9318C35.6491 17.5302 34.3458 18.5631 33.4175 19.9007C32.4893 21.2382 31.9775 22.8205 31.9467 24.4483C31.9197 26.6463 32.7653 28.7653 34.2979 30.341C35.8306 31.9166 37.9255 32.8204 40.1233 32.8542ZM40.27 18.1875C41.5282 18.1878 42.7578 18.5627 43.8021 19.2646C44.8463 19.9664 45.6579 20.9634 46.1333 22.1283C46.6087 23.2932 46.7264 24.5733 46.4714 25.8054C46.2164 27.0375 45.6003 28.1657 44.7016 29.0462C43.8028 29.9267 42.6622 30.5197 41.4252 30.7494C40.1882 30.9791 38.9107 30.8352 37.7558 30.3361C36.6008 29.8369 35.6207 29.0051 34.9404 27.9467C34.2601 26.8883 33.9104 25.6513 33.9358 24.3933C33.9835 22.7446 34.6716 21.1792 35.8541 20.0292C37.0366 18.8792 38.6205 18.235 40.27 18.2333V18.1875ZM48.4467 52.0675C47.5518 52.0747 46.6956 52.4334 46.0628 53.0662C45.43 53.699 45.0714 54.5551 45.0642 55.45C45.0712 56.3168 45.4161 57.1465 46.0256 57.7629C46.635 58.3792 47.4609 58.7333 48.3275 58.75C48.7669 58.7548 49.2029 58.6731 49.6107 58.5094C50.0185 58.3457 50.39 58.1033 50.7041 57.796C51.0182 57.4887 51.2687 57.1225 51.4413 56.7185C51.6139 56.3144 51.7052 55.8802 51.71 55.4409C51.7148 55.0015 51.6331 54.5654 51.4694 54.1577C51.3057 53.7499 51.0633 53.3783 50.756 53.0642C50.4487 52.7502 50.0825 52.4997 49.6785 52.3271C49.2744 52.1545 48.8402 52.0632 48.4008 52.0584L48.4467 52.0675ZM48.4467 56.8159C48.2638 56.8172 48.0826 56.7816 47.9139 56.7111C47.7451 56.6406 47.5924 56.5367 47.4648 56.4057C47.3372 56.2747 47.2375 56.1193 47.1715 55.9488C47.1055 55.7782 47.0747 55.5961 47.0808 55.4134C47.0854 55.0499 47.2299 54.7023 47.4843 54.4427C47.7387 54.1832 48.0834 54.0318 48.4467 54.02C48.8082 54.0319 49.151 54.184 49.4024 54.444C49.6539 54.704 49.7944 55.0516 49.7942 55.4134C49.7967 55.5998 49.7616 55.7848 49.6908 55.9573C49.6201 56.1298 49.5152 56.2863 49.3825 56.4173C49.2498 56.5482 49.092 56.6511 48.9186 56.7196C48.7452 56.7881 48.5597 56.8208 48.3733 56.8159H48.4467ZM31.5067 56.825C31.2601 56.831 31.0245 56.9279 30.8451 57.0971C30.6658 57.2663 30.5553 57.4959 30.535 57.7417C30.5286 57.8742 30.5497 58.0067 30.597 58.1307C30.6442 58.2547 30.7166 58.3676 30.8096 58.4623C30.9026 58.557 31.0141 58.6314 31.1372 58.6809C31.2603 58.7304 31.3924 58.754 31.525 58.75C31.7803 58.75 32.0251 58.6486 32.2056 58.4681C32.3861 58.2876 32.4875 58.0428 32.4875 57.7875C32.4875 57.5322 32.3861 57.2874 32.2056 57.1069C32.0251 56.9264 31.7803 56.825 31.525 56.825H31.5067ZM35.6133 49.7025C35.3556 49.7025 35.1085 49.8049 34.9263 49.9871C34.7441 50.1693 34.6417 50.4165 34.6417 50.6742C34.6417 50.9319 34.7441 51.179 34.9263 51.3613C35.1085 51.5435 35.3556 51.6459 35.6133 51.6459C35.871 51.6459 36.1182 51.5435 36.3004 51.3613C36.4826 51.179 36.585 50.9319 36.585 50.6742C36.585 50.4165 36.4826 50.1693 36.3004 49.9871C36.1182 49.8049 35.871 49.7025 35.6133 49.7025ZM39.6008 56.825C39.4736 56.8309 39.3488 56.8619 39.2336 56.9164C39.1184 56.9708 39.0152 57.0476 38.9299 57.1423C38.8447 57.2369 38.779 57.3475 38.7369 57.4678C38.6947 57.588 38.6768 57.7153 38.6842 57.8425C38.6842 58.0856 38.7808 58.3188 38.9527 58.4907C39.1246 58.6626 39.3577 58.7592 39.6008 58.7592C39.7265 58.768 39.8526 58.7508 39.9714 58.7087C40.0901 58.6666 40.1989 58.6005 40.2909 58.5145C40.383 58.4285 40.4563 58.3244 40.5063 58.2088C40.5563 58.0932 40.582 57.9685 40.5817 57.8425C40.5866 57.7107 40.5649 57.5792 40.5178 57.4559C40.4707 57.3326 40.3993 57.2201 40.3077 57.1251C40.2161 57.0301 40.1063 56.9546 39.9849 56.903C39.8634 56.8515 39.7328 56.8249 39.6008 56.825ZM32.4875 50.7383C32.5002 50.4802 32.4114 50.2273 32.2401 50.0338C32.0688 49.8402 31.8286 49.7214 31.5708 49.7025C31.4461 49.6859 31.3193 49.6952 31.1982 49.7297C31.0772 49.7643 30.9646 49.8234 30.8674 49.9034C30.7703 49.9834 30.6906 50.0825 30.6334 50.1946C30.5762 50.3067 30.5427 50.4294 30.535 50.555C30.5171 50.6837 30.5254 50.8146 30.5594 50.9399C30.5935 51.0653 30.6525 51.1824 30.733 51.2843C30.8135 51.3863 30.9138 51.4708 31.0279 51.533C31.1419 51.5951 31.2674 51.6335 31.3967 51.6459C31.5284 51.661 31.6619 51.6493 31.789 51.6115C31.9162 51.5736 32.0343 51.5103 32.1363 51.4255C32.2382 51.3407 32.3219 51.236 32.3823 51.1179C32.4427 50.9998 32.4785 50.8707 32.4875 50.7383ZM31.5525 46.1642C31.4261 46.154 31.299 46.1702 31.1792 46.2117C31.0593 46.2532 30.9494 46.3191 30.8564 46.4053C30.7633 46.4915 30.6892 46.596 30.6386 46.7123C30.588 46.8285 30.5621 46.954 30.5625 47.0809C30.5455 47.2108 30.5565 47.343 30.5949 47.4683C30.6332 47.5937 30.698 47.7094 30.7849 47.8075C30.8718 47.9057 30.9787 47.9841 31.0985 48.0374C31.2183 48.0908 31.3481 48.1178 31.4792 48.1167C31.7319 48.1159 31.9754 48.0219 32.1631 47.8528C32.3508 47.6837 32.4696 47.4512 32.4967 47.2C32.5043 46.9386 32.4101 46.6845 32.234 46.4912C32.0578 46.298 31.8135 46.1807 31.5525 46.1642ZM39.6375 55.2025C39.7635 55.2028 39.8882 55.1772 40.0038 55.1271C40.1194 55.0771 40.2235 55.0038 40.3095 54.9118C40.3955 54.8197 40.4616 54.7109 40.5037 54.5922C40.5458 54.4735 40.563 54.3474 40.5542 54.2217C40.5673 54.0868 40.5521 53.9506 40.5095 53.8219C40.4669 53.6933 40.3978 53.5749 40.3067 53.4745C40.2156 53.3741 40.1046 53.2939 39.9806 53.239C39.8567 53.1841 39.7226 53.1558 39.5871 53.1558C39.4515 53.1558 39.3175 53.1841 39.1936 53.239C39.0696 53.2939 38.9585 53.3741 38.8675 53.4745C38.7764 53.5749 38.7073 53.6933 38.6647 53.8219C38.6221 53.9506 38.6069 54.0868 38.62 54.2217C38.6173 54.3544 38.642 54.4862 38.6926 54.6089C38.7433 54.7316 38.8188 54.8425 38.9143 54.9346C39.0099 55.0267 39.1234 55.098 39.2479 55.1441C39.3724 55.1903 39.505 55.2101 39.6375 55.2025ZM31.5342 53.25C31.2777 53.25 31.0317 53.3519 30.8503 53.5333C30.669 53.7146 30.5671 53.9606 30.5671 54.2171C30.5671 54.4736 30.669 54.7196 30.8503 54.9009C31.0317 55.0823 31.2777 55.1842 31.5342 55.1842C31.7907 55.1842 32.0366 55.0823 32.218 54.9009C32.3994 54.7196 32.5013 54.4736 32.5013 54.2171C32.5013 53.9606 32.3994 53.7146 32.218 53.5333C32.0366 53.3519 31.7907 53.25 31.5342 53.25ZM35.6133 56.8342C35.3546 56.8191 35.1004 56.9071 34.9063 57.0788C34.7122 57.2506 34.594 57.4922 34.5775 57.7509C34.5768 58.0012 34.671 58.2425 34.8411 58.4262C35.0112 58.6099 35.2445 58.7223 35.4942 58.7409C35.6234 58.7578 35.7547 58.747 35.8795 58.7092C36.0042 58.6713 36.1194 58.6073 36.2174 58.5214C36.3154 58.4356 36.394 58.3298 36.4479 58.2111C36.5018 58.0925 36.5298 57.9637 36.53 57.8334C36.5415 57.7062 36.5263 57.5781 36.4854 57.4572C36.4445 57.3363 36.3788 57.2252 36.2925 57.1311C36.2062 57.0371 36.1013 56.9621 35.9843 56.9109C35.8673 56.8598 35.741 56.8337 35.6133 56.8342ZM35.6133 46.1642C35.3636 46.1656 35.1235 46.2605 34.9403 46.4302C34.757 46.5999 34.644 46.832 34.6233 47.0809C34.6342 47.3417 34.7415 47.5892 34.9244 47.7755C35.1073 47.9617 35.3528 48.0735 35.6133 48.0892C35.8698 48.0892 36.1158 47.9873 36.2972 47.8059C36.4785 47.6246 36.5804 47.3786 36.5804 47.1221C36.5804 46.8656 36.4785 46.6196 36.2972 46.4383C36.1158 46.2569 35.8698 46.155 35.6133 46.155V46.1642ZM36.53 54.295C36.5451 54.0353 36.4575 53.7801 36.2859 53.5846C36.1144 53.389 35.8728 53.2688 35.6133 53.25C35.3519 53.252 35.1011 53.3536 34.912 53.5342C34.7229 53.7147 34.6098 53.9606 34.5958 54.2217C34.5999 54.4679 34.6965 54.7036 34.8663 54.8819C35.0361 55.0602 35.2668 55.1681 35.5125 55.1842C35.6388 55.1982 35.7666 55.1858 35.8879 55.1478C36.0091 55.1098 36.1211 55.047 36.2168 54.9634C36.3125 54.8797 36.3897 54.7772 36.4436 54.6621C36.4976 54.5471 36.527 54.422 36.53 54.295ZM39.6467 51.6459C39.7743 51.6464 39.9007 51.6202 40.0176 51.5691C40.1346 51.5179 40.2396 51.4429 40.3259 51.3489C40.4122 51.2548 40.4779 51.1438 40.5188 51.0229C40.5596 50.9019 40.5748 50.7738 40.5633 50.6467C40.5491 50.3905 40.4342 50.1504 40.2435 49.9786C40.0529 49.8069 39.8021 49.7175 39.5458 49.73C39.2881 49.7397 39.0449 49.8514 38.8695 50.0405C38.6942 50.2296 38.6011 50.4806 38.6108 50.7383C38.6206 50.9961 38.7323 51.2393 38.9214 51.4147C39.1105 51.59 39.3615 51.6831 39.6192 51.6733L39.6467 51.6459ZM39.5825 48.0892C39.8376 48.097 40.0858 48.006 40.2753 47.8352C40.4649 47.6644 40.5812 47.427 40.6 47.1725C40.6175 47.0389 40.607 46.9031 40.5691 46.7738C40.5313 46.6445 40.467 46.5244 40.3803 46.4213C40.2936 46.3182 40.1863 46.2342 40.0654 46.1747C39.9445 46.1152 39.8126 46.0815 39.6779 46.0758C39.5433 46.0701 39.409 46.0924 39.2834 46.1413C39.1579 46.1903 39.0439 46.2648 38.9488 46.3602C38.8536 46.4556 38.7793 46.5697 38.7306 46.6954C38.6819 46.821 38.6598 46.9554 38.6658 47.09C38.6628 47.3419 38.756 47.5855 38.9263 47.7712C39.0966 47.9568 39.3313 48.0705 39.5825 48.0892Z" fill="white"/>
<path d="M40.1234 29.4167C40.8778 29.4401 41.6272 29.2868 42.3119 28.969C42.9965 28.6511 43.5972 28.1776 44.0662 27.5861C44.5352 26.9947 44.8593 26.3018 45.0127 25.5628C45.1661 24.8237 45.1446 24.0591 44.9498 23.3298C44.755 22.6006 44.3923 21.9271 43.8908 21.363C43.3892 20.7989 42.7627 20.36 42.0613 20.0812C41.3599 19.8024 40.603 19.6916 39.8511 19.7575C39.0992 19.8234 38.3731 20.0643 37.7309 20.4608L40.2792 24.6592L38.0517 22.285C37.9025 22.1245 37.7165 22.0027 37.5096 21.9303C37.3028 21.8579 37.0814 21.8371 36.8646 21.8696C36.6479 21.9021 36.4424 21.987 36.2659 22.1169C36.0894 22.2468 35.9472 22.4178 35.8517 22.615C35.5297 23.3401 35.391 24.1333 35.4476 24.9247C35.5043 25.716 35.7546 26.4813 36.1766 27.1532C36.5985 27.8251 37.1792 28.3829 37.8674 28.7776C38.5557 29.1723 39.3304 29.3918 40.1234 29.4167ZM33.8534 37.2175H31.1034C30.8192 37.2175 30.7275 37.3183 30.7367 37.5933V40.6458C30.7367 40.875 30.7367 41.0125 31.0575 41.0033H32.8909C32.9699 41.0166 33.0509 40.998 33.1162 40.9516C33.1815 40.9052 33.2257 40.8348 33.2392 40.7558L34.1559 37.5658C34.2017 37.3275 34.1284 37.2175 33.8534 37.2175ZM37.8042 37.2175C37.4134 37.2404 37.0216 37.2404 36.6309 37.2175C36.5756 37.2055 36.5185 37.2056 36.4633 37.2176C36.4081 37.2297 36.3561 37.2535 36.3109 37.2874C36.2657 37.3213 36.2283 37.3645 36.2013 37.4142C36.1742 37.4638 36.1582 37.5186 36.1542 37.575C35.9525 38.4092 35.6959 39.225 35.4667 40.0408C35.2009 40.9575 35.2009 40.9575 36.1817 40.9575C36.325 40.9438 36.4693 40.9438 36.6125 40.9575C37.0617 41.04 37.2267 40.8292 37.3275 40.4075C37.5659 39.4908 37.8409 38.5742 38.1067 37.5842C38.18 37.355 38.1617 37.19 37.8042 37.2175ZM45.55 37.2175H40.5634C40.5152 37.2111 40.4662 37.2143 40.4192 37.2271C40.3723 37.2398 40.3283 37.2617 40.2899 37.2915C40.2515 37.3214 40.2195 37.3586 40.1956 37.401C40.1717 37.4433 40.1565 37.49 40.1509 37.5383C39.885 38.5558 39.6009 39.5642 39.3075 40.5725C39.225 40.875 39.2342 41.0217 39.6284 41.0125H44.505C44.7525 41.0125 44.9084 41.0125 44.9817 40.71C45.2567 39.6742 45.55 38.6475 45.8342 37.6208C45.9075 37.355 45.88 37.2175 45.55 37.2175ZM49.7759 37.575C49.7759 37.4375 49.7759 37.245 49.6109 37.2358H48.1075C47.9609 37.2358 47.9242 37.3642 47.8967 37.4925C47.6034 38.5558 47.3284 39.6192 46.98 40.6825C46.8884 40.985 46.98 41.0033 47.2367 41.0033H49.3267C49.675 41.0033 49.7575 40.8842 49.7484 40.5725V39.0692L49.7759 37.575Z" fill="white"/>
<path d="M50.28 34.7516H30.6084C29.9398 34.7516 29.2986 35.0172 28.8259 35.49C28.3531 35.9627 28.0875 36.6039 28.0875 37.2725V40.9391C28.0875 41.6077 28.3531 42.2489 28.8259 42.7216C29.2986 43.1944 29.9398 43.46 30.6084 43.46H50.28C50.9486 43.46 51.5898 43.1944 52.0625 42.7216C52.5353 42.2489 52.8009 41.6077 52.8009 40.9391V37.2725C52.8009 36.6039 52.5353 35.9627 52.0625 35.49C51.5898 35.0172 50.9486 34.7516 50.28 34.7516ZM51.4992 40.9575C51.4992 41.1176 51.4677 41.2761 51.4064 41.424C51.3451 41.572 51.2553 41.7064 51.1421 41.8196C51.0289 41.9328 50.8945 42.0226 50.7466 42.0838C50.5987 42.1451 50.4401 42.1766 50.28 42.1766H30.6084C30.285 42.1766 29.9749 42.0482 29.7463 41.8196C29.5176 41.5909 29.3892 41.2808 29.3892 40.9575V37.2908C29.3892 36.9675 29.5176 36.6574 29.7463 36.4287C29.9749 36.2001 30.285 36.0716 30.6084 36.0716H50.28C50.6034 36.0716 50.9135 36.2001 51.1421 36.4287C51.3707 36.6574 51.4992 36.9675 51.4992 37.2908V40.9575Z" fill="white"/>
</svg>
