<svg width="81" height="81" viewBox="0 0 81 81" fill="none" xmlns="http://www.w3.org/2000/svg">
<rect x="1.5" y="1.50006" width="78" height="78" rx="11.5" stroke="white" stroke-width="3"/>
<path d="M21.7633 44.0384H27.8133L28.2533 48.4934H23.1933C23.1117 48.4923 23.0314 48.4728 22.9583 48.4363C22.8853 48.3998 22.8215 48.3472 22.7717 48.2825C22.2427 46.9207 21.9034 45.4926 21.7633 44.0384ZM27.8225 40.1059H21.7358C21.8458 39.4459 21.9283 38.795 22.075 38.1625C22.2217 37.53 22.4967 36.6775 22.735 35.9442C22.7647 35.8757 22.81 35.8152 22.8673 35.7674C22.9246 35.7197 22.9923 35.686 23.065 35.6692H28.2533L27.8225 40.1059ZM51.335 44.0292L50.895 48.4384C50.9345 48.4443 50.9747 48.4443 51.0142 48.4384H56.0833C56.1577 48.4229 56.2273 48.3898 56.2863 48.342C56.3453 48.2942 56.392 48.2329 56.4225 48.1634C56.6425 47.5125 56.8625 46.8525 57.0183 46.1834C57.1742 45.5142 57.2933 44.735 57.4308 43.9925L51.335 44.0292ZM31.7183 40.115H37.6125V35.6875H32.195L31.7183 40.115ZM37.6033 48.4842V44.0384H31.6908C31.865 45.4409 32.0392 46.7884 32.1858 48.1634C32.1858 48.4567 32.3508 48.4934 32.5983 48.4934H37.5942L37.6033 48.4842ZM41.5358 48.4842H46.6875C46.7792 48.4842 46.9258 48.3192 46.9442 48.2092C47.0358 47.7417 47.1183 47.2925 47.1642 46.7975C47.265 45.8809 47.3383 44.9642 47.4208 44.0475H41.5358V48.4842ZM33.2125 31.7275H37.6125V24.7609C35.2475 26.5759 34.1567 29.0784 33.2125 31.7275ZM37.6033 59.365V52.4167H33.1667C34.1658 55.0659 35.2475 57.5684 37.6033 59.365ZM41.545 59.2917C43.3783 58.375 45.2117 54.9009 45.8992 52.3984H41.545V59.2917ZM24.9167 31.755H28.785C29.0875 31.755 29.1883 31.645 29.2617 31.3792C29.7426 29.6574 30.4128 27.9942 31.26 26.42C31.3006 26.3217 31.3343 26.2206 31.3608 26.1175C28.7952 27.4577 26.586 29.3903 24.9167 31.755ZM50.3725 52.4167C50.07 52.4167 49.9692 52.5175 49.8867 52.7925C49.3874 54.5251 48.6988 56.1974 47.8333 57.7792C47.8027 57.8535 47.7782 57.9301 47.76 58.0084C50.3377 56.6878 52.5628 54.7708 54.25 52.4167H50.3725ZM28.9133 52.4167H24.9167C26.5735 54.7473 28.7768 56.6358 31.3333 57.9167C30.4406 56.1949 29.7191 54.3895 29.1792 52.5267C29.1449 52.491 29.1036 52.4627 29.0578 52.4438C29.012 52.4248 28.9629 52.4156 28.9133 52.4167Z" fill="white"/>
<path d="M67.945 28.95C67.9329 25.3207 66.4865 21.8434 63.921 19.2763C61.3556 16.7091 57.8792 15.2603 54.25 15.2458C52.013 15.237 49.8086 15.7818 47.8333 16.8317C45.1145 15.9397 42.2706 15.4879 39.4091 15.4933C33.9398 15.5357 28.6173 17.2682 24.1709 20.4534C19.7245 23.6387 16.3718 28.1208 14.5721 33.2858C12.7724 38.4508 12.6137 44.0459 14.1179 49.3046C15.6221 54.5633 18.7154 59.2282 22.9742 62.6603C27.2329 66.0923 32.4487 68.1236 37.9069 68.4758C43.3651 68.828 48.7987 67.4839 53.4632 64.6277C58.1277 61.7714 61.795 57.5427 63.9625 52.521C66.13 47.4992 66.6918 41.9301 65.5708 36.5767C67.106 34.3286 67.9329 31.6723 67.945 28.95ZM57.9991 32.6167C57.8276 30.9705 57.132 29.4229 56.0148 28.2017C54.8976 26.9805 53.4178 26.1503 51.7933 25.8333C51.3166 25.7417 50.8766 25.7142 50.3633 25.6592C49.72 25.685 49.081 25.7772 48.4566 25.9342C48.354 25.9717 48.2447 25.9873 48.1357 25.9798C48.0266 25.9724 47.9204 25.9421 47.8239 25.8909C47.7273 25.8397 47.6426 25.7688 47.5753 25.6828C47.5079 25.5967 47.4594 25.4975 47.4329 25.3915C47.4064 25.2854 47.4025 25.175 47.4214 25.0674C47.4404 24.9598 47.4817 24.8574 47.5428 24.7668C47.6039 24.6762 47.6834 24.5995 47.7761 24.5416C47.8688 24.4837 47.9726 24.446 48.0808 24.4308C49.3508 24.1165 50.6729 24.074 51.9604 24.3062C53.2479 24.5384 54.4718 25.0401 55.552 25.7784C56.6321 26.5166 57.544 27.4748 58.228 28.5901C58.9119 29.7053 59.3525 30.9526 59.5208 32.25C59.6558 33.3012 59.6093 34.3678 59.3833 35.4033C59.3666 35.5069 59.3296 35.6062 59.2745 35.6955C59.2193 35.7848 59.1471 35.8623 59.062 35.9236C58.9768 35.9849 58.8804 36.0288 58.7782 36.0528C58.6761 36.0768 58.5702 36.0803 58.4666 36.0633C58.3607 36.042 58.2603 35.9992 58.1716 35.9374C58.0829 35.8756 58.0078 35.7963 57.9511 35.7043C57.8944 35.6123 57.8571 35.5097 57.8418 35.4027C57.8264 35.2957 57.8331 35.1867 57.8616 35.0825C58.0366 34.2822 58.083 33.4591 57.9991 32.6442V32.6167ZM47.9158 27.6667C48.847 27.2614 49.8653 27.0975 50.8766 27.19C51.8206 27.2721 52.7333 27.5689 53.545 28.0578C54.3567 28.5468 55.0458 29.2148 55.5597 30.0109C56.0737 30.8069 56.3987 31.71 56.5101 32.651C56.6215 33.5919 56.5163 34.5459 56.2025 35.44C56.1796 35.5475 56.1342 35.6489 56.0693 35.7376C56.0044 35.8263 55.9215 35.9003 55.826 35.9547C55.7305 36.0091 55.6246 36.0426 55.5152 36.0532C55.4058 36.0637 55.2954 36.051 55.1913 36.0159C55.0871 35.9807 54.9916 35.9239 54.911 35.8493C54.8304 35.7746 54.7664 35.6837 54.7234 35.5826C54.6804 35.4814 54.6593 35.3723 54.6614 35.2624C54.6635 35.1526 54.6889 35.0444 54.7358 34.945C55.0385 34.0947 55.0925 33.1758 54.8916 32.2958C54.68 31.3849 54.1984 30.559 53.5099 29.9261C52.8214 29.2932 51.958 28.8827 51.0325 28.7483C50.8033 28.7483 50.5741 28.7483 50.4458 28.6933C49.7827 28.6904 49.1254 28.8181 48.5116 29.0692C48.3895 29.1257 48.2548 29.1492 48.1208 29.1374C47.9867 29.1256 47.8582 29.0789 47.7478 29.0019C47.6375 28.9249 47.5492 28.8204 47.4918 28.6987C47.4345 28.577 47.41 28.4424 47.4208 28.3083C47.4323 28.1649 47.4852 28.0279 47.573 27.914C47.6609 27.8001 47.78 27.7142 47.9158 27.6667ZM49.7491 31.04C50.2294 31.0275 50.7025 31.1576 51.1087 31.414C51.515 31.6703 51.8361 32.0414 52.0315 32.4802C52.227 32.919 52.2879 33.4059 52.2066 33.8794C52.1253 34.3528 51.9055 34.7915 51.5749 35.1401C51.2443 35.4886 50.8178 35.7313 50.3493 35.8374C49.8808 35.9436 49.3914 35.9085 48.9428 35.7365C48.4943 35.5645 48.1068 35.2634 47.8294 34.8713C47.5519 34.4791 47.397 34.0135 47.3841 33.5333C47.3793 33.2119 47.4378 32.8927 47.5563 32.5939C47.6749 32.2951 47.8511 32.0226 48.075 31.7919C48.2989 31.5612 48.566 31.3769 48.8611 31.2494C49.1562 31.122 49.4736 31.0539 49.795 31.0492L49.7491 31.04ZM39.5833 63.8933C36.7171 63.8855 33.8805 63.3132 31.2355 62.2091C28.5904 61.1051 26.1888 59.4908 24.1676 57.4586C20.0856 53.3543 17.8013 47.7965 17.8171 42.0079C17.8329 36.2193 20.1475 30.6741 24.2518 26.5922C28.3561 22.5102 33.9139 20.2259 39.7025 20.2417C40.9472 20.2433 42.1895 20.3537 43.415 20.5717C41.7599 22.7 40.7736 25.2716 40.5811 27.9608C40.3885 30.65 40.9983 33.3359 42.3333 35.6783H41.5725V40.0967H46.3116C48.4903 41.6588 51.0814 42.5434 53.7605 42.6396C56.4395 42.7358 59.0874 42.0394 61.3725 40.6375C61.3725 41.1233 61.4275 41.6 61.4275 42.095C61.4081 47.8782 59.099 53.4184 55.0053 57.5035C50.9116 61.5886 45.3666 63.8861 39.5833 63.8933ZM62.3441 35.3483C62.3333 35.4554 62.3003 35.5591 62.2474 35.6529C62.1944 35.7466 62.1226 35.8284 62.0365 35.893C61.9503 35.9575 61.8518 36.0036 61.7469 36.0282C61.6421 36.0528 61.5334 36.0554 61.4275 36.0358C61.3222 36.0228 61.2208 35.9881 61.1296 35.9341C61.0384 35.88 60.9593 35.8077 60.8973 35.7216C60.8354 35.6355 60.7919 35.5376 60.7695 35.4339C60.7472 35.3303 60.7465 35.2231 60.7675 35.1192C60.9159 34.0886 60.9159 33.0422 60.7675 32.0117C60.5506 30.0905 59.8014 28.2681 58.6041 26.75C57.2307 25.033 55.3563 23.7866 53.2416 23.1842C52.3017 22.9201 51.3304 22.7845 50.3541 22.7808C49.6941 22.8542 49.025 22.9275 48.3741 23.0283C48.1709 23.059 47.9636 23.0118 47.7937 22.8963C47.6237 22.7807 47.5037 22.6053 47.4575 22.405C47.4376 22.3038 47.4379 22.1997 47.4586 22.0987C47.4792 21.9977 47.5197 21.9017 47.5777 21.8165C47.6357 21.7312 47.71 21.6583 47.7964 21.602C47.8827 21.5456 47.9794 21.507 48.0808 21.4883C50.5608 21.0154 53.1268 21.3361 55.4141 22.405C56.5798 22.9369 57.6511 23.6552 58.5858 24.5317C60.0635 25.8886 61.18 27.5922 61.8345 29.4886C62.4891 31.3851 62.6611 33.4146 62.335 35.3942L62.3441 35.3483Z" fill="white"/>
</svg>
