<svg width="81" height="81" viewBox="0 0 81 81" fill="none" xmlns="http://www.w3.org/2000/svg">
<rect x="1.5" y="1.49988" width="78" height="78" rx="11.5" stroke="white" stroke-width="3"/>
<path fill-rule="evenodd" clip-rule="evenodd" d="M20.4341 20.3333C19.988 20.3333 19.5501 20.2248 19.1574 20.019L16.63 22.8908V33.2308L19.7308 35.8895L25.4758 32.2535V29.335L24.551 27.8087C24.3302 27.878 24.0982 27.9142 23.8625 27.9142C23.4074 27.9142 22.9626 27.7792 22.5842 27.5264C22.2058 27.2736 21.9109 26.9142 21.7368 26.4938C21.5626 26.0734 21.5171 25.6108 21.6059 25.1645C21.6946 24.7181 21.9138 24.3082 22.2355 23.9864C22.5573 23.6646 22.9673 23.4455 23.4136 23.3567C23.8599 23.2679 24.3225 23.3135 24.743 23.4876C25.1634 23.6618 25.5227 23.9567 25.7755 24.335C26.0284 24.7134 26.1633 25.1583 26.1633 25.6133C26.1633 26.1542 25.9729 26.6755 25.6291 27.0874L26.7775 28.9775V31.4296L31.7183 28.3025V20.0352C31.4073 19.9594 31.1103 19.8296 30.8413 19.6499C30.3891 19.3477 30.0366 18.9182 29.8285 18.4157C29.6203 17.9132 29.5659 17.3603 29.672 16.8268C29.7781 16.2934 30.04 15.8034 30.4246 15.4188C30.8092 15.0342 31.2992 14.7723 31.8326 14.6662C32.3661 14.5601 32.919 14.6145 33.4215 14.8227C33.924 15.0308 34.3535 15.3833 34.6557 15.8355C34.9579 16.2877 35.1191 16.8194 35.1191 17.3633C35.1191 18.0927 34.8294 18.7921 34.3137 19.3079C33.9543 19.6672 33.5057 19.9169 33.02 20.0352V27.4787L38.9509 23.7249C39.1665 23.5642 39.4131 23.4497 39.6751 23.3887C39.9372 23.3277 40.2089 23.3216 40.4735 23.3706C40.738 23.4196 40.9895 23.5227 41.2123 23.6735C41.3712 23.7811 41.5131 23.9113 41.6336 24.0597L44.4783 25.6375V20.4892L48.1222 17.7076C48.0149 17.551 47.9235 17.3829 47.8501 17.2057C47.642 16.7032 47.5875 16.1503 47.6937 15.6168C47.7998 15.0834 48.0617 14.5934 48.4463 14.2088C48.8309 13.8242 49.3209 13.5623 49.8543 13.4562C50.3878 13.3501 50.9407 13.4045 51.4432 13.6127C51.9457 13.8208 52.3752 14.1733 52.6774 14.6255C52.9795 15.0777 53.1408 15.6094 53.1408 16.1533C53.1408 16.8827 52.8511 17.5821 52.3354 18.0979C51.8196 18.6136 51.1202 18.9033 50.3908 18.9033C49.9422 18.9033 49.5019 18.7936 49.1076 18.5856L45.7708 21.1309V26.3543L53.92 30.874V25.5194C53.6984 25.454 53.4867 25.3553 53.2925 25.2256C52.9142 24.9727 52.6193 24.6134 52.4451 24.193C52.271 23.7726 52.2254 23.3099 52.3142 22.8636C52.403 22.4173 52.6221 22.0073 52.9439 21.6856C53.2657 21.3638 53.6756 21.1446 54.1219 21.0559C54.5683 20.9671 55.0309 21.0127 55.4513 21.1868C55.8717 21.3609 56.2311 21.6558 56.4839 22.0342C56.7367 22.4126 56.8716 22.8574 56.8716 23.3125C56.8716 23.9227 56.6292 24.5079 56.1977 24.9394C55.9235 25.2137 55.5871 25.4116 55.2217 25.5194V31.5959L59.6757 34.0662L62.0192 31.1047V27.5734C61.7296 27.4961 61.4532 27.3715 61.2013 27.2032C60.7491 26.901 60.3966 26.4715 60.1885 25.969C59.9803 25.4665 59.9259 24.9136 60.032 24.3802C60.1381 23.8467 60.4 23.3567 60.7846 22.9721C61.1692 22.5875 61.6592 22.3256 62.1926 22.2195C62.7261 22.1134 63.279 22.1678 63.7815 22.376C64.284 22.5841 64.7135 22.9366 65.0157 23.3888C65.3179 23.8411 65.4791 24.3728 65.4791 24.9167C65.4791 25.646 65.1894 26.3455 64.6737 26.8612C64.329 27.2059 63.9021 27.4497 63.4392 27.5734V31.3517V31.5986L63.2859 31.7922L60.9342 34.7641L65.855 37.4933C66.2346 37.7003 66.5347 38.0274 66.7084 38.4233C66.882 38.8193 66.9194 39.2616 66.8145 39.6811C66.7096 40.1005 66.4685 40.4733 66.129 40.741C65.7894 41.0086 65.3706 41.156 64.9383 41.16L64.9016 41.1508C64.5803 41.1454 64.2654 41.0603 63.985 40.9033L40.0493 27.6379L17.1342 42.15C16.8244 42.3465 16.4653 42.4514 16.0984 42.4525C15.6752 42.4527 15.2635 42.3155 14.9251 42.0614C14.5867 41.8074 14.34 41.4503 14.2221 41.0439C14.1042 40.6375 14.1215 40.2038 14.2714 39.8081C14.4214 39.4125 14.6958 39.0762 15.0534 38.85L18.5781 36.6191L15.3283 33.8266V22.405L18.1788 19.1569C18.0657 18.9948 17.9699 18.8202 17.8935 18.6357C17.6853 18.1332 17.6309 17.5803 17.737 17.0468C17.8431 16.5134 18.105 16.0234 18.4896 15.6388C18.8742 15.2542 19.3642 14.9923 19.8976 14.8862C20.4311 14.7801 20.984 14.8345 21.4865 15.0427C21.989 15.2508 22.4185 15.6033 22.7207 16.0555C23.0229 16.5077 23.1841 17.0394 23.1841 17.5833C23.1841 18.3127 22.8944 19.0121 22.3787 19.5279C21.863 20.0436 21.1635 20.3333 20.4341 20.3333ZM20.4341 16.1533C20.1491 16.1533 19.8705 16.238 19.6336 16.3965C19.3968 16.5551 19.2123 16.7804 19.1037 17.0439C18.995 17.3074 18.9671 17.5972 19.0233 17.8766C19.0796 18.1561 19.2176 18.4125 19.4198 18.6134C19.622 18.8143 19.8793 18.9506 20.159 19.0051C20.4388 19.0596 20.7285 19.0298 20.9913 18.9195C21.2541 18.8091 21.4782 18.6232 21.6352 18.3854C21.7923 18.1475 21.8751 17.8683 21.8733 17.5833C21.8685 17.2048 21.7147 16.8435 21.4454 16.5775C21.176 16.3116 20.8127 16.1625 20.4341 16.1625V16.1533ZM32.3691 15.9333C32.0845 15.9333 31.8063 16.0177 31.5696 16.1759C31.3329 16.334 31.1485 16.5588 31.0395 16.8217C30.9306 17.0847 30.9021 17.3741 30.9576 17.6533C31.0132 17.9324 31.1502 18.1889 31.3515 18.3901C31.5528 18.5914 31.8092 18.7285 32.0884 18.784C32.3675 18.8395 32.6569 18.811 32.9199 18.7021C33.1829 18.5932 33.4076 18.4087 33.5658 18.172C33.7239 17.9354 33.8083 17.6571 33.8083 17.3725C33.8083 16.9908 33.6567 16.6247 33.3868 16.3548C33.1169 16.0849 32.7508 15.9333 32.3691 15.9333ZM62.7291 23.4867C62.4441 23.4867 62.1655 23.5713 61.9286 23.7298C61.6918 23.8884 61.5073 24.1137 61.3987 24.3772C61.29 24.6407 61.2621 24.9306 61.3183 25.21C61.3746 25.4894 61.5126 25.7458 61.7148 25.9467C61.917 26.1476 62.1743 26.284 62.454 26.3384C62.7338 26.3929 63.0235 26.3631 63.2863 26.2528C63.5491 26.1425 63.7732 25.9566 63.9302 25.7187C64.0873 25.4808 64.1701 25.2017 64.1683 24.9167C64.1611 24.5398 64.0063 24.1807 63.7372 23.9167C63.4681 23.6528 63.1061 23.5049 62.7291 23.505V23.4867ZM50.3908 14.7233C50.1062 14.7233 49.8279 14.8077 49.5913 14.9659C49.3546 15.124 49.1701 15.3488 49.0612 15.6117C48.9523 15.8747 48.9238 16.1641 48.9793 16.4433C49.0348 16.7224 49.1719 16.9789 49.3732 17.1801C49.5744 17.3814 49.8309 17.5185 50.11 17.574C50.3892 17.6295 50.6786 17.601 50.9416 17.4921C51.2045 17.3832 51.4293 17.1987 51.5874 16.962C51.7456 16.7254 51.83 16.4471 51.83 16.1625C51.83 15.7808 51.6784 15.4147 51.4085 15.1448C51.1386 14.8749 50.7725 14.7233 50.3908 14.7233ZM23.8625 24.6142C23.6649 24.6142 23.4717 24.6728 23.3074 24.7825C23.1431 24.8923 23.015 25.0484 22.9394 25.231C22.8637 25.4135 22.844 25.6144 22.8825 25.8082C22.9211 26.0021 23.0162 26.1801 23.156 26.3198C23.2957 26.4596 23.4737 26.5547 23.6676 26.5933C23.8614 26.6318 24.0623 26.6121 24.2448 26.5364C24.4274 26.4608 24.5835 26.3327 24.6933 26.1684C24.803 26.0041 24.8616 25.8109 24.8616 25.6133C24.8616 25.3483 24.7564 25.0942 24.569 24.9068C24.3816 24.7194 24.1275 24.6142 23.8625 24.6142ZM54.5708 22.3133C54.3732 22.3133 54.18 22.3719 54.0157 22.4817C53.8514 22.5915 53.7233 22.7476 53.6477 22.9301C53.5721 23.1127 53.5523 23.3136 53.5908 23.5074C53.6294 23.7012 53.7246 23.8793 53.8643 24.019C54.004 24.1587 54.1821 24.2539 54.3759 24.2925C54.5697 24.331 54.7706 24.3112 54.9532 24.2356C55.1357 24.16 55.2918 24.0319 55.4016 23.8676C55.5114 23.7033 55.57 23.5101 55.57 23.3125C55.57 23.0475 55.4647 22.7934 55.2773 22.606C55.09 22.4186 54.8358 22.3133 54.5708 22.3133ZM45.4041 58.6225H35.935V65.1674H29.6742C29.0428 65.1773 28.433 64.9371 27.978 64.4992C27.5229 64.0613 27.2595 63.4613 27.245 62.8299V41.4716C27.2595 40.8403 27.5229 40.2402 27.978 39.8024C28.433 39.3645 29.0428 39.1243 29.6742 39.1341H51.9125C52.544 39.1243 53.1537 39.3645 53.6087 39.8024C54.0638 40.2402 54.3273 40.8403 54.3417 41.4716V62.8299C54.3273 63.4613 54.0638 64.0613 53.6087 64.4992C53.1537 64.9371 52.544 65.1773 51.9125 65.1674H45.4041V58.6225ZM29.6742 68H51.9125C53.3123 68.027 54.6656 67.498 55.676 66.5289C56.6863 65.5597 57.2713 64.2296 57.3025 62.8299V41.4716C57.2736 40.0704 56.6898 38.7379 55.6792 37.7668C54.6685 36.7957 53.3138 36.2654 51.9125 36.2924H29.6742C28.2729 36.2654 26.9182 36.7957 25.9076 37.7668C24.897 38.7379 24.3131 40.0704 24.2842 41.4716V62.8208C24.3131 64.222 24.897 65.5545 25.9076 66.5256C26.9182 67.4967 28.2729 68.027 29.6742 68ZM50.6658 45.8991C47.8318 43.3431 44.1421 41.9431 40.3258 41.9758C40.2436 41.984 40.1493 41.9925 40.0453 42.0019L40.0452 42.0019C39.5693 42.0449 38.8902 42.1062 38.2358 42.2416C35.4219 42.7164 32.8035 43.9891 30.6917 45.9083C30.6037 45.9738 30.5307 46.0574 30.4776 46.1534C30.4245 46.2494 30.3926 46.3556 30.3839 46.465C30.3752 46.5744 30.39 46.6843 30.4273 46.7875C30.4645 46.8907 30.5234 46.9847 30.6 47.0633C30.6678 47.1556 30.755 47.2321 30.8554 47.2873C30.9557 47.3425 31.067 47.3752 31.1813 47.383C31.2956 47.3909 31.4102 47.3737 31.5172 47.3327C31.6242 47.2918 31.721 47.228 31.8008 47.1458C31.8491 47.1044 31.897 47.063 31.9448 47.0218C32.1512 46.8437 32.355 46.6679 32.5708 46.5041C34.1047 45.276 35.8988 44.4146 37.8164 43.9857C39.7339 43.5567 41.7241 43.5716 43.635 44.0291C45.8389 44.5429 47.8745 45.6127 49.5475 47.1366C49.6274 47.2238 49.7258 47.2918 49.8356 47.3358C49.9453 47.3797 50.0635 47.3984 50.1815 47.3905C50.2994 47.3826 50.4141 47.3482 50.517 47.29C50.6199 47.2318 50.7083 47.1512 50.7758 47.0541C50.8514 46.9743 50.909 46.8793 50.9448 46.7753C50.9806 46.6714 50.9937 46.561 50.9833 46.4516C50.9729 46.3422 50.9392 46.2363 50.8844 46.141C50.8296 46.0457 50.7551 45.9632 50.6658 45.8991ZM40.0783 47.7234C38.0803 47.8441 36.1843 48.6465 34.7066 49.9967C34.6143 50.0992 34.4986 50.1777 34.3692 50.2256C34.2399 50.2735 34.1009 50.2893 33.9641 50.2717C33.8181 50.2504 33.6814 50.187 33.5707 50.0894C33.46 49.9917 33.3802 49.864 33.3408 49.7217C33.294 49.5812 33.2908 49.4298 33.3317 49.2874C33.3727 49.1451 33.4557 49.0184 33.57 48.9242C34.6244 47.931 35.8728 47.1664 37.2366 46.6784C38.944 46.0455 40.7915 45.8895 42.5808 46.227C44.3701 46.5645 46.0338 47.3829 47.3933 48.5942L47.76 48.915C47.8378 48.9809 47.9017 49.0617 47.9477 49.1528C47.9937 49.2438 48.0209 49.3431 48.0278 49.4449C48.0346 49.5467 48.0209 49.6488 47.9875 49.7451C47.9541 49.8415 47.9017 49.9302 47.8333 50.0059C47.7668 50.0865 47.6842 50.1523 47.5908 50.1992C47.4974 50.246 47.3952 50.2729 47.2909 50.2781C47.1865 50.2833 47.0822 50.2666 46.9846 50.2292C46.887 50.1918 46.7983 50.1345 46.7241 50.0609C46.0055 49.4319 45.1996 48.9101 44.3316 48.5117C42.9913 47.9321 41.5374 47.6626 40.0783 47.7234ZM44.8083 51.6375C43.6485 50.6796 42.1966 50.1461 40.6925 50.125C39.167 50.1266 37.6895 50.658 36.5125 51.6283C36.4167 51.6826 36.3335 51.7566 36.2684 51.8453C36.2032 51.9341 36.1577 52.0357 36.1347 52.1433C36.1116 52.251 36.1117 52.3623 36.1348 52.47C36.158 52.5776 36.2036 52.6791 36.2689 52.7678C36.3341 52.8565 36.4174 52.9304 36.5132 52.9846C36.6091 53.0387 36.7153 53.072 36.8249 53.0821C36.9346 53.0922 37.0451 53.079 37.1492 53.0433C37.2534 53.0076 37.3488 52.9502 37.4291 52.875L37.8325 52.6C38.8819 51.8871 40.164 51.6019 41.4167 51.8025C42.3115 51.9519 43.1554 52.3204 43.8733 52.875C43.9545 52.9403 44.0481 52.9883 44.1485 53.0159C44.249 53.0435 44.354 53.0502 44.4571 53.0356C44.5602 53.021 44.6593 52.9854 44.7481 52.931C44.8368 52.8765 44.9135 52.8044 44.9733 52.7192C45.034 52.6375 45.0779 52.5446 45.1024 52.4459C45.127 52.3471 45.1317 52.2445 45.1164 52.1439C45.101 52.0433 45.0659 51.9468 45.013 51.8599C44.9601 51.773 44.8906 51.6974 44.8083 51.6375ZM41.9502 56.4231C42.1205 56.171 42.2123 55.8742 42.2142 55.57C42.2166 55.3667 42.1785 55.1649 42.1021 54.9764C42.0257 54.788 41.9125 54.6166 41.7691 54.4724C41.6257 54.3282 41.4551 54.214 41.2671 54.1364C41.0791 54.0589 40.8775 54.0196 40.6742 54.0208C40.37 54.0208 40.0726 54.1109 39.8195 54.2797C39.5665 54.4486 39.3691 54.6885 39.2523 54.9694C39.1355 55.2503 39.1044 55.5594 39.1631 55.8579C39.2218 56.1564 39.3676 56.4308 39.582 56.6465C39.7965 56.8623 40.07 57.0097 40.3681 57.0701C40.6663 57.1306 40.9756 57.1014 41.2572 56.9862C41.5387 56.8711 41.7799 56.6751 41.9502 56.4231Z" fill="white"/>
</svg>
