<svg width="51" height="51" viewBox="0 0 51 51" fill="none" xmlns="http://www.w3.org/2000/svg">
<path d="M24.8273 24.75C24.8273 23.6458 24.4356 22.7031 23.6522 21.9219C22.8687 21.1406 21.9234 20.75 20.8162 20.75C19.7089 20.75 18.7636 21.1406 17.9802 21.9219C17.1967 22.7031 16.805 23.6458 16.805 24.75C16.805 25.8542 17.1967 26.7969 17.9802 27.5781C18.7636 28.3594 19.7089 28.75 20.8162 28.75C21.9234 28.75 22.8687 28.3594 23.6522 27.5781C24.4356 26.7969 24.8273 25.8542 24.8273 24.75ZM36.8607 32.75C36.8607 32.2083 36.6623 31.7396 36.2653 31.3438C35.8684 30.9479 35.3983 30.75 34.8552 30.75C34.312 30.75 33.8419 30.9479 33.445 31.3438C33.048 31.7396 32.8496 32.2083 32.8496 32.75C32.8496 33.3021 33.0454 33.7734 33.4371 34.1641C33.8289 34.5547 34.3015 34.75 34.8552 34.75C35.4088 34.75 35.8814 34.5547 36.2732 34.1641C36.6649 33.7734 36.8607 33.3021 36.8607 32.75ZM36.8607 16.75C36.8607 16.2083 36.6623 15.7396 36.2653 15.3438C35.8684 14.9479 35.3983 14.75 34.8552 14.75C34.312 14.75 33.8419 14.9479 33.445 15.3438C33.048 15.7396 32.8496 16.2083 32.8496 16.75C32.8496 17.3021 33.0454 17.7734 33.4371 18.1641C33.8289 18.5547 34.3015 18.75 34.8552 18.75C35.4088 18.75 35.8814 18.5547 36.2732 18.1641C36.6649 17.7734 36.8607 17.3021 36.8607 16.75ZM30.844 23.3281V26.2188C30.844 26.3229 30.8074 26.4245 30.7343 26.5234C30.6612 26.6224 30.5776 26.6771 30.4836 26.6875L28.055 27.0625C27.9401 27.4271 27.773 27.8229 27.5536 28.25C27.9088 28.75 28.3788 29.349 28.9638 30.0469C29.0369 30.1615 29.0735 30.2656 29.0735 30.3594C29.0735 30.4844 29.0369 30.5833 28.9638 30.6562C28.7235 30.9688 28.2927 31.4349 27.6711 32.0547C27.0496 32.6745 26.6396 32.9844 26.4412 32.9844C26.3263 32.9844 26.2166 32.9479 26.1121 32.875L24.3102 31.4688C23.9237 31.6667 23.5216 31.8281 23.1038 31.9531C22.9889 33.0781 22.8687 33.8854 22.7434 34.375C22.6703 34.625 22.5136 34.75 22.2733 34.75H19.359C19.2441 34.75 19.1396 34.7109 19.0456 34.6328C18.9516 34.5547 18.8994 34.4635 18.8889 34.3594L18.5285 31.9688C18.1734 31.8646 17.7817 31.7031 17.3534 31.4844L15.5045 32.875C15.4314 32.9479 15.3269 32.9844 15.1912 32.9844C15.0763 32.9844 14.9666 32.9427 14.8621 32.8594C13.3579 31.474 12.6058 30.6406 12.6058 30.3594C12.6058 30.2656 12.6424 30.1667 12.7155 30.0625C12.82 29.9167 13.0341 29.6406 13.3579 29.2344C13.6818 28.8281 13.9272 28.5104 14.0944 28.2812C13.8541 27.8229 13.6713 27.3958 13.546 27L11.1643 26.625C11.0599 26.6146 10.9711 26.5651 10.898 26.4766C10.8249 26.388 10.7883 26.2865 10.7883 26.1719V23.2812C10.7883 23.1771 10.8249 23.0755 10.898 22.9766C10.9711 22.8776 11.0547 22.8229 11.1487 22.8125L13.5773 22.4375C13.6922 22.0729 13.8593 21.6771 14.0787 21.25C13.7235 20.75 13.2535 20.151 12.6685 19.4531C12.5954 19.3385 12.5588 19.2344 12.5588 19.1406C12.5588 19.0156 12.5954 18.9115 12.6685 18.8281C12.8983 18.5156 13.3266 18.0521 13.9533 17.4375C14.5801 16.8229 14.9927 16.5156 15.1912 16.5156C15.3061 16.5156 15.4157 16.5521 15.5202 16.625L17.3221 18.0312C17.6772 17.8438 18.0794 17.6771 18.5285 17.5312C18.6435 16.4062 18.7636 15.6042 18.8889 15.125C18.962 14.875 19.1187 14.75 19.359 14.75H22.2733C22.3882 14.75 22.4927 14.7891 22.5867 14.8672C22.6807 14.9453 22.7329 15.0365 22.7434 15.1406L23.1038 17.5312C23.4589 17.6354 23.8506 17.7969 24.2789 18.0156L26.1278 16.625C26.2113 16.5521 26.3158 16.5156 26.4412 16.5156C26.5561 16.5156 26.6657 16.5573 26.7702 16.6406C28.2744 18.026 29.0265 18.8594 29.0265 19.1406C29.0265 19.224 28.9899 19.3229 28.9168 19.4375C28.7914 19.6042 28.5721 19.8854 28.2587 20.2812C27.9453 20.6771 27.7103 20.9896 27.5536 21.2188C27.7939 21.7188 27.9714 22.1458 28.0863 22.5L30.468 22.8594C30.5724 22.8802 30.6612 22.9349 30.7343 23.0234C30.8074 23.112 30.844 23.2135 30.844 23.3281ZM40.8719 31.6562V33.8438C40.8719 34.0104 40.0937 34.1719 38.5373 34.3281C38.4119 34.6094 38.2552 34.8802 38.0672 35.1406C38.5999 36.3177 38.8663 37.0365 38.8663 37.2969C38.8663 37.3385 38.8454 37.375 38.8036 37.4062C37.5292 38.1458 36.8816 38.5156 36.8607 38.5156C36.7772 38.5156 36.5369 38.2708 36.14 37.7812C35.743 37.2917 35.4714 36.9375 35.3252 36.7188C35.1163 36.7396 34.9596 36.75 34.8552 36.75C34.7507 36.75 34.594 36.7396 34.3851 36.7188C34.2389 36.9375 33.9673 37.2917 33.5703 37.7812C33.1734 38.2708 32.9331 38.5156 32.8496 38.5156C32.8287 38.5156 32.1811 38.1458 30.9067 37.4062C30.8649 37.375 30.844 37.3385 30.844 37.2969C30.844 37.0365 31.1104 36.3177 31.6431 35.1406C31.4551 34.8802 31.2984 34.6094 31.173 34.3281C29.6166 34.1719 28.8384 34.0104 28.8384 33.8438V31.6562C28.8384 31.4896 29.6166 31.3281 31.173 31.1719C31.3088 30.8698 31.4655 30.599 31.6431 30.3594C31.1104 29.1823 30.844 28.4635 30.844 28.2031C30.844 28.1615 30.8649 28.125 30.9067 28.0938C30.9485 28.0729 31.1313 27.9688 31.4551 27.7812C31.7789 27.5938 32.087 27.4167 32.3795 27.25C32.672 27.0833 32.8287 27 32.8496 27C32.9331 27 33.1734 27.2422 33.5703 27.7266C33.9673 28.2109 34.2389 28.5625 34.3851 28.7812C34.594 28.7604 34.7507 28.75 34.8552 28.75C34.9596 28.75 35.1163 28.7604 35.3252 28.7812C35.8579 28.0417 36.3384 27.4583 36.7667 27.0312L36.8607 27C36.9025 27 37.5501 27.3646 38.8036 28.0938C38.8454 28.125 38.8663 28.1615 38.8663 28.2031C38.8663 28.4635 38.5999 29.1823 38.0672 30.3594C38.2448 30.599 38.4015 30.8698 38.5373 31.1719C40.0937 31.3281 40.8719 31.4896 40.8719 31.6562ZM40.8719 15.6562V17.8438C40.8719 18.0104 40.0937 18.1719 38.5373 18.3281C38.4119 18.6094 38.2552 18.8802 38.0672 19.1406C38.5999 20.3177 38.8663 21.0365 38.8663 21.2969C38.8663 21.3385 38.8454 21.375 38.8036 21.4062C37.5292 22.1458 36.8816 22.5156 36.8607 22.5156C36.7772 22.5156 36.5369 22.2708 36.14 21.7812C35.743 21.2917 35.4714 20.9375 35.3252 20.7188C35.1163 20.7396 34.9596 20.75 34.8552 20.75C34.7507 20.75 34.594 20.7396 34.3851 20.7188C34.2389 20.9375 33.9673 21.2917 33.5703 21.7812C33.1734 22.2708 32.9331 22.5156 32.8496 22.5156C32.8287 22.5156 32.1811 22.1458 30.9067 21.4062C30.8649 21.375 30.844 21.3385 30.844 21.2969C30.844 21.0365 31.1104 20.3177 31.6431 19.1406C31.4551 18.8802 31.2984 18.6094 31.173 18.3281C29.6166 18.1719 28.8384 18.0104 28.8384 17.8438V15.6562C28.8384 15.4896 29.6166 15.3281 31.173 15.1719C31.3088 14.8698 31.4655 14.599 31.6431 14.3594C31.1104 13.1823 30.844 12.4635 30.844 12.2031C30.844 12.1615 30.8649 12.125 30.9067 12.0938C30.9485 12.0729 31.1313 11.9688 31.4551 11.7812C31.7789 11.5938 32.087 11.4167 32.3795 11.25C32.672 11.0833 32.8287 11 32.8496 11C32.9331 11 33.1734 11.2422 33.5703 11.7266C33.9673 12.2109 34.2389 12.5625 34.3851 12.7812C34.594 12.7604 34.7507 12.75 34.8552 12.75C34.9596 12.75 35.1163 12.7604 35.3252 12.7812C35.8579 12.0417 36.3384 11.4583 36.7667 11.0312L36.8607 11C36.9025 11 37.5501 11.3646 38.8036 12.0938C38.8454 12.125 38.8663 12.1615 38.8663 12.2031C38.8663 12.4635 38.5999 13.1823 38.0672 14.3594C38.2448 14.599 38.4015 14.8698 38.5373 15.1719C40.0937 15.3281 40.8719 15.4896 40.8719 15.6562Z" fill="#6CC852"/>
<rect x="1" y="1" width="49" height="49" rx="11" stroke="#6CC852" stroke-width="2"/>
</svg>
