<svg width="82" height="85" viewBox="0 0 82 85" fill="none" xmlns="http://www.w3.org/2000/svg">
<rect x="1.5" y="4.49988" width="78" height="78" rx="11.5" stroke="white" stroke-width="3"/>
<path d="M43.9647 48.1885V58.0232C43.9645 58.2205 44.0032 58.416 44.0786 58.5983C44.154 58.7807 44.2646 58.9465 44.404 59.0861C44.5435 59.2257 44.7091 59.3364 44.8914 59.412C45.0737 59.4876 45.2692 59.5265 45.4665 59.5265H52.2557C52.4532 59.5266 52.6488 59.4879 52.8312 59.4124C53.0137 59.3369 53.1795 59.2262 53.3191 59.0866C53.4588 58.947 53.5695 58.7812 53.645 58.5987C53.7204 58.4162 53.7592 58.2206 53.759 58.0232V45.7623H55.7288C56.1915 45.7621 56.6431 45.62 57.0225 45.3552C57.402 45.0903 57.6911 44.7155 57.8509 44.2812C58.0107 43.8469 58.0334 43.3741 57.9161 42.9265C57.7987 42.4789 57.5469 42.078 57.1946 41.778L41.7904 28.6603C41.2898 28.2341 40.6537 28 39.9962 28C39.3387 28 38.7027 28.2341 38.2021 28.6603L22.7978 41.778C22.4448 42.0777 22.1922 42.4785 22.0744 42.9264C21.9566 43.3743 21.9791 43.8475 22.139 44.2822C22.2989 44.7168 22.5885 45.0918 22.9685 45.3565C23.3484 45.6212 23.8006 45.7629 24.2637 45.7623H26.2335V58.0246C26.2339 58.4231 26.3924 58.8051 26.6743 59.0867C26.9562 59.3683 27.3383 59.5265 27.7368 59.5265H34.5245C34.9229 59.5265 35.3049 59.3682 35.5865 59.0866C35.8682 58.8049 36.0264 58.4229 36.0264 58.0246V48.19L43.9647 48.1885Z" stroke="white" stroke-width="2" stroke-linecap="round" stroke-linejoin="round"/>
<path d="M47.0703 17H15.973C15.1845 17 14.4283 17.3132 13.8708 17.8708C13.3132 18.4283 13 19.1845 13 19.973V69.027C13 69.8155 13.3132 70.5717 13.8708 71.1292C14.4283 71.6868 15.1845 72 15.973 72H65.027C65.8155 72 66.5717 71.6868 67.1292 71.1292C67.6868 70.5717 68 69.8155 68 69.027V37.9297" stroke="white" stroke-width="2" stroke-linecap="round" stroke-linejoin="round"/>
<path d="M54.565 18.2291L54.5644 18.2285C54.3511 18.0044 54.0761 17.8485 53.7741 17.7806C53.4722 17.7128 53.1569 17.736 52.8682 17.8474C52.5795 17.9587 52.3303 18.1532 52.1521 18.4062C51.9739 18.6593 51.8748 18.9594 51.8672 19.2688L51.8672 19.2691C51.6751 26.9578 57.7757 33.3712 65.4652 33.5641C65.4652 33.5641 65.4653 33.5641 65.4653 33.5641M54.565 18.2291L65.5559 29.9356C66.1034 29.9492 66.623 30.1798 67.0004 30.5766C67.3778 30.9734 67.5822 31.5039 67.5685 32.0513C67.5548 32.5988 67.3242 33.1184 66.9274 33.4958C66.5307 33.8732 66.0002 34.0776 65.4527 34.0639L65.4653 33.5641M54.565 18.2291C54.7067 18.3775 54.8176 18.5525 54.8913 18.7439C54.965 18.9354 55.0001 19.1396 54.9945 19.3446L54.9945 19.3458C54.8454 25.3117 59.5777 30.2848 65.5433 30.4354L65.5434 30.4354C65.9583 30.4458 66.3521 30.6205 66.6381 30.9212C66.9242 31.2219 67.079 31.6239 67.0687 32.0388C67.0583 32.4537 66.8835 32.8475 66.5828 33.1335C66.2821 33.4196 65.8802 33.5744 65.4653 33.5641M54.565 18.2291L65.4653 33.5641M65.8495 18.0539L65.8495 18.054L65.8593 18.054C66.067 18.0556 66.2723 18.0985 66.4633 18.1803C66.6543 18.2621 66.827 18.3811 66.9715 18.5304C67.116 18.6796 67.2293 18.8562 67.3048 19.0497C67.3803 19.2432 67.4165 19.4498 67.4113 19.6575C67.4061 19.8651 67.3596 20.0697 67.2746 20.2592C67.1895 20.4487 67.0675 20.6194 66.9157 20.7612C66.764 20.9031 66.5855 21.0133 66.3907 21.0854C66.1959 21.1576 65.9887 21.1902 65.7812 21.1814L65.7812 21.1813L65.7714 21.1811C65.5661 21.1764 65.3637 21.1312 65.1759 21.048C64.9881 20.9648 64.8186 20.8453 64.6772 20.6964C64.5357 20.5475 64.4251 20.3721 64.3517 20.1803C64.2783 19.9885 64.2435 19.7841 64.2494 19.5788L64.2495 19.5759C64.2541 19.3708 64.2993 19.1686 64.3823 18.981C64.4654 18.7933 64.5846 18.6239 64.7333 18.4825C64.882 18.3411 65.0571 18.2304 65.2487 18.1569C65.4402 18.0833 65.6444 18.0483 65.8495 18.0539ZM66.7912 24.729L66.7917 24.7296C67.0049 24.9538 67.1468 25.2362 67.1995 25.541C67.2523 25.8458 67.2134 26.1595 67.0879 26.4422C66.9624 26.725 66.7559 26.9642 66.4945 27.1296C66.233 27.295 65.9284 27.3792 65.6192 27.3715L65.608 27.8196L65.6192 27.3715C61.3445 27.2654 57.9515 23.6986 58.0583 19.423C58.0687 19.0082 58.2434 18.6144 58.5441 18.3283C58.8448 18.0423 59.2469 17.8874 59.6617 17.8978C60.0766 17.9082 60.4704 18.0829 60.7564 18.3836C61.0425 18.6843 61.1974 19.0863 61.187 19.5012L61.187 19.5018C61.1578 20.7285 61.6164 21.9167 62.4621 22.8058C63.3078 23.6948 64.4716 24.2122 65.6982 24.2443L65.6996 24.2443C65.9045 24.2492 66.1065 24.2945 66.2938 24.3776C66.4811 24.4608 66.6502 24.5802 66.7912 24.729Z" fill="white" stroke="#1A1A19"/>
</svg>
