<svg width="115" height="43" viewBox="0 0 115 43" fill="none" xmlns="http://www.w3.org/2000/svg">
<path d="M20.9839 9.12061H17.1828V31.5485H20.9839V9.12061Z" fill="white"/>
<path d="M45.3955 21.5822C45.3955 24.2718 44.8337 26.5639 43.7251 28.4256C42.4939 30.5175 40.9041 31.5485 38.8661 31.5485H30.9291V28.8231H37.8022C38.8989 28.8231 40.4319 28.3539 41.5286 26.1036C42.1683 24.6176 42.4811 23.0114 42.4461 21.3939C42.4711 19.8714 42.0561 18.374 41.2507 17.0817C40.2795 15.6054 38.9826 14.8553 37.4048 14.8553H26.7574V42.5159H23.9543V12.2524H39.0812C40.9818 12.2524 42.4939 13.2117 43.7131 15.1781C44.8248 16.9532 45.3955 19.1257 45.3955 21.5822Z" fill="white"/>
<path d="M64.0516 25.7779C64.0591 26.5497 63.9017 27.3141 63.5899 28.0202C63.2781 28.7263 62.8191 29.3576 62.2437 29.872C61.0484 31.0016 59.596 31.5484 57.7612 31.5484H47.3021V29.2862H56.5928C57.7618 29.3213 58.9121 28.9866 59.8799 28.3299C60.3071 28.0583 60.6591 27.6835 60.9035 27.2401C61.1479 26.7968 61.2768 26.2991 61.2785 25.7928C61.2785 24.8246 60.8272 23.9788 59.9397 23.2855C59.0431 22.5936 57.9374 22.2278 56.805 22.2486H53.3684C51.7717 22.2459 50.236 21.6346 49.0742 20.5392C47.8789 19.4933 47.2812 18.4294 47.2812 17.2848C47.281 15.9553 47.8075 14.6798 48.7455 13.7376C49.1854 13.2504 49.7259 12.8645 50.3295 12.6065C50.9332 12.3486 51.5856 12.2247 52.2418 12.2434H55.9324V14.404L54.3516 14.4339C53.8714 14.4283 53.3922 14.4774 52.9231 14.5804C52.4693 14.6928 52.033 14.8668 51.6262 15.0973C50.7297 15.5904 50.2516 16.2927 50.2516 17.1205C50.2516 17.9483 50.6729 18.6147 51.4768 19.1227C52.2608 19.6056 53.1681 19.8506 54.0886 19.828H57.7672C59.4197 19.828 60.878 20.5452 62.2168 22.0274C63.436 23.3543 64.0516 24.6214 64.0516 25.7779Z" fill="white"/>
<path d="M85.1133 12.2524V31.5575H74.448C73.2598 31.549 72.0802 31.3554 70.9517 30.9837C70.4441 30.8105 69.957 30.582 69.4994 30.3023C69.1094 30.0388 68.76 29.7196 68.4624 29.355C67.3239 28.07 66.8756 27.3588 66.7023 26.9852L66.6724 26.9374C66.3172 26.2577 66.1413 25.4986 66.1614 24.732V12.2524H68.9704V23.5605C68.9568 24.2042 69.0886 24.8426 69.3559 25.4283C69.6341 25.923 69.9572 26.3912 70.3211 26.8268C70.7752 27.3813 71.3078 27.8666 71.902 28.2672L71.9856 28.3091C72.4604 28.5243 72.9764 28.6334 73.4977 28.6288H82.2774V12.2524H85.1133Z" fill="white"/>
<path d="M101.603 17.273C101.697 17.5939 101.742 17.9276 101.734 18.2621V31.5515H99.0628V19.3708C99.0748 18.7196 98.8871 18.0803 98.5249 17.5389C98.3405 17.2684 98.1281 17.018 97.8914 16.7918C97.6971 16.5976 97.5119 16.4243 97.3296 16.2539C97.1217 16.0724 96.8999 15.9075 96.6662 15.7608C96.454 15.6353 96.2329 15.5068 95.9908 15.3873C95.4911 15.1534 94.9436 15.0398 94.3921 15.0556H90.062V31.5515H87.4442V12.2525H95.7278C96.474 12.2438 97.2068 12.4514 97.8376 12.8501C98.5747 13.397 99.2447 14.029 99.8338 14.7328L100.431 15.3305L101.005 15.9401L101.603 17.273Z" fill="white"/>
<path d="M114.996 18.3936V31.5425H112.217V19.5023C112.217 18.992 112.066 18.4931 111.784 18.0679L109.223 15.5845L109.145 15.5188C108.897 15.3296 108.626 15.172 108.339 15.0496C108.028 14.9247 107.696 14.8608 107.361 14.8613H100.907L100.924 12.2435H107.986C108.91 12.2215 109.829 12.3788 110.693 12.7067C111.511 13.0381 112.259 13.5207 112.899 14.1292C113.535 14.7465 114.082 15.4508 114.521 16.221C114.863 16.8926 115.027 17.6407 114.996 18.3936Z" fill="white"/>
<path d="M32.2141 34.9044V39.4468C32.2141 39.9638 32.2141 41.8375 34.0339 41.8375C35.8538 41.8375 35.8538 39.9668 35.8538 39.4468V34.9044H36.6039V39.4468C36.6039 41.6313 35.5311 42.5129 34.0339 42.5129C32.5368 42.5129 31.464 41.6343 31.464 39.4468V34.9044H32.2141Z" fill="#6CC852"/>
<path d="M38.0891 34.9044H39.0992L43.3306 41.1143V34.9044H44.0807V42.3754H43.3306L38.8481 35.8009V42.3754H38.1011L38.0891 34.9044Z" fill="#6CC852"/>
<path d="M45.5719 34.9044H47.6249C51.1361 34.9044 51.9221 37.1308 51.9221 38.6369C51.9221 40.4568 50.7267 42.3903 47.6757 42.3903H45.5839L45.5719 34.9044ZM47.6637 41.712C50.141 41.712 51.163 40.1251 51.163 38.6369C51.163 37.4236 50.4757 35.5828 47.6129 35.5828H46.319V41.712H47.6637Z" fill="#6CC852"/>
<path d="M53.0964 34.9044H57.2024V35.5828H53.8435V38.2723H57.0769V38.9507H53.8435V41.703H57.2024V42.3814H53.0964V34.9044Z" fill="#6CC852"/>
<path d="M58.5143 34.9044H60.6061C63.4181 34.9044 63.5944 36.7363 63.5944 37.3519C63.5944 38.5652 62.7248 39.5065 61.389 39.5962L63.4809 42.3874H62.5515L60.0114 38.9985H60.6091C61.0334 38.9985 62.8354 38.9776 62.8354 37.2802C62.8354 36.4823 62.3812 35.5798 60.6091 35.5798H59.2644V42.3874H58.5173L58.5143 34.9044Z" fill="#6CC852"/>
<path d="M73.1271 36.817C72.8566 36.3884 72.4795 36.0373 72.0327 35.798C71.586 35.5586 71.0848 35.4392 70.5781 35.4513C70.1605 35.4447 69.7459 35.5226 69.3592 35.6803C68.9725 35.838 68.6216 36.0723 68.3277 36.369C68.0338 36.6657 67.8029 37.0187 67.6489 37.4069C67.4949 37.7951 67.4209 38.2105 67.4314 38.628C67.4242 39.0504 67.5018 39.47 67.6598 39.8619C67.8178 40.2538 68.0528 40.61 68.3511 40.9093C68.6493 41.2086 69.0045 41.445 69.3958 41.6045C69.7871 41.7639 70.2064 41.8432 70.6289 41.8375C71.1347 41.8365 71.632 41.7071 72.0742 41.4614C72.5164 41.2158 72.8889 40.8619 73.157 40.433H74.0535C73.7361 41.0431 73.2623 41.558 72.6807 41.9251C72.099 42.2922 71.4304 42.4983 70.743 42.5223C70.0557 42.5463 69.3742 42.3875 68.7684 42.0619C68.1625 41.7363 67.654 41.2557 67.2947 40.6692C66.9354 40.0827 66.7382 39.4114 66.7234 38.7237C66.7085 38.0361 66.8765 37.3568 67.2101 36.7554C67.5437 36.1539 68.031 35.6518 68.6222 35.3003C69.2134 34.9489 69.8874 34.7607 70.5751 34.755C72.132 34.755 73.3961 35.5021 74.0236 36.7991L73.1271 36.817Z" fill="#6CC852"/>
<path d="M82.8362 38.6071C82.8428 39.1273 82.7444 39.6435 82.5468 40.1248C82.3492 40.6061 82.0565 41.0426 81.6863 41.4081C81.316 41.7736 80.8758 42.0606 80.392 42.252C79.9082 42.4434 79.3908 42.5352 78.8707 42.5219C76.6653 42.5219 74.9052 40.9141 74.9052 38.6668C74.9001 38.1484 74.9999 37.6343 75.1984 37.1553C75.3969 36.6764 75.6901 36.2425 76.0605 35.8797C76.4308 35.5169 76.8706 35.2326 77.3536 35.044C77.8365 34.8553 78.3525 34.7662 78.8707 34.7819C81.106 34.773 82.8362 36.3807 82.8362 38.6071ZM82.0891 38.6071C82.0983 38.1866 82.0216 37.7686 81.8636 37.3788C81.7057 36.989 81.4698 36.6356 81.1704 36.3401C80.8711 36.0447 80.5146 35.8135 80.1227 35.6606C79.7309 35.5078 79.312 35.4366 78.8916 35.4513C78.2578 35.4532 77.6389 35.6433 77.1134 35.9976C76.5879 36.3519 76.1795 36.8544 75.9402 37.4413C75.7008 38.0282 75.6412 38.673 75.7691 39.2937C75.8969 39.9145 76.2063 40.4833 76.658 40.9279C77.1097 41.3725 77.6834 41.6728 78.3061 41.7907C78.9289 41.9086 79.5726 41.8387 80.1555 41.59C80.7385 41.3413 81.2344 40.925 81.5803 40.3939C81.9261 39.8627 82.1064 39.2408 82.0981 38.6071H82.0891Z" fill="#6CC852"/>
<path d="M84.0166 34.9044H85.0267L89.2551 41.1143V34.9044H90.0052V42.3754H89.2551L84.7726 35.8009V42.3754H84.0256L84.0166 34.9044Z" fill="#6CC852"/>
<path d="M92.5333 35.5828H90.824V34.9044H94.9927V35.5828H93.2834V42.3903H92.5363L92.5333 35.5828Z" fill="#6CC852"/>
<path d="M95.8085 34.9044H97.9003C100.712 34.9044 100.889 36.7363 100.889 37.3519C100.889 38.5652 100.019 39.5065 98.6832 39.5962L100.775 42.3874H99.8457L97.3056 38.9985H97.9033C98.3276 38.9985 100.13 38.9776 100.13 37.2802C100.13 36.4823 99.6754 35.5798 97.9033 35.5798H96.5585V42.3874H95.8115L95.8085 34.9044Z" fill="#6CC852"/>
<path d="M109.552 38.6071C109.558 39.1273 109.46 39.6435 109.262 40.1248C109.065 40.6061 108.772 41.0426 108.402 41.4081C108.032 41.7736 107.591 42.0606 107.108 42.252C106.624 42.4434 106.106 42.5352 105.586 42.5219C103.381 42.5219 101.621 40.9141 101.621 38.6668C101.616 38.1484 101.715 37.6343 101.914 37.1553C102.112 36.6764 102.406 36.2425 102.776 35.8797C103.146 35.5169 103.586 35.2326 104.069 35.044C104.552 34.8553 105.068 34.7662 105.586 34.7819C107.822 34.773 109.552 36.3807 109.552 38.6071ZM108.805 38.6071C108.814 38.1858 108.737 37.7671 108.578 37.3766C108.42 36.9862 108.183 36.6323 107.883 36.3368C107.583 36.0412 107.225 35.8102 106.832 35.6579C106.439 35.5056 106.019 35.4353 105.598 35.4513C104.964 35.4532 104.346 35.6433 103.82 35.9976C103.294 36.3519 102.886 36.8544 102.647 37.4413C102.407 38.0282 102.348 38.673 102.476 39.2937C102.603 39.9145 102.913 40.4833 103.365 40.9279C103.816 41.3725 104.39 41.6728 105.013 41.7907C105.635 41.9086 106.279 41.8387 106.862 41.59C107.445 41.3413 107.941 40.925 108.287 40.3939C108.633 39.8627 108.813 39.2408 108.805 38.6071Z" fill="#6CC852"/>
<path d="M110.735 34.9044H111.482V41.712H114.578V42.3903H110.735V34.9044Z" fill="#6CC852"/>
<path d="M74.5466 14.6073H76.9372V9.12061H74.5466V14.6073Z" fill="#6CC852"/>
<path d="M17.2217 39.9369H8.45694C5.06221 39.9369 2.30101 36.8349 2.30101 33.0217V9.5001C2.30101 5.67795 5.06221 2.58496 8.45694 2.58496H29.3961C32.4502 2.58496 34.9842 5.0982 35.4624 8.37945H37.7873C37.2942 3.66975 33.7232 0 29.3961 0H8.45694C3.79218 0 0 4.26145 0 9.5001V33.0217C0 38.2514 3.79218 42.5218 8.45694 42.5218H17.2217V39.9369Z" fill="#6CC852"/>
</svg>
