<svg width="258" height="96" viewBox="0 0 258 96" fill="none" xmlns="http://www.w3.org/2000/svg">
<path d="M47.1465 20.4399H38.6278V70.7025H47.1465V20.4399Z" fill="white"/>
<path d="M101.855 48.3673C101.855 54.3948 100.596 59.5316 98.111 63.7039C95.3518 68.392 91.7889 70.7025 87.2216 70.7025H69.4342V64.5947H84.8374C87.2952 64.5947 90.7308 63.5432 93.1886 58.5002C94.6221 55.1698 95.3232 51.5703 95.2446 47.9454C95.3008 44.5333 94.3706 41.1775 92.5658 38.2813C90.3893 34.9729 87.4827 33.2919 83.9467 33.2919H60.0851V95.2813H53.8033V27.4586H87.7038C91.9631 27.4586 95.3518 29.6084 98.0842 34.0152C100.575 37.9933 101.855 42.8622 101.855 48.3673Z" fill="white"/>
<path d="M143.664 57.7702C143.681 59.4998 143.328 61.2131 142.629 62.7954C141.931 64.3777 140.902 65.7926 139.613 66.9454C136.934 69.4769 133.679 70.7025 129.567 70.7025H106.127V65.6327H126.948C129.568 65.7112 132.146 64.9612 134.315 63.4896C135.273 62.8807 136.061 62.0409 136.609 61.0472C137.157 60.0536 137.446 58.9382 137.449 57.8036C137.449 55.6338 136.438 53.7384 134.449 52.1847C132.44 50.6339 129.962 49.8142 127.424 49.8608H119.722C116.144 49.8547 112.702 48.4847 110.099 46.0299C107.42 43.6859 106.08 41.3017 106.08 38.7367C106.08 35.7571 107.26 32.8987 109.362 30.7871C110.348 29.6952 111.559 28.8303 112.912 28.2522C114.265 27.6741 115.727 27.3964 117.198 27.4385H125.468V32.2806L121.926 32.3475C120.85 32.335 119.776 32.4451 118.724 32.6757C117.707 32.9277 116.73 33.3176 115.818 33.8343C113.809 34.9394 112.737 36.5132 112.737 38.3683C112.737 40.2235 113.682 41.7169 115.483 42.8555C117.24 43.9377 119.273 44.4867 121.336 44.436H129.58C133.284 44.436 136.552 46.0433 139.552 49.3652C142.285 52.3387 143.664 55.1783 143.664 57.7702Z" fill="white"/>
<path d="M190.865 27.4586V70.7226H166.963C164.301 70.7037 161.657 70.2698 159.128 69.4368C157.99 69.0486 156.899 68.5365 155.873 67.9098C154.999 67.3192 154.216 66.6039 153.549 65.7868C150.998 62.907 149.993 61.313 149.605 60.4759L149.538 60.3687C148.742 58.8455 148.347 57.1443 148.392 55.4262V27.4586H154.688V52.8009C154.657 54.2434 154.952 55.6741 155.552 56.9866C156.175 58.0955 156.899 59.1446 157.715 60.1209C158.732 61.3636 159.926 62.451 161.257 63.349L161.445 63.4428C162.509 63.9251 163.665 64.1696 164.834 64.1594H184.51V27.4586H190.865Z" fill="white"/>
<path d="M227.819 38.7099C228.031 39.4292 228.131 40.177 228.114 40.9267V70.7092H222.127V43.4114C222.154 41.9519 221.733 40.5192 220.921 39.306C220.508 38.6996 220.032 38.1385 219.502 37.6317C219.066 37.1963 218.651 36.8079 218.243 36.4262C217.777 36.0194 217.28 35.6499 216.756 35.3211C216.28 35.0398 215.785 34.7519 215.242 34.484C214.123 33.9597 212.895 33.7051 211.659 33.7406H201.955V70.7092H196.089V27.4586H214.653C216.325 27.4391 217.968 27.9043 219.381 28.798C221.033 30.0237 222.535 31.4399 223.855 33.0173L225.194 34.3567L226.48 35.723L227.819 38.7099Z" fill="white"/>
<path d="M257.836 41.2214V70.6891H251.607V43.706C251.606 42.5624 251.268 41.4444 250.636 40.4914L244.897 34.926L244.723 34.7787C244.166 34.3547 243.559 34.0015 242.915 33.7272C242.218 33.4473 241.475 33.3041 240.725 33.3053H226.259L226.299 27.4385H242.124C244.195 27.3892 246.255 27.7417 248.192 28.4766C250.025 29.2193 251.702 30.3008 253.134 31.6644C254.561 33.048 255.786 34.6263 256.771 36.3525C257.537 37.8576 257.903 39.534 257.836 41.2214Z" fill="white"/>
<path d="M72.314 78.2235V88.4033C72.314 89.5619 72.314 93.761 76.3925 93.761C80.471 93.761 80.471 89.5686 80.471 88.4033V78.2235H82.1519V88.4033C82.1519 93.2989 79.7477 95.2746 76.3925 95.2746C73.0372 95.2746 70.633 93.3056 70.633 88.4033V78.2235H72.314Z" fill="#6CC852"/>
<path d="M85.4803 78.2235H87.7439L97.227 92.1403V78.2235H98.9079V94.9665H97.227L87.1814 80.2327V94.9665H85.5071L85.4803 78.2235Z" fill="#6CC852"/>
<path d="M102.25 78.2235H106.851C114.72 78.2235 116.481 83.2129 116.481 86.5883C116.481 90.6669 113.802 95 106.964 95H102.277L102.25 78.2235ZM106.938 93.4798C112.49 93.4798 114.78 89.9235 114.78 86.5883C114.78 83.8693 113.24 79.7438 106.824 79.7438H103.924V93.4798H106.938Z" fill="#6CC852"/>
<path d="M119.113 78.2235H128.315V79.7438H120.787V85.7713H128.033V87.2915H120.787V93.4597H128.315V94.9799H119.113V78.2235Z" fill="#6CC852"/>
<path d="M131.255 78.2235H135.943C142.245 78.2235 142.64 82.3289 142.64 83.7085C142.64 86.4276 140.691 88.5372 137.697 88.7381L142.385 94.9933H140.302L134.61 87.3987H135.949C136.9 87.3987 140.939 87.3518 140.939 83.5478C140.939 81.7596 139.921 79.7371 135.949 79.7371H132.936V94.9933H131.261L131.255 78.2235Z" fill="#6CC852"/>
<path d="M164.003 82.5097C163.397 81.5493 162.552 80.7624 161.551 80.226C160.549 79.6896 159.426 79.4219 158.291 79.4491C157.355 79.4344 156.426 79.609 155.559 79.9624C154.692 80.3158 153.906 80.8407 153.247 81.5057C152.589 82.1706 152.071 82.9618 151.726 83.8318C151.381 84.7018 151.215 85.6326 151.239 86.5683C151.222 87.515 151.397 88.4554 151.751 89.3337C152.105 90.2119 152.631 91.0101 153.3 91.681C153.968 92.3518 154.764 92.8816 155.641 93.2389C156.518 93.5962 157.458 93.7738 158.405 93.7611C159.538 93.7588 160.653 93.4688 161.644 92.9183C162.634 92.3678 163.469 91.5747 164.07 90.6134H166.079C165.368 91.9808 164.306 93.1348 163.003 93.9574C161.699 94.7801 160.201 95.242 158.66 95.2958C157.12 95.3497 155.593 94.9936 154.235 94.2639C152.877 93.5343 151.737 92.4573 150.932 91.1429C150.127 89.8285 149.685 88.324 149.652 86.7829C149.619 85.2419 149.995 83.7196 150.743 82.3717C151.49 81.0237 152.582 79.8984 153.907 79.1108C155.232 78.3232 156.743 77.9014 158.284 77.8887C161.773 77.8887 164.606 79.563 166.012 82.4696L164.003 82.5097Z" fill="#6CC852"/>
<path d="M185.762 86.5214C185.777 87.6872 185.556 88.8441 185.113 89.9227C184.671 91.0013 184.015 91.9795 183.185 92.7986C182.355 93.6178 181.369 94.2611 180.284 94.6899C179.2 95.1188 178.041 95.3245 176.875 95.2947C171.933 95.2947 167.988 91.6916 167.988 86.6553C167.977 85.4934 168.2 84.3413 168.645 83.2679C169.09 82.1946 169.747 81.2222 170.577 80.4091C171.407 79.596 172.393 78.9589 173.475 78.5362C174.557 78.1134 175.714 77.9137 176.875 77.9489C181.884 77.9288 185.762 81.5319 185.762 86.5214ZM184.088 86.5214C184.108 85.579 183.936 84.6423 183.582 83.7687C183.228 82.8952 182.7 82.1031 182.029 81.441C181.358 80.7788 180.559 80.2607 179.681 79.9182C178.803 79.5757 177.864 79.416 176.922 79.4491C175.502 79.4532 174.114 79.8793 172.937 80.6734C171.759 81.4674 170.844 82.5936 170.307 83.9088C169.771 85.224 169.638 86.669 169.924 88.0602C170.21 89.4515 170.904 90.7262 171.916 91.7225C172.929 92.7189 174.214 93.3918 175.61 93.656C177.005 93.9202 178.448 93.7637 179.754 93.2064C181.061 92.649 182.172 91.716 182.947 90.5257C183.722 89.3354 184.126 87.9416 184.108 86.5214H184.088Z" fill="#6CC852"/>
<path d="M188.407 78.2235H190.671L200.147 92.1403V78.2235H201.828V94.9665H200.147L190.102 80.2327V94.9665H188.427L188.407 78.2235Z" fill="#6CC852"/>
<path d="M207.494 79.7438H203.663V78.2235H213.006V79.7438H209.175V95H207.501L207.494 79.7438Z" fill="#6CC852"/>
<path d="M214.834 78.2235H219.522C225.824 78.2235 226.219 82.3289 226.219 83.7085C226.219 86.4276 224.27 88.5372 221.276 88.7381L225.964 94.9933H223.882L218.189 87.3987H219.529C220.479 87.3987 224.518 87.3518 224.518 83.5478C224.518 81.7596 223.5 79.7371 219.529 79.7371H216.515V94.9933H214.841L214.834 78.2235Z" fill="#6CC852"/>
<path d="M245.634 86.5214C245.648 87.6872 245.428 88.8441 244.985 89.9227C244.542 91.0013 243.886 91.9795 243.056 92.7986C242.227 93.6178 241.24 94.2611 240.156 94.6899C239.072 95.1188 237.912 95.3245 236.747 95.2947C231.804 95.2947 227.86 91.6916 227.86 86.6553C227.848 85.4934 228.072 84.3413 228.517 83.2679C228.962 82.1946 229.619 81.2222 230.449 80.4091C231.279 79.596 232.264 78.9589 233.347 78.5362C234.429 78.1134 235.585 77.9137 236.747 77.9489C241.756 77.9288 245.634 81.5319 245.634 86.5214ZM243.959 86.5214C243.98 85.5772 243.808 84.6388 243.452 83.7639C243.097 82.8889 242.567 82.0958 241.894 81.4334C241.221 80.771 240.419 80.2533 239.539 79.912C238.658 79.5708 237.717 79.4132 236.773 79.4491C235.353 79.4532 233.966 79.8793 232.788 80.6734C231.611 81.4674 230.695 82.5936 230.159 83.9088C229.623 85.224 229.489 86.669 229.775 88.0602C230.062 89.4515 230.755 90.7262 231.768 91.7225C232.78 92.7189 234.066 93.3918 235.461 93.656C236.857 93.9202 238.299 93.7637 239.606 93.2064C240.912 92.649 242.024 91.716 242.799 90.5257C243.574 89.3354 243.978 87.9416 243.959 86.5214Z" fill="#6CC852"/>
<path d="M248.286 78.2235H249.96V93.4798H256.898V95H248.286V78.2235Z" fill="#6CC852"/>
<path d="M167.184 32.736H172.542V20.4399H167.184V32.736Z" fill="#6CC852"/>
<path d="M38.7149 89.5016H19.0724C11.4646 89.5016 5.27648 82.5499 5.27648 74.0042V21.2904C5.27648 12.7247 11.4646 5.79309 19.0724 5.79309H65.9986C72.843 5.79309 78.5221 11.4255 79.5936 18.779H84.8039C83.6989 8.22418 75.696 0 65.9986 0H19.0724C8.61831 0 0.119751 9.55023 0.119751 21.2904V74.0042C0.119751 85.7244 8.61831 95.2947 19.0724 95.2947H38.7149V89.5016Z" fill="#6CC852"/>
</svg>
