<svg width="201" height="74" viewBox="0 0 201 74" fill="none" xmlns="http://www.w3.org/2000/svg">
<path d="M36.6136 15.8619H30.0029V54.867H36.6136V15.8619Z" fill="white"/>
<path d="M79.0685 37.5343C79.0685 42.2118 78.0915 46.198 76.1633 49.4359C74.0221 53.0739 71.2573 54.8669 67.7129 54.8669H53.9095V50.1271H65.8627C67.7701 50.1271 70.4362 49.3111 72.3435 45.3976C73.4559 42.8132 74 40.0199 73.939 37.2068C73.9826 34.559 73.2607 31.9548 71.8602 29.7073C70.1711 27.1399 67.9156 25.8354 65.1715 25.8354H46.6543V73.9407H41.7795V21.3086H68.0871C71.3924 21.3086 74.0221 22.9769 76.1425 26.3967C78.0759 29.4838 79.0685 33.2622 79.0685 37.5343Z" fill="white"/>
<path d="M111.514 44.831C111.527 46.1733 111.253 47.5028 110.711 48.7308C110.169 49.9587 109.37 51.0566 108.37 51.9512C106.291 53.9157 103.765 54.8668 100.574 54.8668H82.3843V50.9326H98.542C100.575 50.9935 102.576 50.4115 104.259 49.2694C105.002 48.797 105.614 48.1452 106.039 47.3741C106.464 46.6031 106.688 45.7375 106.691 44.857C106.691 43.1731 105.906 41.7023 104.363 40.4966C102.803 39.2931 100.88 38.657 98.911 38.6931H92.9343C90.1574 38.6884 87.4867 37.6253 85.4661 35.7203C83.3873 33.9013 82.3479 32.0511 82.3479 30.0606C82.3475 27.7483 83.2632 25.5301 84.8945 23.8915C85.6596 23.0442 86.5996 22.373 87.6494 21.9244C88.6992 21.4757 89.8339 21.2603 90.9751 21.2929H97.3934V25.0505L94.6442 25.1024C93.8091 25.0927 92.9757 25.1781 92.16 25.3571C91.3707 25.5527 90.6118 25.8552 89.9044 26.2562C88.3453 27.1138 87.5138 28.3351 87.5138 29.7747C87.5138 31.2144 88.2466 32.3733 89.6446 33.2569C91.0081 34.0967 92.586 34.5227 94.1868 34.4834H100.584C103.458 34.4834 105.995 35.7307 108.323 38.3085C110.443 40.6161 111.514 42.8197 111.514 44.831Z" fill="white"/>
<path d="M148.143 21.3086V54.8825H129.595C127.528 54.8678 125.477 54.5312 123.514 53.8847C122.631 53.5834 121.784 53.1861 120.988 52.6997C120.31 52.2414 119.702 51.6863 119.185 51.0522C117.205 48.8174 116.425 47.5805 116.124 46.9308L116.072 46.8477C115.454 45.6656 115.148 44.3454 115.183 43.0121V21.3086H120.068V40.9748C120.045 42.0942 120.274 43.2045 120.739 44.2231C121.223 45.0835 121.785 45.8977 122.417 46.6554C123.207 47.6197 124.133 48.4636 125.167 49.1604L125.312 49.2332C126.138 49.6075 127.035 49.7973 127.942 49.7893H143.211V21.3086H148.143Z" fill="white"/>
<path d="M176.82 30.0399C176.985 30.5981 177.062 31.1784 177.049 31.7601V54.8721H172.403V33.6883C172.424 32.5557 172.097 31.4439 171.467 30.5024C171.147 30.0319 170.777 29.5964 170.366 29.2031C170.028 28.8653 169.706 28.5639 169.389 28.2676C169.027 27.952 168.641 27.6652 168.235 27.4101C167.866 27.1918 167.481 26.9683 167.06 26.7604C166.191 26.3536 165.239 26.156 164.28 26.1835H156.749V54.8721H152.197V21.3086H166.603C167.901 21.2934 169.175 21.6545 170.272 22.348C171.554 23.2991 172.719 24.3981 173.744 25.6222L174.783 26.6617L175.781 27.7219L176.82 30.0399Z" fill="white"/>
<path d="M200.114 31.9888V54.8565H195.28V33.917C195.279 33.0295 195.017 32.1619 194.527 31.4223L190.073 27.1034L189.938 26.9891C189.506 26.6601 189.034 26.386 188.535 26.1731C187.994 25.956 187.417 25.8448 186.835 25.8457H175.609L175.641 21.293H187.921C189.528 21.2547 191.127 21.5283 192.63 22.0985C194.052 22.6749 195.354 23.5142 196.465 24.5724C197.573 25.646 198.523 26.8708 199.287 28.2104C199.882 29.3784 200.166 30.6794 200.114 31.9888Z" fill="white"/>
<path d="M56.1442 60.7034V68.6031C56.1442 69.5022 56.1442 72.7609 59.3093 72.7609C62.4743 72.7609 62.4743 69.5074 62.4743 68.6031V60.7034H63.7788V68.6031C63.7788 72.4023 61.913 73.9354 59.3093 73.9354C56.7055 73.9354 54.8398 72.4075 54.8398 68.6031V60.7034H56.1442Z" fill="#6CC852"/>
<path d="M66.3617 60.7034H68.1183L75.4774 71.5032V60.7034H76.7818V73.6964H75.4774L67.6818 62.2625V73.6964H66.3825L66.3617 60.7034Z" fill="#6CC852"/>
<path d="M79.3752 60.7034H82.9456C89.0521 60.7034 90.419 64.5753 90.419 67.1947C90.419 70.3598 88.3401 73.7224 83.0339 73.7224H79.396L79.3752 60.7034ZM83.0131 72.5426C87.3215 72.5426 89.0989 69.7829 89.0989 67.1947C89.0989 65.0846 87.9036 61.8831 82.9248 61.8831H80.6745V72.5426H83.0131Z" fill="#6CC852"/>
<path d="M92.4614 60.7034H99.6022V61.8831H93.7606V66.5606H99.3839V67.7404H93.7606V72.527H99.6022V73.7068H92.4614V60.7034Z" fill="#6CC852"/>
<path d="M101.884 60.7034H105.522C110.412 60.7034 110.719 63.8893 110.719 64.9599C110.719 67.0699 109.206 68.7071 106.883 68.863L110.521 73.7172H108.905L104.487 67.8235H105.527C106.265 67.8235 109.399 67.7872 109.399 64.8351C109.399 63.4475 108.609 61.8779 105.527 61.8779H103.188V73.7172H101.889L101.884 60.7034Z" fill="#6CC852"/>
<path d="M127.297 64.0295C126.827 63.2842 126.171 62.6736 125.394 62.2573C124.617 61.841 123.745 61.6333 122.864 61.6544C122.138 61.643 121.417 61.7785 120.744 62.0527C120.072 62.327 119.462 62.7343 118.951 63.2504C118.439 63.7664 118.038 64.3804 117.77 65.0555C117.502 65.7306 117.373 66.453 117.392 67.1791C117.379 67.9138 117.514 68.6436 117.789 69.3251C118.064 70.0066 118.473 70.6261 118.991 71.1466C119.51 71.6672 120.128 72.0783 120.808 72.3556C121.489 72.6329 122.218 72.7707 122.953 72.7609C123.832 72.7591 124.697 72.5341 125.466 72.1068C126.235 71.6796 126.883 71.0642 127.349 70.3182H128.908C128.356 71.3793 127.532 72.2748 126.521 72.9132C125.509 73.5516 124.346 73.9101 123.151 73.9519C121.956 73.9936 120.771 73.7173 119.717 73.1511C118.663 72.5849 117.779 71.7491 117.154 70.7291C116.529 69.7091 116.186 68.5415 116.16 67.3456C116.135 66.1497 116.427 64.9684 117.007 63.9224C117.587 62.8764 118.435 62.0031 119.463 61.3919C120.491 60.7807 121.663 60.4534 122.859 60.4435C125.567 60.4435 127.765 61.7428 128.856 63.9984L127.297 64.0295Z" fill="#6CC852"/>
<path d="M144.183 67.1427C144.194 68.0474 144.023 68.9452 143.679 69.7822C143.336 70.6193 142.827 71.3783 142.183 72.014C141.539 72.6497 140.773 73.1489 139.932 73.4817C139.091 73.8145 138.191 73.9742 137.286 73.951C133.451 73.951 130.39 71.1549 130.39 67.2466C130.381 66.345 130.554 65.4509 130.9 64.618C131.245 63.785 131.755 63.0304 132.399 62.3994C133.043 61.7684 133.808 61.2741 134.648 60.946C135.487 60.6179 136.385 60.4629 137.286 60.4903C141.174 60.4747 144.183 63.2708 144.183 67.1427ZM142.883 67.1427C142.899 66.4114 142.766 65.6845 142.491 65.0066C142.217 64.3287 141.806 63.714 141.286 63.2002C140.765 62.6864 140.145 62.2842 139.464 62.0185C138.782 61.7527 138.054 61.6288 137.323 61.6544C136.22 61.6576 135.144 61.9883 134.23 62.6045C133.316 63.2207 132.606 64.0946 132.19 65.1153C131.773 66.1359 131.67 67.2573 131.892 68.3369C132.114 69.4165 132.652 70.4057 133.438 71.1789C134.224 71.9521 135.221 72.4744 136.304 72.6794C137.387 72.8844 138.507 72.7629 139.521 72.3304C140.535 71.8979 141.397 71.1738 141.998 70.2501C142.6 69.3265 142.913 68.2449 142.899 67.1427H142.883Z" fill="#6CC852"/>
<path d="M146.236 60.7034H147.992L155.346 71.5032V60.7034H156.65V73.6964H155.346L147.55 62.2625V73.6964H146.251L146.236 60.7034Z" fill="#6CC852"/>
<path d="M161.047 61.8831H158.074V60.7034H165.324V61.8831H162.352V73.7224H161.052L161.047 61.8831Z" fill="#6CC852"/>
<path d="M166.743 60.7034H170.381C175.272 60.7034 175.578 63.8893 175.578 64.9599C175.578 67.0699 174.066 68.7071 171.743 68.863L175.381 73.7172H173.764L169.347 67.8235H170.386C171.124 67.8235 174.258 67.7872 174.258 64.8351C174.258 63.4475 173.468 61.8779 170.386 61.8779H168.048V73.7172H166.748L166.743 60.7034Z" fill="#6CC852"/>
<path d="M190.645 67.1427C190.656 68.0474 190.485 68.9452 190.141 69.7822C189.798 70.6193 189.289 71.3783 188.645 72.014C188.001 72.6497 187.235 73.1489 186.394 73.4817C185.552 73.8145 184.653 73.9742 183.748 73.951C179.913 73.951 176.852 71.1549 176.852 67.2466C176.843 66.345 177.016 65.4509 177.361 64.618C177.707 63.785 178.217 63.0304 178.861 62.3994C179.505 61.7684 180.27 61.2741 181.11 60.946C181.949 60.6179 182.847 60.4629 183.748 60.4903C187.635 60.4747 190.645 63.2708 190.645 67.1427ZM189.345 67.1427C189.361 66.41 189.228 65.6818 188.952 65.0028C188.676 64.3238 188.264 63.7084 187.742 63.1943C187.22 62.6803 186.598 62.2785 185.915 62.0137C185.231 61.7489 184.501 61.6266 183.769 61.6544C182.667 61.6576 181.59 61.9883 180.676 62.6045C179.762 63.2207 179.052 64.0946 178.636 65.1153C178.22 66.1359 178.116 67.2573 178.338 68.3369C178.561 69.4165 179.099 70.4057 179.884 71.1789C180.67 71.9521 181.668 72.4744 182.751 72.6794C183.834 72.8844 184.953 72.7629 185.967 72.3304C186.981 71.8979 187.843 71.1738 188.445 70.2501C189.046 69.3265 189.36 68.2449 189.345 67.1427Z" fill="#6CC852"/>
<path d="M192.703 60.7034H194.002V72.5426H199.386V73.7224H192.703V60.7034Z" fill="#6CC852"/>
<path d="M129.766 25.404H133.924V15.8619H129.766V25.404Z" fill="#6CC852"/>
<path d="M30.0705 69.4554H14.8275C8.9236 69.4554 4.1215 64.0607 4.1215 57.4291V16.5219C4.1215 9.87469 8.9236 4.49558 14.8275 4.49558H51.2434C56.5548 4.49558 60.9619 8.86643 61.7935 14.573H65.8368C64.9793 6.38217 58.7688 0 51.2434 0H14.8275C6.71484 0 0.119751 7.41121 0.119751 16.5219V57.4291C0.119751 66.5242 6.71484 73.951 14.8275 73.951H30.0705V69.4554Z" fill="#6CC852"/>
</svg>
