<svg id="Слой_1" data-name="Слой 1" xmlns="http://www.w3.org/2000/svg" viewBox="0 0 384.82 141.85">
  <defs>
    <style>
      .cls-1 {
        fill: #fff;
      }

      .cls-2 {
        fill: #6cc852;
      }
    </style>
  </defs>
  <title>лого свг-01</title>
  <g>
    <rect class="cls-1" x="57.5" y="30.52" width="12.72" height="75.05"/>
    <path class="cls-1" d="M151.91,72.22c0,9-1.88,16.67-5.59,22.9-4.12,7-9.44,10.45-16.26,10.45H103.5V96.45h23c3.67,0,8.8-1.57,12.47-9.1a37.79,37.79,0,0,0,3.07-15.76,26.46,26.46,0,0,0-4-14.43c-3.25-4.94-7.59-7.45-12.87-7.45H89.54v92.56H80.16V41h50.62c6.36,0,11.42,3.21,15.5,9.79C150,56.73,151.91,64,151.91,72.22Z"/>
    <path class="cls-1" d="M214.34,86.26a18.14,18.14,0,0,1-6.05,13.7c-4,3.78-8.86,5.61-15,5.61h-35V98h31.09a18.6,18.6,0,0,0,11-3.2,10.1,10.1,0,0,0,4.68-8.49c0-3.24-1.51-6.07-4.48-8.39a16.67,16.67,0,0,0-10.49-3.47h-11.5a21,21,0,0,1-14.37-5.72c-4-3.5-6-7.06-6-10.89a16.82,16.82,0,0,1,4.9-11.87,15.18,15.18,0,0,1,11.7-5h12.35V48.2l-5.29.1a21.15,21.15,0,0,0-4.78.49,17.18,17.18,0,0,0-4.34,1.73c-3,1.65-4.6,4-4.6,6.77s1.41,5,4.1,6.7A15.92,15.92,0,0,0,181,66.35h12.31c5.53,0,10.41,2.4,14.89,7.36C212.28,78.15,214.34,82.39,214.34,86.26Z"/>
    <path class="cls-1" d="M284.82,41v64.6H249.13a38.27,38.27,0,0,1-11.7-1.92,24.49,24.49,0,0,1-4.86-2.28,16.16,16.16,0,0,1-3.47-3.17c-3.81-4.3-5.31-6.68-5.89-7.93l-.1-.16a15.08,15.08,0,0,1-1.71-7.38V41h9.4V78.84a14.32,14.32,0,0,0,1.29,6.25,31,31,0,0,0,3.23,4.68,24.65,24.65,0,0,0,5.29,4.82l.28.14a12,12,0,0,0,5.06,1.07h29.38V41Z"/>
    <path class="cls-1" d="M340,57.8a10.86,10.86,0,0,1,.44,3.31v44.47h-8.94V64.82a10.67,10.67,0,0,0-1.8-6.13,15.63,15.63,0,0,0-2.12-2.5c-.65-.65-1.27-1.23-1.88-1.8a17.61,17.61,0,0,0-2.22-1.65c-.71-.42-1.45-.85-2.26-1.25a11.82,11.82,0,0,0-5.35-1.11H301.38v55.2h-8.76V41h27.72a12.93,12.93,0,0,1,7.06,2,39.06,39.06,0,0,1,6.68,6.3l2,2L338,53.34Z"/>
    <path class="cls-1" d="M384.82,61.55v44h-9.3V65.26a8.7,8.7,0,0,0-1.45-4.8l-8.57-8.31-.26-.22a12.63,12.63,0,0,0-2.7-1.57,8.73,8.73,0,0,0-3.27-.63H337.67l.06-8.76h23.63a23.93,23.93,0,0,1,9.06,1.55,23.51,23.51,0,0,1,7.38,4.76,31.49,31.49,0,0,1,5.43,7A14.73,14.73,0,0,1,384.82,61.55Z"/>
    <g>
      <path class="cls-2" d="M107.8,116.8V132c0,1.73,0,8,6.09,8s6.09-6.26,6.09-8V116.8h2.51V132c0,7.31-3.59,10.26-8.6,10.26s-8.6-2.94-8.6-10.26V116.8Z"/>
      <path class="cls-2" d="M127.46,116.8h3.38L145,137.58V116.8h2.51v25H145l-15-22v22h-2.5Z"/>
      <path class="cls-2" d="M152.5,116.8h6.87c11.75,0,14.38,7.45,14.38,12.49,0,6.09-4,12.56-14.21,12.56h-7Zm7,22.78c8.29,0,11.71-5.31,11.71-10.29,0-4.06-2.3-10.22-11.88-10.22H155v20.51Z"/>
      <path class="cls-2" d="M177.68,116.8h13.74v2.27H180.18v9H191v2.27H180.18v9.21h11.24v2.27H177.68Z"/>
      <path class="cls-2" d="M195.81,116.8h7c9.41,0,10,6.13,10,8.19,0,4.06-2.91,7.21-7.38,7.51l7,9.34h-3.11l-8.5-11.34h2c1.42,0,7.45-.07,7.45-5.75,0-2.67-1.52-5.69-7.45-5.69h-4.5v22.78h-2.5Z"/>
      <path class="cls-2" d="M244.71,123.2a9.81,9.81,0,0,0-8.53-4.57,10.37,10.37,0,0,0-10.53,10.63A10.56,10.56,0,0,0,236.35,140a10,10,0,0,0,8.46-4.7h3a13,13,0,1,1-11.64-19c5.21,0,9.44,2.5,11.54,6.84Z"/>
      <path class="cls-2" d="M277.2,129.19a12.94,12.94,0,0,1-13.27,13.1c-7.38,0-13.27-5.38-13.27-12.9a12.88,12.88,0,0,1,13.27-13C271.41,116.36,277.2,121.74,277.2,129.19Zm-2.5,0A10.34,10.34,0,0,0,264,118.63a10.7,10.7,0,1,0,10.73,10.56Z"/>
      <path class="cls-2" d="M281.15,116.8h3.38l14.15,20.78V116.8h2.51v25h-2.51l-15-22v22h-2.5Z"/>
      <path class="cls-2" d="M309.65,119.07h-5.72V116.8h13.95v2.27h-5.72v22.78h-2.5Z"/>
      <path class="cls-2" d="M320.61,116.8h7c9.41,0,10,6.13,10,8.19,0,4.06-2.91,7.21-7.38,7.51l7,9.34h-3.11l-8.5-11.34h2c1.42,0,7.45-.07,7.45-5.75,0-2.67-1.52-5.69-7.45-5.69h-4.5v22.78h-2.5Z"/>
      <path class="cls-2" d="M366.6,129.19a12.94,12.94,0,0,1-13.27,13.1c-7.38,0-13.27-5.38-13.27-12.9a12.88,12.88,0,0,1,13.27-13C360.81,116.36,366.6,121.74,366.6,129.19Zm-2.5,0a10.34,10.34,0,0,0-10.73-10.56,10.7,10.7,0,1,0,10.73,10.56Z"/>
      <path class="cls-2" d="M370.56,116.8h2.5v22.78h10.36v2.27H370.56Z"/>
    </g>
    <path class="cls-2" d="M249.46,48.88h8V30.52h-8Z"/>
    <path class="cls-2" d="M57.63,133.64H28.3c-11.36,0-20.6-10.38-20.6-23.14V31.79C7.7,19,16.94,8.65,28.3,8.65H98.37c10.22,0,18.7,8.41,20.3,19.39h7.78C124.8,12.28,112.85,0,98.37,0H28.3C12.69,0,0,14.26,0,31.79V110.5C0,128,12.69,142.29,28.3,142.29H57.63Z"/>
  </g>
</svg>
